%TF.GenerationSoftware,KiCad,Pcbnew,9.0.6-9.0.6~ubuntu24.04.1*%
%TF.CreationDate,2026-01-01T19:23:50+01:00*%
%TF.ProjectId,security-system,73656375-7269-4747-992d-73797374656d,0*%
%TF.SameCoordinates,Original*%
%TF.FileFunction,Drillmap*%
%TF.FilePolarity,Positive*%
%FSLAX45Y45*%
G04 Gerber Fmt 4.5, Leading zero omitted, Abs format (unit mm)*
G04 Created by KiCad (PCBNEW 9.0.6-9.0.6~ubuntu24.04.1) date 2026-01-01 19:23:50*
%MOMM*%
%LPD*%
G01*
G04 APERTURE LIST*
%ADD10C,0.038100*%
%ADD11C,0.200000*%
%ADD12C,0.100000*%
G04 APERTURE END LIST*
D10*
X22700000Y-10700000D02*
X22700000Y-6600000D01*
X12500000Y-10700000D02*
X22700000Y-10700000D01*
X12960000Y-10350000D02*
G75*
G02*
X12740000Y-10350000I-110000J0D01*
G01*
X12740000Y-10350000D02*
G75*
G02*
X12960000Y-10350000I110000J0D01*
G01*
X12500000Y-6600000D02*
X12500000Y-10700000D01*
X22700000Y-6600000D02*
X12500000Y-6600000D01*
X12960000Y-6950000D02*
G75*
G02*
X12740000Y-6950000I-110000J0D01*
G01*
X12740000Y-6950000D02*
G75*
G02*
X12960000Y-6950000I110000J0D01*
G01*
X22460000Y-10350000D02*
G75*
G02*
X22240000Y-10350000I-110000J0D01*
G01*
X22240000Y-10350000D02*
G75*
G02*
X22460000Y-10350000I110000J0D01*
G01*
X22460000Y-6950000D02*
G75*
G02*
X22240000Y-6950000I-110000J0D01*
G01*
X22240000Y-6950000D02*
G75*
G02*
X22460000Y-6950000I110000J0D01*
G01*
D11*
D12*
X13123500Y-8340500D02*
X13188500Y-8405500D01*
X13188500Y-8340500D02*
X13123500Y-8405500D01*
X13123500Y-8918500D02*
X13188500Y-8983500D01*
X13188500Y-8918500D02*
X13123500Y-8983500D01*
D11*
X12758872Y-11013389D02*
X12758872Y-10813389D01*
X12758872Y-10813389D02*
X12806491Y-10813389D01*
X12806491Y-10813389D02*
X12835062Y-10822913D01*
X12835062Y-10822913D02*
X12854110Y-10841960D01*
X12854110Y-10841960D02*
X12863634Y-10861008D01*
X12863634Y-10861008D02*
X12873157Y-10899103D01*
X12873157Y-10899103D02*
X12873157Y-10927675D01*
X12873157Y-10927675D02*
X12863634Y-10965770D01*
X12863634Y-10965770D02*
X12854110Y-10984817D01*
X12854110Y-10984817D02*
X12835062Y-11003865D01*
X12835062Y-11003865D02*
X12806491Y-11013389D01*
X12806491Y-11013389D02*
X12758872Y-11013389D01*
X12958872Y-11013389D02*
X12958872Y-10880055D01*
X12958872Y-10918151D02*
X12968396Y-10899103D01*
X12968396Y-10899103D02*
X12977919Y-10889579D01*
X12977919Y-10889579D02*
X12996967Y-10880055D01*
X12996967Y-10880055D02*
X13016015Y-10880055D01*
X13082681Y-11013389D02*
X13082681Y-10880055D01*
X13082681Y-10813389D02*
X13073157Y-10822913D01*
X13073157Y-10822913D02*
X13082681Y-10832436D01*
X13082681Y-10832436D02*
X13092205Y-10822913D01*
X13092205Y-10822913D02*
X13082681Y-10813389D01*
X13082681Y-10813389D02*
X13082681Y-10832436D01*
X13206491Y-11013389D02*
X13187443Y-11003865D01*
X13187443Y-11003865D02*
X13177919Y-10984817D01*
X13177919Y-10984817D02*
X13177919Y-10813389D01*
X13311253Y-11013389D02*
X13292205Y-11003865D01*
X13292205Y-11003865D02*
X13282681Y-10984817D01*
X13282681Y-10984817D02*
X13282681Y-10813389D01*
X13539824Y-11013389D02*
X13539824Y-10813389D01*
X13539824Y-10813389D02*
X13606491Y-10956246D01*
X13606491Y-10956246D02*
X13673157Y-10813389D01*
X13673157Y-10813389D02*
X13673157Y-11013389D01*
X13854110Y-11013389D02*
X13854110Y-10908627D01*
X13854110Y-10908627D02*
X13844586Y-10889579D01*
X13844586Y-10889579D02*
X13825538Y-10880055D01*
X13825538Y-10880055D02*
X13787443Y-10880055D01*
X13787443Y-10880055D02*
X13768396Y-10889579D01*
X13854110Y-11003865D02*
X13835062Y-11013389D01*
X13835062Y-11013389D02*
X13787443Y-11013389D01*
X13787443Y-11013389D02*
X13768396Y-11003865D01*
X13768396Y-11003865D02*
X13758872Y-10984817D01*
X13758872Y-10984817D02*
X13758872Y-10965770D01*
X13758872Y-10965770D02*
X13768396Y-10946722D01*
X13768396Y-10946722D02*
X13787443Y-10937198D01*
X13787443Y-10937198D02*
X13835062Y-10937198D01*
X13835062Y-10937198D02*
X13854110Y-10927675D01*
X13949348Y-10880055D02*
X13949348Y-11080055D01*
X13949348Y-10889579D02*
X13968396Y-10880055D01*
X13968396Y-10880055D02*
X14006491Y-10880055D01*
X14006491Y-10880055D02*
X14025538Y-10889579D01*
X14025538Y-10889579D02*
X14035062Y-10899103D01*
X14035062Y-10899103D02*
X14044586Y-10918151D01*
X14044586Y-10918151D02*
X14044586Y-10975294D01*
X14044586Y-10975294D02*
X14035062Y-10994341D01*
X14035062Y-10994341D02*
X14025538Y-11003865D01*
X14025538Y-11003865D02*
X14006491Y-11013389D01*
X14006491Y-11013389D02*
X13968396Y-11013389D01*
X13968396Y-11013389D02*
X13949348Y-11003865D01*
X14130300Y-10994341D02*
X14139824Y-11003865D01*
X14139824Y-11003865D02*
X14130300Y-11013389D01*
X14130300Y-11013389D02*
X14120777Y-11003865D01*
X14120777Y-11003865D02*
X14130300Y-10994341D01*
X14130300Y-10994341D02*
X14130300Y-11013389D01*
X14130300Y-10889579D02*
X14139824Y-10899103D01*
X14139824Y-10899103D02*
X14130300Y-10908627D01*
X14130300Y-10908627D02*
X14120777Y-10899103D01*
X14120777Y-10899103D02*
X14130300Y-10889579D01*
X14130300Y-10889579D02*
X14130300Y-10908627D01*
D12*
X12433095Y-11309405D02*
X12498095Y-11374405D01*
X12498095Y-11309405D02*
X12433095Y-11374405D01*
D11*
X12796967Y-11233389D02*
X12816015Y-11233389D01*
X12816015Y-11233389D02*
X12835062Y-11242913D01*
X12835062Y-11242913D02*
X12844586Y-11252436D01*
X12844586Y-11252436D02*
X12854110Y-11271484D01*
X12854110Y-11271484D02*
X12863634Y-11309579D01*
X12863634Y-11309579D02*
X12863634Y-11357198D01*
X12863634Y-11357198D02*
X12854110Y-11395293D01*
X12854110Y-11395293D02*
X12844586Y-11414341D01*
X12844586Y-11414341D02*
X12835062Y-11423865D01*
X12835062Y-11423865D02*
X12816015Y-11433389D01*
X12816015Y-11433389D02*
X12796967Y-11433389D01*
X12796967Y-11433389D02*
X12777919Y-11423865D01*
X12777919Y-11423865D02*
X12768396Y-11414341D01*
X12768396Y-11414341D02*
X12758872Y-11395293D01*
X12758872Y-11395293D02*
X12749348Y-11357198D01*
X12749348Y-11357198D02*
X12749348Y-11309579D01*
X12749348Y-11309579D02*
X12758872Y-11271484D01*
X12758872Y-11271484D02*
X12768396Y-11252436D01*
X12768396Y-11252436D02*
X12777919Y-11242913D01*
X12777919Y-11242913D02*
X12796967Y-11233389D01*
X12949348Y-11414341D02*
X12958872Y-11423865D01*
X12958872Y-11423865D02*
X12949348Y-11433389D01*
X12949348Y-11433389D02*
X12939824Y-11423865D01*
X12939824Y-11423865D02*
X12949348Y-11414341D01*
X12949348Y-11414341D02*
X12949348Y-11433389D01*
X13130300Y-11233389D02*
X13092205Y-11233389D01*
X13092205Y-11233389D02*
X13073157Y-11242913D01*
X13073157Y-11242913D02*
X13063634Y-11252436D01*
X13063634Y-11252436D02*
X13044586Y-11281008D01*
X13044586Y-11281008D02*
X13035062Y-11319103D01*
X13035062Y-11319103D02*
X13035062Y-11395293D01*
X13035062Y-11395293D02*
X13044586Y-11414341D01*
X13044586Y-11414341D02*
X13054110Y-11423865D01*
X13054110Y-11423865D02*
X13073157Y-11433389D01*
X13073157Y-11433389D02*
X13111253Y-11433389D01*
X13111253Y-11433389D02*
X13130300Y-11423865D01*
X13130300Y-11423865D02*
X13139824Y-11414341D01*
X13139824Y-11414341D02*
X13149348Y-11395293D01*
X13149348Y-11395293D02*
X13149348Y-11347674D01*
X13149348Y-11347674D02*
X13139824Y-11328627D01*
X13139824Y-11328627D02*
X13130300Y-11319103D01*
X13130300Y-11319103D02*
X13111253Y-11309579D01*
X13111253Y-11309579D02*
X13073157Y-11309579D01*
X13073157Y-11309579D02*
X13054110Y-11319103D01*
X13054110Y-11319103D02*
X13044586Y-11328627D01*
X13044586Y-11328627D02*
X13035062Y-11347674D01*
X13330300Y-11233389D02*
X13235062Y-11233389D01*
X13235062Y-11233389D02*
X13225538Y-11328627D01*
X13225538Y-11328627D02*
X13235062Y-11319103D01*
X13235062Y-11319103D02*
X13254110Y-11309579D01*
X13254110Y-11309579D02*
X13301729Y-11309579D01*
X13301729Y-11309579D02*
X13320777Y-11319103D01*
X13320777Y-11319103D02*
X13330300Y-11328627D01*
X13330300Y-11328627D02*
X13339824Y-11347674D01*
X13339824Y-11347674D02*
X13339824Y-11395293D01*
X13339824Y-11395293D02*
X13330300Y-11414341D01*
X13330300Y-11414341D02*
X13320777Y-11423865D01*
X13320777Y-11423865D02*
X13301729Y-11433389D01*
X13301729Y-11433389D02*
X13254110Y-11433389D01*
X13254110Y-11433389D02*
X13235062Y-11423865D01*
X13235062Y-11423865D02*
X13225538Y-11414341D01*
X13463634Y-11233389D02*
X13482681Y-11233389D01*
X13482681Y-11233389D02*
X13501729Y-11242913D01*
X13501729Y-11242913D02*
X13511253Y-11252436D01*
X13511253Y-11252436D02*
X13520777Y-11271484D01*
X13520777Y-11271484D02*
X13530300Y-11309579D01*
X13530300Y-11309579D02*
X13530300Y-11357198D01*
X13530300Y-11357198D02*
X13520777Y-11395293D01*
X13520777Y-11395293D02*
X13511253Y-11414341D01*
X13511253Y-11414341D02*
X13501729Y-11423865D01*
X13501729Y-11423865D02*
X13482681Y-11433389D01*
X13482681Y-11433389D02*
X13463634Y-11433389D01*
X13463634Y-11433389D02*
X13444586Y-11423865D01*
X13444586Y-11423865D02*
X13435062Y-11414341D01*
X13435062Y-11414341D02*
X13425538Y-11395293D01*
X13425538Y-11395293D02*
X13416015Y-11357198D01*
X13416015Y-11357198D02*
X13416015Y-11309579D01*
X13416015Y-11309579D02*
X13425538Y-11271484D01*
X13425538Y-11271484D02*
X13435062Y-11252436D01*
X13435062Y-11252436D02*
X13444586Y-11242913D01*
X13444586Y-11242913D02*
X13463634Y-11233389D01*
X13616015Y-11433389D02*
X13616015Y-11300055D01*
X13616015Y-11319103D02*
X13625538Y-11309579D01*
X13625538Y-11309579D02*
X13644586Y-11300055D01*
X13644586Y-11300055D02*
X13673158Y-11300055D01*
X13673158Y-11300055D02*
X13692205Y-11309579D01*
X13692205Y-11309579D02*
X13701729Y-11328627D01*
X13701729Y-11328627D02*
X13701729Y-11433389D01*
X13701729Y-11328627D02*
X13711253Y-11309579D01*
X13711253Y-11309579D02*
X13730300Y-11300055D01*
X13730300Y-11300055D02*
X13758872Y-11300055D01*
X13758872Y-11300055D02*
X13777919Y-11309579D01*
X13777919Y-11309579D02*
X13787443Y-11328627D01*
X13787443Y-11328627D02*
X13787443Y-11433389D01*
X13882681Y-11433389D02*
X13882681Y-11300055D01*
X13882681Y-11319103D02*
X13892205Y-11309579D01*
X13892205Y-11309579D02*
X13911253Y-11300055D01*
X13911253Y-11300055D02*
X13939824Y-11300055D01*
X13939824Y-11300055D02*
X13958872Y-11309579D01*
X13958872Y-11309579D02*
X13968396Y-11328627D01*
X13968396Y-11328627D02*
X13968396Y-11433389D01*
X13968396Y-11328627D02*
X13977919Y-11309579D01*
X13977919Y-11309579D02*
X13996967Y-11300055D01*
X13996967Y-11300055D02*
X14025538Y-11300055D01*
X14025538Y-11300055D02*
X14044586Y-11309579D01*
X14044586Y-11309579D02*
X14054110Y-11328627D01*
X14054110Y-11328627D02*
X14054110Y-11433389D01*
X14444586Y-11223865D02*
X14273158Y-11481008D01*
X14701729Y-11233389D02*
X14720777Y-11233389D01*
X14720777Y-11233389D02*
X14739824Y-11242913D01*
X14739824Y-11242913D02*
X14749348Y-11252436D01*
X14749348Y-11252436D02*
X14758872Y-11271484D01*
X14758872Y-11271484D02*
X14768396Y-11309579D01*
X14768396Y-11309579D02*
X14768396Y-11357198D01*
X14768396Y-11357198D02*
X14758872Y-11395293D01*
X14758872Y-11395293D02*
X14749348Y-11414341D01*
X14749348Y-11414341D02*
X14739824Y-11423865D01*
X14739824Y-11423865D02*
X14720777Y-11433389D01*
X14720777Y-11433389D02*
X14701729Y-11433389D01*
X14701729Y-11433389D02*
X14682681Y-11423865D01*
X14682681Y-11423865D02*
X14673158Y-11414341D01*
X14673158Y-11414341D02*
X14663634Y-11395293D01*
X14663634Y-11395293D02*
X14654110Y-11357198D01*
X14654110Y-11357198D02*
X14654110Y-11309579D01*
X14654110Y-11309579D02*
X14663634Y-11271484D01*
X14663634Y-11271484D02*
X14673158Y-11252436D01*
X14673158Y-11252436D02*
X14682681Y-11242913D01*
X14682681Y-11242913D02*
X14701729Y-11233389D01*
X14854110Y-11414341D02*
X14863634Y-11423865D01*
X14863634Y-11423865D02*
X14854110Y-11433389D01*
X14854110Y-11433389D02*
X14844586Y-11423865D01*
X14844586Y-11423865D02*
X14854110Y-11414341D01*
X14854110Y-11414341D02*
X14854110Y-11433389D01*
X14987443Y-11233389D02*
X15006491Y-11233389D01*
X15006491Y-11233389D02*
X15025539Y-11242913D01*
X15025539Y-11242913D02*
X15035062Y-11252436D01*
X15035062Y-11252436D02*
X15044586Y-11271484D01*
X15044586Y-11271484D02*
X15054110Y-11309579D01*
X15054110Y-11309579D02*
X15054110Y-11357198D01*
X15054110Y-11357198D02*
X15044586Y-11395293D01*
X15044586Y-11395293D02*
X15035062Y-11414341D01*
X15035062Y-11414341D02*
X15025539Y-11423865D01*
X15025539Y-11423865D02*
X15006491Y-11433389D01*
X15006491Y-11433389D02*
X14987443Y-11433389D01*
X14987443Y-11433389D02*
X14968396Y-11423865D01*
X14968396Y-11423865D02*
X14958872Y-11414341D01*
X14958872Y-11414341D02*
X14949348Y-11395293D01*
X14949348Y-11395293D02*
X14939824Y-11357198D01*
X14939824Y-11357198D02*
X14939824Y-11309579D01*
X14939824Y-11309579D02*
X14949348Y-11271484D01*
X14949348Y-11271484D02*
X14958872Y-11252436D01*
X14958872Y-11252436D02*
X14968396Y-11242913D01*
X14968396Y-11242913D02*
X14987443Y-11233389D01*
X15130301Y-11252436D02*
X15139824Y-11242913D01*
X15139824Y-11242913D02*
X15158872Y-11233389D01*
X15158872Y-11233389D02*
X15206491Y-11233389D01*
X15206491Y-11233389D02*
X15225539Y-11242913D01*
X15225539Y-11242913D02*
X15235062Y-11252436D01*
X15235062Y-11252436D02*
X15244586Y-11271484D01*
X15244586Y-11271484D02*
X15244586Y-11290532D01*
X15244586Y-11290532D02*
X15235062Y-11319103D01*
X15235062Y-11319103D02*
X15120777Y-11433389D01*
X15120777Y-11433389D02*
X15244586Y-11433389D01*
X15425539Y-11233389D02*
X15330301Y-11233389D01*
X15330301Y-11233389D02*
X15320777Y-11328627D01*
X15320777Y-11328627D02*
X15330301Y-11319103D01*
X15330301Y-11319103D02*
X15349348Y-11309579D01*
X15349348Y-11309579D02*
X15396967Y-11309579D01*
X15396967Y-11309579D02*
X15416015Y-11319103D01*
X15416015Y-11319103D02*
X15425539Y-11328627D01*
X15425539Y-11328627D02*
X15435062Y-11347674D01*
X15435062Y-11347674D02*
X15435062Y-11395293D01*
X15435062Y-11395293D02*
X15425539Y-11414341D01*
X15425539Y-11414341D02*
X15416015Y-11423865D01*
X15416015Y-11423865D02*
X15396967Y-11433389D01*
X15396967Y-11433389D02*
X15349348Y-11433389D01*
X15349348Y-11433389D02*
X15330301Y-11423865D01*
X15330301Y-11423865D02*
X15320777Y-11414341D01*
X15606491Y-11233389D02*
X15568396Y-11233389D01*
X15568396Y-11233389D02*
X15549348Y-11242913D01*
X15549348Y-11242913D02*
X15539824Y-11252436D01*
X15539824Y-11252436D02*
X15520777Y-11281008D01*
X15520777Y-11281008D02*
X15511253Y-11319103D01*
X15511253Y-11319103D02*
X15511253Y-11395293D01*
X15511253Y-11395293D02*
X15520777Y-11414341D01*
X15520777Y-11414341D02*
X15530301Y-11423865D01*
X15530301Y-11423865D02*
X15549348Y-11433389D01*
X15549348Y-11433389D02*
X15587443Y-11433389D01*
X15587443Y-11433389D02*
X15606491Y-11423865D01*
X15606491Y-11423865D02*
X15616015Y-11414341D01*
X15616015Y-11414341D02*
X15625539Y-11395293D01*
X15625539Y-11395293D02*
X15625539Y-11347674D01*
X15625539Y-11347674D02*
X15616015Y-11328627D01*
X15616015Y-11328627D02*
X15606491Y-11319103D01*
X15606491Y-11319103D02*
X15587443Y-11309579D01*
X15587443Y-11309579D02*
X15549348Y-11309579D01*
X15549348Y-11309579D02*
X15530301Y-11319103D01*
X15530301Y-11319103D02*
X15520777Y-11328627D01*
X15520777Y-11328627D02*
X15511253Y-11347674D01*
X15701729Y-11233389D02*
X15701729Y-11271484D01*
X15777920Y-11233389D02*
X15777920Y-11271484D01*
X16073158Y-11509579D02*
X16063634Y-11500055D01*
X16063634Y-11500055D02*
X16044586Y-11471484D01*
X16044586Y-11471484D02*
X16035063Y-11452436D01*
X16035063Y-11452436D02*
X16025539Y-11423865D01*
X16025539Y-11423865D02*
X16016015Y-11376246D01*
X16016015Y-11376246D02*
X16016015Y-11338151D01*
X16016015Y-11338151D02*
X16025539Y-11290532D01*
X16025539Y-11290532D02*
X16035063Y-11261960D01*
X16035063Y-11261960D02*
X16044586Y-11242913D01*
X16044586Y-11242913D02*
X16063634Y-11214341D01*
X16063634Y-11214341D02*
X16073158Y-11204817D01*
X16139824Y-11252436D02*
X16149348Y-11242913D01*
X16149348Y-11242913D02*
X16168396Y-11233389D01*
X16168396Y-11233389D02*
X16216015Y-11233389D01*
X16216015Y-11233389D02*
X16235063Y-11242913D01*
X16235063Y-11242913D02*
X16244586Y-11252436D01*
X16244586Y-11252436D02*
X16254110Y-11271484D01*
X16254110Y-11271484D02*
X16254110Y-11290532D01*
X16254110Y-11290532D02*
X16244586Y-11319103D01*
X16244586Y-11319103D02*
X16130301Y-11433389D01*
X16130301Y-11433389D02*
X16254110Y-11433389D01*
X16492205Y-11433389D02*
X16492205Y-11233389D01*
X16577920Y-11433389D02*
X16577920Y-11328627D01*
X16577920Y-11328627D02*
X16568396Y-11309579D01*
X16568396Y-11309579D02*
X16549348Y-11300055D01*
X16549348Y-11300055D02*
X16520777Y-11300055D01*
X16520777Y-11300055D02*
X16501729Y-11309579D01*
X16501729Y-11309579D02*
X16492205Y-11319103D01*
X16701729Y-11433389D02*
X16682682Y-11423865D01*
X16682682Y-11423865D02*
X16673158Y-11414341D01*
X16673158Y-11414341D02*
X16663634Y-11395293D01*
X16663634Y-11395293D02*
X16663634Y-11338151D01*
X16663634Y-11338151D02*
X16673158Y-11319103D01*
X16673158Y-11319103D02*
X16682682Y-11309579D01*
X16682682Y-11309579D02*
X16701729Y-11300055D01*
X16701729Y-11300055D02*
X16730301Y-11300055D01*
X16730301Y-11300055D02*
X16749348Y-11309579D01*
X16749348Y-11309579D02*
X16758872Y-11319103D01*
X16758872Y-11319103D02*
X16768396Y-11338151D01*
X16768396Y-11338151D02*
X16768396Y-11395293D01*
X16768396Y-11395293D02*
X16758872Y-11414341D01*
X16758872Y-11414341D02*
X16749348Y-11423865D01*
X16749348Y-11423865D02*
X16730301Y-11433389D01*
X16730301Y-11433389D02*
X16701729Y-11433389D01*
X16882682Y-11433389D02*
X16863634Y-11423865D01*
X16863634Y-11423865D02*
X16854110Y-11404817D01*
X16854110Y-11404817D02*
X16854110Y-11233389D01*
X17035063Y-11423865D02*
X17016015Y-11433389D01*
X17016015Y-11433389D02*
X16977920Y-11433389D01*
X16977920Y-11433389D02*
X16958872Y-11423865D01*
X16958872Y-11423865D02*
X16949348Y-11404817D01*
X16949348Y-11404817D02*
X16949348Y-11328627D01*
X16949348Y-11328627D02*
X16958872Y-11309579D01*
X16958872Y-11309579D02*
X16977920Y-11300055D01*
X16977920Y-11300055D02*
X17016015Y-11300055D01*
X17016015Y-11300055D02*
X17035063Y-11309579D01*
X17035063Y-11309579D02*
X17044587Y-11328627D01*
X17044587Y-11328627D02*
X17044587Y-11347674D01*
X17044587Y-11347674D02*
X16949348Y-11366722D01*
X17120777Y-11423865D02*
X17139825Y-11433389D01*
X17139825Y-11433389D02*
X17177920Y-11433389D01*
X17177920Y-11433389D02*
X17196968Y-11423865D01*
X17196968Y-11423865D02*
X17206491Y-11404817D01*
X17206491Y-11404817D02*
X17206491Y-11395293D01*
X17206491Y-11395293D02*
X17196968Y-11376246D01*
X17196968Y-11376246D02*
X17177920Y-11366722D01*
X17177920Y-11366722D02*
X17149348Y-11366722D01*
X17149348Y-11366722D02*
X17130301Y-11357198D01*
X17130301Y-11357198D02*
X17120777Y-11338151D01*
X17120777Y-11338151D02*
X17120777Y-11328627D01*
X17120777Y-11328627D02*
X17130301Y-11309579D01*
X17130301Y-11309579D02*
X17149348Y-11300055D01*
X17149348Y-11300055D02*
X17177920Y-11300055D01*
X17177920Y-11300055D02*
X17196968Y-11309579D01*
X17273158Y-11509579D02*
X17282682Y-11500055D01*
X17282682Y-11500055D02*
X17301729Y-11471484D01*
X17301729Y-11471484D02*
X17311253Y-11452436D01*
X17311253Y-11452436D02*
X17320777Y-11423865D01*
X17320777Y-11423865D02*
X17330301Y-11376246D01*
X17330301Y-11376246D02*
X17330301Y-11338151D01*
X17330301Y-11338151D02*
X17320777Y-11290532D01*
X17320777Y-11290532D02*
X17311253Y-11261960D01*
X17311253Y-11261960D02*
X17301729Y-11242913D01*
X17301729Y-11242913D02*
X17282682Y-11214341D01*
X17282682Y-11214341D02*
X17273158Y-11204817D01*
X17635063Y-11509579D02*
X17625539Y-11500055D01*
X17625539Y-11500055D02*
X17606491Y-11471484D01*
X17606491Y-11471484D02*
X17596968Y-11452436D01*
X17596968Y-11452436D02*
X17587444Y-11423865D01*
X17587444Y-11423865D02*
X17577920Y-11376246D01*
X17577920Y-11376246D02*
X17577920Y-11338151D01*
X17577920Y-11338151D02*
X17587444Y-11290532D01*
X17587444Y-11290532D02*
X17596968Y-11261960D01*
X17596968Y-11261960D02*
X17606491Y-11242913D01*
X17606491Y-11242913D02*
X17625539Y-11214341D01*
X17625539Y-11214341D02*
X17635063Y-11204817D01*
X17711253Y-11300055D02*
X17711253Y-11433389D01*
X17711253Y-11319103D02*
X17720777Y-11309579D01*
X17720777Y-11309579D02*
X17739825Y-11300055D01*
X17739825Y-11300055D02*
X17768396Y-11300055D01*
X17768396Y-11300055D02*
X17787444Y-11309579D01*
X17787444Y-11309579D02*
X17796968Y-11328627D01*
X17796968Y-11328627D02*
X17796968Y-11433389D01*
X17920777Y-11433389D02*
X17901729Y-11423865D01*
X17901729Y-11423865D02*
X17892206Y-11414341D01*
X17892206Y-11414341D02*
X17882682Y-11395293D01*
X17882682Y-11395293D02*
X17882682Y-11338151D01*
X17882682Y-11338151D02*
X17892206Y-11319103D01*
X17892206Y-11319103D02*
X17901729Y-11309579D01*
X17901729Y-11309579D02*
X17920777Y-11300055D01*
X17920777Y-11300055D02*
X17949349Y-11300055D01*
X17949349Y-11300055D02*
X17968396Y-11309579D01*
X17968396Y-11309579D02*
X17977920Y-11319103D01*
X17977920Y-11319103D02*
X17987444Y-11338151D01*
X17987444Y-11338151D02*
X17987444Y-11395293D01*
X17987444Y-11395293D02*
X17977920Y-11414341D01*
X17977920Y-11414341D02*
X17968396Y-11423865D01*
X17968396Y-11423865D02*
X17949349Y-11433389D01*
X17949349Y-11433389D02*
X17920777Y-11433389D01*
X18044587Y-11300055D02*
X18120777Y-11300055D01*
X18073158Y-11233389D02*
X18073158Y-11404817D01*
X18073158Y-11404817D02*
X18082682Y-11423865D01*
X18082682Y-11423865D02*
X18101729Y-11433389D01*
X18101729Y-11433389D02*
X18120777Y-11433389D01*
X18339825Y-11300055D02*
X18339825Y-11500055D01*
X18339825Y-11309579D02*
X18358872Y-11300055D01*
X18358872Y-11300055D02*
X18396968Y-11300055D01*
X18396968Y-11300055D02*
X18416015Y-11309579D01*
X18416015Y-11309579D02*
X18425539Y-11319103D01*
X18425539Y-11319103D02*
X18435063Y-11338151D01*
X18435063Y-11338151D02*
X18435063Y-11395293D01*
X18435063Y-11395293D02*
X18425539Y-11414341D01*
X18425539Y-11414341D02*
X18416015Y-11423865D01*
X18416015Y-11423865D02*
X18396968Y-11433389D01*
X18396968Y-11433389D02*
X18358872Y-11433389D01*
X18358872Y-11433389D02*
X18339825Y-11423865D01*
X18549349Y-11433389D02*
X18530301Y-11423865D01*
X18530301Y-11423865D02*
X18520777Y-11404817D01*
X18520777Y-11404817D02*
X18520777Y-11233389D01*
X18711253Y-11433389D02*
X18711253Y-11328627D01*
X18711253Y-11328627D02*
X18701730Y-11309579D01*
X18701730Y-11309579D02*
X18682682Y-11300055D01*
X18682682Y-11300055D02*
X18644587Y-11300055D01*
X18644587Y-11300055D02*
X18625539Y-11309579D01*
X18711253Y-11423865D02*
X18692206Y-11433389D01*
X18692206Y-11433389D02*
X18644587Y-11433389D01*
X18644587Y-11433389D02*
X18625539Y-11423865D01*
X18625539Y-11423865D02*
X18616015Y-11404817D01*
X18616015Y-11404817D02*
X18616015Y-11385770D01*
X18616015Y-11385770D02*
X18625539Y-11366722D01*
X18625539Y-11366722D02*
X18644587Y-11357198D01*
X18644587Y-11357198D02*
X18692206Y-11357198D01*
X18692206Y-11357198D02*
X18711253Y-11347674D01*
X18777920Y-11300055D02*
X18854110Y-11300055D01*
X18806491Y-11233389D02*
X18806491Y-11404817D01*
X18806491Y-11404817D02*
X18816015Y-11423865D01*
X18816015Y-11423865D02*
X18835063Y-11433389D01*
X18835063Y-11433389D02*
X18854110Y-11433389D01*
X18996968Y-11423865D02*
X18977920Y-11433389D01*
X18977920Y-11433389D02*
X18939825Y-11433389D01*
X18939825Y-11433389D02*
X18920777Y-11423865D01*
X18920777Y-11423865D02*
X18911253Y-11404817D01*
X18911253Y-11404817D02*
X18911253Y-11328627D01*
X18911253Y-11328627D02*
X18920777Y-11309579D01*
X18920777Y-11309579D02*
X18939825Y-11300055D01*
X18939825Y-11300055D02*
X18977920Y-11300055D01*
X18977920Y-11300055D02*
X18996968Y-11309579D01*
X18996968Y-11309579D02*
X19006491Y-11328627D01*
X19006491Y-11328627D02*
X19006491Y-11347674D01*
X19006491Y-11347674D02*
X18911253Y-11366722D01*
X19177920Y-11433389D02*
X19177920Y-11233389D01*
X19177920Y-11423865D02*
X19158872Y-11433389D01*
X19158872Y-11433389D02*
X19120777Y-11433389D01*
X19120777Y-11433389D02*
X19101730Y-11423865D01*
X19101730Y-11423865D02*
X19092206Y-11414341D01*
X19092206Y-11414341D02*
X19082682Y-11395293D01*
X19082682Y-11395293D02*
X19082682Y-11338151D01*
X19082682Y-11338151D02*
X19092206Y-11319103D01*
X19092206Y-11319103D02*
X19101730Y-11309579D01*
X19101730Y-11309579D02*
X19120777Y-11300055D01*
X19120777Y-11300055D02*
X19158872Y-11300055D01*
X19158872Y-11300055D02*
X19177920Y-11309579D01*
X19254111Y-11509579D02*
X19263634Y-11500055D01*
X19263634Y-11500055D02*
X19282682Y-11471484D01*
X19282682Y-11471484D02*
X19292206Y-11452436D01*
X19292206Y-11452436D02*
X19301730Y-11423865D01*
X19301730Y-11423865D02*
X19311253Y-11376246D01*
X19311253Y-11376246D02*
X19311253Y-11338151D01*
X19311253Y-11338151D02*
X19301730Y-11290532D01*
X19301730Y-11290532D02*
X19292206Y-11261960D01*
X19292206Y-11261960D02*
X19282682Y-11242913D01*
X19282682Y-11242913D02*
X19263634Y-11214341D01*
X19263634Y-11214341D02*
X19254111Y-11204817D01*
M02*
