%TF.GenerationSoftware,KiCad,Pcbnew,9.0.6-9.0.6~ubuntu24.04.1*%
%TF.CreationDate,2026-01-01T19:23:54+01:00*%
%TF.ProjectId,security-system,73656375-7269-4747-992d-73797374656d,0*%
%TF.SameCoordinates,Original*%
%TF.FileFunction,Legend,Bot*%
%TF.FilePolarity,Positive*%
%FSLAX46Y46*%
G04 Gerber Fmt 4.6, Leading zero omitted, Abs format (unit mm)*
G04 Created by KiCad (PCBNEW 9.0.6-9.0.6~ubuntu24.04.1) date 2026-01-01 19:23:54*
%MOMM*%
%LPD*%
G01*
G04 APERTURE LIST*
%ADD10C,0.000000*%
G04 APERTURE END LIST*
D10*
%TO.C,G\u002A\u002A\u002A*%
G36*
X132599869Y-103789241D02*
G01*
X132641425Y-103799498D01*
X132681754Y-103813985D01*
X132714383Y-103830358D01*
X132732838Y-103846272D01*
X132733535Y-103855718D01*
X132730199Y-103882199D01*
X132722849Y-103920508D01*
X132712283Y-103965990D01*
X132685009Y-104074835D01*
X132623159Y-104050596D01*
X132556817Y-104021268D01*
X132504001Y-103988994D01*
X132469555Y-103954860D01*
X132452204Y-103917574D01*
X132450673Y-103875843D01*
X132456951Y-103848221D01*
X132478444Y-103812872D01*
X132514224Y-103792211D01*
X132565163Y-103785550D01*
X132599869Y-103789241D01*
G37*
G36*
X132713467Y-103466356D02*
G01*
X132778158Y-103484364D01*
X132810204Y-103496696D01*
X132834129Y-103509447D01*
X132843273Y-103519333D01*
X132840094Y-103532799D01*
X132830260Y-103560124D01*
X132816091Y-103594017D01*
X132803014Y-103623788D01*
X132788871Y-103656765D01*
X132779884Y-103678660D01*
X132773826Y-103691173D01*
X132761181Y-103700456D01*
X132741057Y-103696588D01*
X132709064Y-103679629D01*
X132685894Y-103664956D01*
X132635424Y-103624413D01*
X132602472Y-103583158D01*
X132588030Y-103542688D01*
X132593089Y-103504499D01*
X132603213Y-103486476D01*
X132627822Y-103467213D01*
X132663964Y-103460573D01*
X132713467Y-103466356D01*
G37*
G36*
X137498320Y-103310242D02*
G01*
X137517403Y-103333627D01*
X137535272Y-103357290D01*
X137564429Y-103397612D01*
X137596240Y-103443107D01*
X137628607Y-103490606D01*
X137659428Y-103536940D01*
X137686606Y-103578943D01*
X137708040Y-103613446D01*
X137721630Y-103637280D01*
X137725277Y-103647279D01*
X137719646Y-103649684D01*
X137696849Y-103655647D01*
X137661216Y-103663293D01*
X137617486Y-103671553D01*
X137590141Y-103676257D01*
X137548529Y-103682766D01*
X137516815Y-103686909D01*
X137500287Y-103687947D01*
X137493125Y-103681627D01*
X137484152Y-103657909D01*
X137476146Y-103620425D01*
X137469408Y-103573218D01*
X137464236Y-103520330D01*
X137460933Y-103465804D01*
X137459797Y-103413683D01*
X137461128Y-103368010D01*
X137465227Y-103332827D01*
X137472394Y-103312177D01*
X137477950Y-103305295D01*
X137486728Y-103301542D01*
X137498320Y-103310242D01*
G37*
G36*
X140213341Y-103815566D02*
G01*
X140284477Y-104027881D01*
X140302468Y-104088616D01*
X140343584Y-104227423D01*
X140363060Y-104300534D01*
X140404038Y-104468557D01*
X140441989Y-104643474D01*
X140476150Y-104820902D01*
X140505757Y-104996460D01*
X140530048Y-105165765D01*
X140548258Y-105324436D01*
X140559627Y-105468090D01*
X140566465Y-105587827D01*
X140430920Y-105587827D01*
X140295374Y-105587827D01*
X140288174Y-105392483D01*
X140285697Y-105333284D01*
X140278643Y-105206416D01*
X140269268Y-105075830D01*
X140257941Y-104945032D01*
X140245029Y-104817532D01*
X140230903Y-104696835D01*
X140215930Y-104586450D01*
X140200481Y-104489885D01*
X140184923Y-104410648D01*
X140172156Y-104353444D01*
X140120287Y-104345937D01*
X140111792Y-104344821D01*
X140076404Y-104341077D01*
X140027460Y-104336688D01*
X139970269Y-104332113D01*
X139910136Y-104327810D01*
X139884410Y-104326218D01*
X139785285Y-104322614D01*
X139682967Y-104323043D01*
X139576289Y-104327739D01*
X139464084Y-104336934D01*
X139345187Y-104350859D01*
X139218431Y-104369747D01*
X139082650Y-104393830D01*
X138936678Y-104423340D01*
X138779348Y-104458510D01*
X138609494Y-104499571D01*
X138425949Y-104546757D01*
X138234370Y-104598457D01*
X138227548Y-104600298D01*
X138013124Y-104660428D01*
X137781511Y-104727378D01*
X137531542Y-104801381D01*
X137514951Y-104806339D01*
X137296095Y-104870973D01*
X137094416Y-104928923D01*
X136907695Y-104980659D01*
X136733711Y-105026655D01*
X136570248Y-105067382D01*
X136415084Y-105103312D01*
X136266001Y-105134918D01*
X136120780Y-105162671D01*
X135977203Y-105187044D01*
X135833049Y-105208509D01*
X135686099Y-105227538D01*
X135534136Y-105244602D01*
X135374939Y-105260175D01*
X135305996Y-105265533D01*
X135223593Y-105270342D01*
X135131182Y-105274518D01*
X135031845Y-105278016D01*
X134928663Y-105280788D01*
X134824717Y-105282785D01*
X134723089Y-105283961D01*
X134626861Y-105284268D01*
X134539114Y-105283658D01*
X134462929Y-105282085D01*
X134401389Y-105279500D01*
X134357575Y-105275856D01*
X134348583Y-105274729D01*
X134136629Y-105238834D01*
X133916388Y-105184094D01*
X133688142Y-105110646D01*
X133452173Y-105018625D01*
X133208763Y-104908169D01*
X132958196Y-104779413D01*
X132700752Y-104632493D01*
X132578241Y-104555959D01*
X133624699Y-104555959D01*
X133641085Y-104583264D01*
X133675424Y-104607535D01*
X133678542Y-104609045D01*
X133712594Y-104622291D01*
X133761714Y-104637845D01*
X133821108Y-104654430D01*
X133885983Y-104670765D01*
X133951544Y-104685573D01*
X134012998Y-104697575D01*
X134039239Y-104701938D01*
X134113300Y-104710549D01*
X134168732Y-104710405D01*
X134205440Y-104701512D01*
X134208302Y-104698690D01*
X134427511Y-104698690D01*
X134443654Y-104746442D01*
X134478127Y-104787342D01*
X134529777Y-104819359D01*
X134554081Y-104828290D01*
X134610141Y-104840036D01*
X134672136Y-104844625D01*
X134731716Y-104841676D01*
X134780533Y-104830808D01*
X134791498Y-104826230D01*
X134837138Y-104797722D01*
X134882945Y-104756494D01*
X134923441Y-104708037D01*
X134953148Y-104657839D01*
X134971433Y-104614529D01*
X134990718Y-104555556D01*
X135004162Y-104492367D01*
X135012854Y-104419475D01*
X135017882Y-104331393D01*
X135018700Y-104301780D01*
X135015313Y-104176743D01*
X135000167Y-104068697D01*
X134973175Y-103977409D01*
X134934250Y-103902648D01*
X134883305Y-103844181D01*
X134820255Y-103801777D01*
X134796524Y-103791092D01*
X134736278Y-103775823D01*
X134680340Y-103780529D01*
X134627284Y-103805497D01*
X134579143Y-103847960D01*
X134575681Y-103851014D01*
X134561171Y-103867464D01*
X134534699Y-103905190D01*
X134522604Y-103940230D01*
X134522423Y-103978483D01*
X134522522Y-103979301D01*
X134531203Y-104008168D01*
X134549224Y-104020993D01*
X134578332Y-104018162D01*
X134620273Y-104000060D01*
X134648025Y-103987186D01*
X134682968Y-103975054D01*
X134708739Y-103970713D01*
X134716205Y-103971290D01*
X134756212Y-103985370D01*
X134793522Y-104014996D01*
X134822613Y-104056029D01*
X134829141Y-104069787D01*
X134849838Y-104135013D01*
X134859336Y-104207755D01*
X134858475Y-104284531D01*
X134848097Y-104361856D01*
X134829043Y-104436248D01*
X134802153Y-104504223D01*
X134768268Y-104562297D01*
X134728230Y-104606986D01*
X134682880Y-104634808D01*
X134668345Y-104640205D01*
X134646968Y-104646105D01*
X134626667Y-104646526D01*
X134600467Y-104641179D01*
X134561394Y-104629775D01*
X134551044Y-104626705D01*
X134500265Y-104614923D01*
X134464831Y-104613975D01*
X134442484Y-104624139D01*
X134430963Y-104645689D01*
X134430856Y-104646117D01*
X134427511Y-104698690D01*
X134208302Y-104698690D01*
X134223326Y-104683876D01*
X134225666Y-104673672D01*
X134230330Y-104644802D01*
X134236308Y-104601890D01*
X134243079Y-104548732D01*
X134250119Y-104489124D01*
X134252795Y-104465945D01*
X134262606Y-104384781D01*
X134273936Y-104295392D01*
X134285586Y-104207107D01*
X134296357Y-104129255D01*
X134300902Y-104096689D01*
X134313171Y-103995920D01*
X134319868Y-103913474D01*
X134320887Y-103847960D01*
X134316124Y-103797986D01*
X134308226Y-103771421D01*
X135544531Y-103771421D01*
X135545759Y-103809385D01*
X135547141Y-103815310D01*
X135562672Y-103851750D01*
X135591444Y-103898958D01*
X135631585Y-103954314D01*
X135681222Y-104015198D01*
X135738482Y-104078991D01*
X135823355Y-104169375D01*
X135798080Y-104206620D01*
X135793364Y-104214052D01*
X135773501Y-104252931D01*
X135753002Y-104301780D01*
X135751093Y-104306328D01*
X135727838Y-104369696D01*
X135705432Y-104438484D01*
X135685573Y-104508144D01*
X135681616Y-104523851D01*
X135667488Y-104601605D01*
X135664328Y-104669871D01*
X135671888Y-104726447D01*
X135689918Y-104769132D01*
X135718168Y-104795722D01*
X135720411Y-104796857D01*
X135755749Y-104805195D01*
X135797311Y-104803045D01*
X135834459Y-104790854D01*
X135848367Y-104782177D01*
X135869611Y-104761329D01*
X135885946Y-104731312D01*
X135899207Y-104688240D01*
X135911226Y-104628225D01*
X135919087Y-104584533D01*
X135930750Y-104523143D01*
X135943783Y-104457150D01*
X135956560Y-104394923D01*
X135957625Y-104389864D01*
X135969071Y-104336520D01*
X135977828Y-104300022D01*
X135985242Y-104277057D01*
X135992656Y-104264313D01*
X136001416Y-104258477D01*
X136012866Y-104256238D01*
X136015258Y-104255981D01*
X136050385Y-104259718D01*
X136075538Y-104280070D01*
X136092943Y-104318776D01*
X136099004Y-104337997D01*
X136126737Y-104406039D01*
X136162026Y-104470334D01*
X136202721Y-104528639D01*
X136246674Y-104578713D01*
X136291736Y-104618312D01*
X136335757Y-104645193D01*
X136376589Y-104657115D01*
X136412083Y-104651834D01*
X136437387Y-104631546D01*
X136451348Y-104598457D01*
X136448673Y-104559717D01*
X136445157Y-104550285D01*
X136432651Y-104522001D01*
X136413478Y-104481475D01*
X136389498Y-104432605D01*
X136362574Y-104379296D01*
X136329417Y-104312714D01*
X136293553Y-104233713D01*
X136264766Y-104159154D01*
X136241969Y-104084824D01*
X136224078Y-104006511D01*
X136210008Y-103920005D01*
X136198673Y-103821093D01*
X136188988Y-103705563D01*
X136188567Y-103699947D01*
X136180121Y-103617680D01*
X136168584Y-103554634D01*
X136153507Y-103509440D01*
X136152330Y-103507668D01*
X136387050Y-103507668D01*
X136400763Y-103555499D01*
X136404126Y-103561647D01*
X136428330Y-103589417D01*
X136458003Y-103597770D01*
X136493853Y-103586711D01*
X136536588Y-103556244D01*
X136542643Y-103551062D01*
X136572894Y-103528422D01*
X136598616Y-103517442D01*
X136627563Y-103514571D01*
X136642364Y-103515056D01*
X136665503Y-103520233D01*
X136687192Y-103534185D01*
X136714599Y-103560711D01*
X136716526Y-103562741D01*
X136752582Y-103608534D01*
X136787109Y-103668272D01*
X136821262Y-103744220D01*
X136856197Y-103838648D01*
X136866649Y-103869921D01*
X136877190Y-103905781D01*
X136883968Y-103938521D01*
X136887833Y-103974129D01*
X136889640Y-104018593D01*
X136890238Y-104077902D01*
X136890264Y-104084577D01*
X136890243Y-104139930D01*
X136889267Y-104179184D01*
X136886701Y-104206637D01*
X136881908Y-104226591D01*
X136874250Y-104243346D01*
X136863091Y-104261200D01*
X136824160Y-104303492D01*
X136773504Y-104329129D01*
X136711136Y-104337622D01*
X136708648Y-104337633D01*
X136666211Y-104343038D01*
X136639322Y-104359952D01*
X136625921Y-104390743D01*
X136623944Y-104437781D01*
X136629741Y-104456480D01*
X136651260Y-104485305D01*
X136684262Y-104513615D01*
X136724118Y-104536834D01*
X136728849Y-104538992D01*
X136755059Y-104549650D01*
X136777057Y-104553875D01*
X136803018Y-104552267D01*
X136841120Y-104545427D01*
X136912180Y-104525014D01*
X136979827Y-104488758D01*
X137034385Y-104437938D01*
X137076221Y-104371962D01*
X137105697Y-104290237D01*
X137123180Y-104192168D01*
X137129034Y-104077163D01*
X137121353Y-103942044D01*
X137096645Y-103808619D01*
X137053960Y-103676257D01*
X136992359Y-103541269D01*
X136983324Y-103524747D01*
X136944526Y-103466275D01*
X136915568Y-103431644D01*
X137285977Y-103431644D01*
X137294475Y-103574938D01*
X137312479Y-103728719D01*
X137339800Y-103890644D01*
X137376250Y-104058368D01*
X137381220Y-104077163D01*
X137393286Y-104122799D01*
X137416225Y-104189753D01*
X137441503Y-104240757D01*
X137470550Y-104278566D01*
X137504796Y-104305934D01*
X137519420Y-104314292D01*
X137565590Y-104331100D01*
X137605398Y-104330859D01*
X137636463Y-104313963D01*
X137656403Y-104280807D01*
X137658383Y-104274059D01*
X137660931Y-104254298D01*
X137658593Y-104229259D01*
X137650670Y-104194157D01*
X137636465Y-104144208D01*
X137628274Y-104117001D01*
X137613258Y-104068310D01*
X137599733Y-104025816D01*
X137589874Y-103996421D01*
X137585468Y-103982751D01*
X137580969Y-103960803D01*
X137583343Y-103952142D01*
X137587240Y-103951889D01*
X137608932Y-103949586D01*
X137644631Y-103945350D01*
X137689708Y-103939751D01*
X137739536Y-103933360D01*
X137789487Y-103926746D01*
X137792718Y-103926328D01*
X137810779Y-103925953D01*
X137824961Y-103932564D01*
X137840056Y-103949834D01*
X137860854Y-103981433D01*
X137863143Y-103985039D01*
X137907522Y-104047295D01*
X137951875Y-104096196D01*
X137994564Y-104130907D01*
X138033949Y-104150595D01*
X138068393Y-104154426D01*
X138096256Y-104141567D01*
X138115900Y-104111184D01*
X138117423Y-104106931D01*
X138121390Y-104088616D01*
X138120612Y-104067873D01*
X138114101Y-104042127D01*
X138100867Y-104008798D01*
X138079922Y-103965309D01*
X138050278Y-103909082D01*
X138010944Y-103837540D01*
X138000707Y-103819098D01*
X137957748Y-103741232D01*
X137910415Y-103654807D01*
X137860776Y-103563649D01*
X137810901Y-103471583D01*
X137762857Y-103382437D01*
X137718714Y-103300034D01*
X137680541Y-103228201D01*
X137650405Y-103170764D01*
X137629364Y-103133057D01*
X137581678Y-103066447D01*
X137531048Y-103020250D01*
X137477594Y-102994591D01*
X137463164Y-102991093D01*
X137438570Y-102987787D01*
X138056870Y-102987787D01*
X138062505Y-103033000D01*
X138074342Y-103091929D01*
X138092408Y-103167653D01*
X138101637Y-103203613D01*
X138121234Y-103275995D01*
X138145128Y-103360806D01*
X138171956Y-103453459D01*
X138200353Y-103549368D01*
X138228957Y-103643948D01*
X138256404Y-103732613D01*
X138281331Y-103810776D01*
X138302373Y-103873852D01*
X138333284Y-103945006D01*
X138373469Y-104001731D01*
X138422498Y-104041357D01*
X138430043Y-104045535D01*
X138475217Y-104062068D01*
X138519113Y-104065693D01*
X138554839Y-104055664D01*
X138570759Y-104038314D01*
X138583367Y-104004883D01*
X138588459Y-103963244D01*
X138584622Y-103919853D01*
X138566006Y-103829855D01*
X138551099Y-103756002D01*
X138540051Y-103698554D01*
X138532544Y-103655516D01*
X138528260Y-103624894D01*
X138526879Y-103604695D01*
X138528085Y-103592926D01*
X138531558Y-103587591D01*
X138533974Y-103586253D01*
X138553514Y-103577514D01*
X138586057Y-103564334D01*
X138627551Y-103548217D01*
X138673945Y-103530667D01*
X138721187Y-103513186D01*
X138765228Y-103497278D01*
X138802015Y-103484446D01*
X138827498Y-103476194D01*
X138837625Y-103474023D01*
X138839000Y-103476331D01*
X138848243Y-103493454D01*
X138864498Y-103524280D01*
X138885993Y-103565435D01*
X138910955Y-103613545D01*
X138933669Y-103656585D01*
X138967587Y-103716001D01*
X138997713Y-103760803D01*
X139026446Y-103794004D01*
X139056184Y-103818617D01*
X139089323Y-103837653D01*
X139101664Y-103843259D01*
X139153019Y-103857445D01*
X139196379Y-103853486D01*
X139230526Y-103831434D01*
X139245162Y-103810119D01*
X139255135Y-103775429D01*
X139255874Y-103729873D01*
X139247209Y-103671587D01*
X139228970Y-103598704D01*
X139200984Y-103509362D01*
X139169455Y-103410185D01*
X139133193Y-103284764D01*
X139098425Y-103153249D01*
X139067194Y-103023410D01*
X139041543Y-102903018D01*
X139032917Y-102862739D01*
X139021009Y-102815759D01*
X139009380Y-102777975D01*
X138999638Y-102755061D01*
X138996828Y-102750654D01*
X138964191Y-102717149D01*
X138923319Y-102697945D01*
X138880403Y-102696101D01*
X138853344Y-102705842D01*
X138816321Y-102735391D01*
X138783990Y-102780026D01*
X138757521Y-102836424D01*
X138738085Y-102901259D01*
X138726850Y-102971207D01*
X138724987Y-103042941D01*
X138733665Y-103113139D01*
X138734255Y-103115971D01*
X138741011Y-103152277D01*
X138744712Y-103179793D01*
X138744570Y-103192755D01*
X138740726Y-103195593D01*
X138721095Y-103205549D01*
X138689014Y-103219888D01*
X138648994Y-103236542D01*
X138631279Y-103243697D01*
X138585983Y-103262110D01*
X138545975Y-103278526D01*
X138518281Y-103290068D01*
X138478809Y-103306819D01*
X138462384Y-103267442D01*
X138443887Y-103225014D01*
X138419393Y-103172083D01*
X138391941Y-103115121D01*
X138363469Y-103057955D01*
X138335918Y-103004415D01*
X138311227Y-102958330D01*
X138291337Y-102923529D01*
X138278187Y-102903842D01*
X138261975Y-102886903D01*
X138219399Y-102859370D01*
X138174189Y-102850257D01*
X138129857Y-102859849D01*
X138089915Y-102888435D01*
X138076903Y-102903643D01*
X138064097Y-102926189D01*
X138057410Y-102953210D01*
X138056870Y-102987787D01*
X137438570Y-102987787D01*
X137430469Y-102986698D01*
X137407157Y-102988241D01*
X137405293Y-102988914D01*
X137383109Y-103005624D01*
X137358394Y-103036138D01*
X137334585Y-103074926D01*
X137315117Y-103116456D01*
X137303427Y-103155200D01*
X137298256Y-103185893D01*
X137287174Y-103301181D01*
X137285977Y-103431644D01*
X136915568Y-103431644D01*
X136898070Y-103410719D01*
X136847985Y-103362108D01*
X136798302Y-103324477D01*
X136753050Y-103301855D01*
X136732288Y-103295804D01*
X136670634Y-103285169D01*
X136607309Y-103283136D01*
X136549228Y-103289631D01*
X136503310Y-103304577D01*
X136482584Y-103316853D01*
X136439867Y-103355367D01*
X136408464Y-103403045D01*
X136390238Y-103455331D01*
X136387050Y-103507668D01*
X136152330Y-103507668D01*
X136134443Y-103480730D01*
X136110944Y-103467136D01*
X136078552Y-103465416D01*
X136044664Y-103477428D01*
X136037478Y-103479975D01*
X135999620Y-103511179D01*
X135968495Y-103556814D01*
X135960908Y-103573910D01*
X135953128Y-103603005D01*
X135949123Y-103641023D01*
X135948011Y-103693873D01*
X135948065Y-103701397D01*
X135948814Y-103719550D01*
X135950180Y-103752635D01*
X135954876Y-103812448D01*
X135961470Y-103874955D01*
X135969279Y-103934280D01*
X135977624Y-103984541D01*
X135985820Y-104019862D01*
X135985155Y-104022928D01*
X135974314Y-104017202D01*
X135953617Y-103999638D01*
X135925784Y-103972388D01*
X135919068Y-103965507D01*
X135849154Y-103897390D01*
X135782311Y-103838428D01*
X135720507Y-103790061D01*
X135665709Y-103753731D01*
X135619885Y-103730876D01*
X135585003Y-103722938D01*
X135573774Y-103724953D01*
X135554592Y-103741685D01*
X135544531Y-103771421D01*
X134308226Y-103771421D01*
X134305473Y-103762162D01*
X134288831Y-103739095D01*
X134266091Y-103727395D01*
X134254266Y-103724932D01*
X134228220Y-103726300D01*
X134207573Y-103741946D01*
X134187316Y-103774889D01*
X134176194Y-103799317D01*
X134157005Y-103856289D01*
X134139821Y-103928766D01*
X134124472Y-104017808D01*
X134110787Y-104124475D01*
X134098597Y-104249827D01*
X134087730Y-104394923D01*
X134085545Y-104423348D01*
X134081008Y-104466340D01*
X134075968Y-104499501D01*
X134071169Y-104517339D01*
X134065729Y-104523501D01*
X134040456Y-104532839D01*
X133999869Y-104535452D01*
X133947059Y-104531290D01*
X133885111Y-104520306D01*
X133822809Y-104506573D01*
X133773459Y-104495875D01*
X133738241Y-104488843D01*
X133713934Y-104485139D01*
X133697320Y-104484426D01*
X133685179Y-104486366D01*
X133674292Y-104490622D01*
X133661438Y-104496855D01*
X133647390Y-104504952D01*
X133626667Y-104528796D01*
X133624699Y-104555959D01*
X132578241Y-104555959D01*
X132436716Y-104467547D01*
X132166368Y-104284711D01*
X131889992Y-104084121D01*
X131882523Y-104078514D01*
X131795370Y-104012216D01*
X131705423Y-103942319D01*
X131667970Y-103912673D01*
X132323332Y-103912673D01*
X132331833Y-103964922D01*
X132347038Y-103997335D01*
X132385735Y-104045662D01*
X132441789Y-104092547D01*
X132513140Y-104136359D01*
X132597730Y-104175469D01*
X132654486Y-104193690D01*
X132726577Y-104202183D01*
X132788648Y-104202183D01*
X132806146Y-104131859D01*
X132811196Y-104112913D01*
X133054208Y-104112913D01*
X133054744Y-104165719D01*
X133055889Y-104179699D01*
X133070600Y-104269581D01*
X133096705Y-104343066D01*
X133133975Y-104399660D01*
X133182179Y-104438872D01*
X133186009Y-104440970D01*
X133241527Y-104459563D01*
X133304783Y-104463069D01*
X133370993Y-104452681D01*
X133435370Y-104429586D01*
X133493128Y-104394976D01*
X133539480Y-104350041D01*
X133547208Y-104340049D01*
X133563475Y-104317180D01*
X133577617Y-104293227D01*
X133590899Y-104265021D01*
X133604588Y-104229391D01*
X133619949Y-104183166D01*
X133638247Y-104123176D01*
X133660748Y-104046250D01*
X133669003Y-104017602D01*
X133693984Y-103928532D01*
X133712848Y-103856390D01*
X133726000Y-103798979D01*
X133733844Y-103754098D01*
X133736786Y-103719550D01*
X133735231Y-103693135D01*
X133729585Y-103672655D01*
X133725889Y-103664751D01*
X133702835Y-103638132D01*
X133673474Y-103628111D01*
X133642147Y-103634094D01*
X133613199Y-103655483D01*
X133590971Y-103691683D01*
X133588584Y-103698694D01*
X133580703Y-103725551D01*
X133569080Y-103767645D01*
X133554588Y-103821745D01*
X133538098Y-103884620D01*
X133520482Y-103953037D01*
X133515731Y-103971618D01*
X133492883Y-104059263D01*
X133473609Y-104129215D01*
X133457046Y-104183687D01*
X133442330Y-104224893D01*
X133428599Y-104255047D01*
X133414988Y-104276364D01*
X133400635Y-104291057D01*
X133384676Y-104301340D01*
X133369283Y-104307886D01*
X133328242Y-104313478D01*
X133290831Y-104303375D01*
X133263213Y-104278724D01*
X133252787Y-104254005D01*
X133244568Y-104207410D01*
X133241549Y-104146348D01*
X133243535Y-104073943D01*
X133250329Y-103993319D01*
X133261734Y-103907597D01*
X133277553Y-103819902D01*
X133297588Y-103733357D01*
X133299631Y-103725486D01*
X133310527Y-103681843D01*
X133316315Y-103651987D01*
X133317333Y-103630412D01*
X133313922Y-103611613D01*
X133306422Y-103590084D01*
X133305841Y-103588583D01*
X133284998Y-103553815D01*
X133258490Y-103538352D01*
X133227961Y-103542013D01*
X133195059Y-103564617D01*
X133161429Y-103605985D01*
X133145958Y-103636649D01*
X133128186Y-103686899D01*
X133110644Y-103750033D01*
X133094126Y-103821878D01*
X133079428Y-103898262D01*
X133067346Y-103975011D01*
X133058674Y-104047952D01*
X133054208Y-104112913D01*
X132811196Y-104112913D01*
X132813554Y-104104064D01*
X132826169Y-104059151D01*
X132842861Y-104001091D01*
X132862633Y-103933329D01*
X132884487Y-103859307D01*
X132907423Y-103782471D01*
X132911179Y-103769935D01*
X132939747Y-103672546D01*
X132961358Y-103594690D01*
X132976036Y-103536278D01*
X132983803Y-103497220D01*
X132984682Y-103477428D01*
X132984498Y-103476740D01*
X132969749Y-103454486D01*
X132939072Y-103428027D01*
X132896242Y-103399473D01*
X132845028Y-103370931D01*
X132789204Y-103344510D01*
X132732543Y-103322319D01*
X132678815Y-103306465D01*
X132635197Y-103299070D01*
X132575403Y-103301174D01*
X132527513Y-103320147D01*
X132491834Y-103355840D01*
X132468670Y-103408106D01*
X132463394Y-103429727D01*
X132458675Y-103475952D01*
X132464740Y-103523746D01*
X132482193Y-103580843D01*
X132506593Y-103648063D01*
X132478439Y-103653694D01*
X132443364Y-103667702D01*
X132404552Y-103699949D01*
X132371083Y-103744943D01*
X132345017Y-103798310D01*
X132328413Y-103855678D01*
X132323332Y-103912673D01*
X131667970Y-103912673D01*
X131614165Y-103870083D01*
X131523074Y-103796768D01*
X131433632Y-103723634D01*
X131347319Y-103651942D01*
X131265616Y-103582952D01*
X131190002Y-103517924D01*
X131121960Y-103458119D01*
X131062969Y-103404796D01*
X131014510Y-103359216D01*
X130978063Y-103322640D01*
X130955109Y-103296327D01*
X130947129Y-103281538D01*
X130947159Y-103280829D01*
X130949150Y-103276776D01*
X130955567Y-103273450D01*
X130968233Y-103270781D01*
X130988971Y-103268698D01*
X131019604Y-103267129D01*
X131061957Y-103266004D01*
X131117852Y-103265253D01*
X131189113Y-103264804D01*
X131277564Y-103264586D01*
X131385028Y-103264530D01*
X131436929Y-103264513D01*
X131536785Y-103264342D01*
X131618399Y-103263933D01*
X131683555Y-103263227D01*
X131734037Y-103262161D01*
X131771629Y-103260674D01*
X131798115Y-103258706D01*
X131815278Y-103256194D01*
X131824902Y-103253079D01*
X131828772Y-103249297D01*
X131828619Y-103246852D01*
X131821990Y-103228329D01*
X131807015Y-103194103D01*
X131784665Y-103146194D01*
X131755909Y-103086622D01*
X131721719Y-103017407D01*
X131683063Y-102940571D01*
X131640914Y-102858132D01*
X131624721Y-102826655D01*
X131583705Y-102746452D01*
X131546220Y-102672484D01*
X131513278Y-102606795D01*
X131485893Y-102551426D01*
X131465078Y-102508420D01*
X131451847Y-102479818D01*
X131447211Y-102467663D01*
X131447344Y-102463907D01*
X131451899Y-102452076D01*
X131464615Y-102449374D01*
X131487778Y-102456422D01*
X131523674Y-102473840D01*
X131574587Y-102502249D01*
X131581638Y-102506297D01*
X131665219Y-102552490D01*
X131761992Y-102603289D01*
X131866315Y-102655897D01*
X131972543Y-102707515D01*
X132075033Y-102755344D01*
X132168141Y-102796585D01*
X132395884Y-102889355D01*
X132709370Y-103001389D01*
X133019760Y-103093729D01*
X133328284Y-103166655D01*
X133636173Y-103220447D01*
X133944656Y-103255386D01*
X134254963Y-103271752D01*
X134339769Y-103273030D01*
X134624792Y-103266787D01*
X134900370Y-103243628D01*
X135169000Y-103203025D01*
X135433183Y-103144451D01*
X135695418Y-103067376D01*
X135958202Y-102971274D01*
X136224036Y-102855614D01*
X136425078Y-102763767D01*
X136697784Y-102647290D01*
X136959647Y-102545472D01*
X137212403Y-102457758D01*
X137457786Y-102383597D01*
X137697534Y-102322436D01*
X137933381Y-102273722D01*
X138167063Y-102236903D01*
X138188528Y-102234289D01*
X138259961Y-102227919D01*
X138344535Y-102223000D01*
X138438011Y-102219561D01*
X138536151Y-102217630D01*
X138634715Y-102217236D01*
X138729464Y-102218408D01*
X138816161Y-102221174D01*
X138890566Y-102225564D01*
X138948442Y-102231606D01*
X138982070Y-102236838D01*
X139063383Y-102252260D01*
X139148892Y-102271656D01*
X139232370Y-102293449D01*
X139307593Y-102316064D01*
X139368335Y-102337923D01*
X139387573Y-102345782D01*
X139419802Y-102358836D01*
X139438154Y-102365421D01*
X139446486Y-102366321D01*
X139448657Y-102362319D01*
X139448524Y-102354197D01*
X139448547Y-102352812D01*
X139457685Y-102330895D01*
X139479720Y-102321206D01*
X139509361Y-102326183D01*
X139519674Y-102332458D01*
X139537801Y-102350638D01*
X139560076Y-102380556D01*
X139587216Y-102423429D01*
X139619941Y-102480474D01*
X139658970Y-102552909D01*
X139705020Y-102641952D01*
X139758811Y-102748820D01*
X139834260Y-102903679D01*
X139940637Y-103134536D01*
X140040134Y-103365639D01*
X140131465Y-103593734D01*
X140181713Y-103729873D01*
X140213341Y-103815566D01*
G37*
%TD*%
M02*
