M48
; DRILL file {KiCad 9.0.6-9.0.6~ubuntu24.04.1} date 2026-01-01T19:23:50+0100
; FORMAT={-:-/ absolute / metric / decimal}
; #@! TF.CreationDate,2026-01-01T19:23:50+01:00
; #@! TF.GenerationSoftware,Kicad,Pcbnew,9.0.6-9.0.6~ubuntu24.04.1
; #@! TF.FileFunction,Plated,1,4,PTH
FMAT,2
METRIC
; #@! TA.AperFunction,Plated,PTH,ViaDrill
T1C0.300
; #@! TA.AperFunction,Plated,PTH,ComponentDrill
T2C0.500
; #@! TA.AperFunction,Plated,PTH,ComponentDrill
T3C0.600
; #@! TA.AperFunction,Plated,PTH,ComponentDrill
T4C0.800
; #@! TA.AperFunction,Plated,PTH,ComponentDrill
T5C0.900
; #@! TA.AperFunction,Plated,PTH,ComponentDrill
T6C1.000
%
G90
G05
T1
X134.27Y-88.37
X134.29Y-85.75
T2
X153.22Y-73.52
X154.47Y-73.52
X155.72Y-73.52
X156.97Y-73.52
X158.22Y-73.52
X159.47Y-73.52
T4
X127.13Y-76.06
X127.13Y-97.47
X134.75Y-76.06
X134.75Y-97.47
X152.93Y-92.99
X152.96Y-81.55
X160.55Y-92.99
X160.58Y-81.55
T5
X141.955Y-81.09
X142.275Y-92.95
X144.495Y-81.09
X144.815Y-92.95
T6
X169.622Y-73.81
X169.622Y-99.25
X172.162Y-73.8
X172.162Y-99.2
X174.702Y-73.8
X174.702Y-99.2
X177.242Y-73.8
X177.242Y-99.2
X179.782Y-73.8
X179.782Y-99.2
X182.322Y-73.8
X182.322Y-99.2
X184.862Y-73.8
X184.862Y-99.2
X187.402Y-73.8
X187.402Y-99.2
X189.942Y-73.8
X189.942Y-99.2
X192.482Y-73.8
X192.482Y-99.2
X195.022Y-73.8
X195.022Y-99.2
X197.562Y-73.8
X197.562Y-99.2
X200.102Y-73.8
X200.102Y-99.2
X202.642Y-73.8
X202.642Y-99.2
X205.182Y-73.8
X205.182Y-99.2
X207.722Y-73.8
X207.722Y-99.2
X210.262Y-73.8
X210.262Y-99.2
X212.802Y-73.8
X212.802Y-99.2
X215.342Y-73.8
X215.342Y-99.2
X217.882Y-73.8
X217.882Y-99.2
T3
X128.28Y-82.3G85X127.48Y-82.3
G05
X128.28Y-90.94G85X127.48Y-90.94
G05
X132.61Y-82.3G85X131.51Y-82.3
G05
X132.61Y-90.94G85X131.51Y-90.94
G05
M30
