%TF.GenerationSoftware,KiCad,Pcbnew,9.0.6-9.0.6~ubuntu24.04.1*%
%TF.CreationDate,2026-01-01T19:23:54+01:00*%
%TF.ProjectId,security-system,73656375-7269-4747-992d-73797374656d,0*%
%TF.SameCoordinates,Original*%
%TF.FileFunction,Copper,L3,Inr*%
%TF.FilePolarity,Positive*%
%FSLAX46Y46*%
G04 Gerber Fmt 4.6, Leading zero omitted, Abs format (unit mm)*
G04 Created by KiCad (PCBNEW 9.0.6-9.0.6~ubuntu24.04.1) date 2026-01-01 19:23:54*
%MOMM*%
%LPD*%
G01*
G04 APERTURE LIST*
G04 Aperture macros list*
%AMRoundRect*
0 Rectangle with rounded corners*
0 $1 Rounding radius*
0 $2 $3 $4 $5 $6 $7 $8 $9 X,Y pos of 4 corners*
0 Add a 4 corners polygon primitive as box body*
4,1,4,$2,$3,$4,$5,$6,$7,$8,$9,$2,$3,0*
0 Add four circle primitives for the rounded corners*
1,1,$1+$1,$2,$3*
1,1,$1+$1,$4,$5*
1,1,$1+$1,$6,$7*
1,1,$1+$1,$8,$9*
0 Add four rect primitives between the rounded corners*
20,1,$1+$1,$2,$3,$4,$5,0*
20,1,$1+$1,$4,$5,$6,$7,0*
20,1,$1+$1,$6,$7,$8,$9,0*
20,1,$1+$1,$8,$9,$2,$3,0*%
G04 Aperture macros list end*
%TA.AperFunction,ComponentPad*%
%ADD10R,1.800000X1.800000*%
%TD*%
%TA.AperFunction,ComponentPad*%
%ADD11C,1.800000*%
%TD*%
%TA.AperFunction,ComponentPad*%
%ADD12C,1.600000*%
%TD*%
%TA.AperFunction,ComponentPad*%
%ADD13RoundRect,0.200000X-0.200000X-0.450000X0.200000X-0.450000X0.200000X0.450000X-0.200000X0.450000X0*%
%TD*%
%TA.AperFunction,ComponentPad*%
%ADD14O,0.800000X1.300000*%
%TD*%
%TA.AperFunction,HeatsinkPad*%
%ADD15O,2.100000X1.000000*%
%TD*%
%TA.AperFunction,HeatsinkPad*%
%ADD16O,1.800000X1.000000*%
%TD*%
%TA.AperFunction,ComponentPad*%
%ADD17R,1.700000X1.700000*%
%TD*%
%TA.AperFunction,ComponentPad*%
%ADD18C,1.700000*%
%TD*%
%TA.AperFunction,ViaPad*%
%ADD19C,0.600000*%
%TD*%
G04 APERTURE END LIST*
D10*
%TO.N,GND*%
%TO.C,D2*%
X142275000Y-92950000D03*
D11*
%TO.N,Net-(D2-A)*%
X144815000Y-92950000D03*
%TD*%
D12*
%TO.N,+5V*%
%TO.C,R1*%
X152960000Y-81550000D03*
%TO.N,Net-(D1-A)*%
X160580000Y-81550000D03*
%TD*%
D10*
%TO.N,GND*%
%TO.C,D1*%
X141955000Y-81090000D03*
D11*
%TO.N,Net-(D1-A)*%
X144495000Y-81090000D03*
%TD*%
D13*
%TO.N,unconnected-(J1-Pin_1-Pad1)*%
%TO.C,J1*%
X153220000Y-73520000D03*
D14*
%TO.N,GND*%
X154470000Y-73520000D03*
X155720000Y-73520000D03*
%TO.N,/SCL*%
X156970000Y-73520000D03*
%TO.N,/SDA*%
X158220000Y-73520000D03*
%TO.N,+5V*%
X159470000Y-73520000D03*
%TD*%
D15*
%TO.N,GND*%
%TO.C,J2*%
X132060000Y-82300000D03*
D16*
X127880000Y-82300000D03*
D15*
X132060000Y-90940000D03*
D16*
X127880000Y-90940000D03*
%TD*%
D12*
%TO.N,Net-(J2-CC2)*%
%TO.C,R4*%
X134750000Y-97470000D03*
%TO.N,GND*%
X127130000Y-97470000D03*
%TD*%
D17*
%TO.N,+3.3V*%
%TO.C,U1*%
X217882000Y-73800000D03*
D18*
%TO.N,unconnected-(U1-GPIO43-Pad2)*%
X217882000Y-99200000D03*
%TO.N,unconnected-(U1-RST-Pad3)*%
X215342000Y-73800000D03*
%TO.N,unconnected-(U1-GPIO44-Pad4)*%
X215342000Y-99200000D03*
%TO.N,/LED_STATUS*%
X212802000Y-73800000D03*
%TO.N,unconnected-(U1-GPIO1-Pad6)*%
X212802000Y-99200000D03*
%TO.N,unconnected-(U1-GPIO5-Pad7)*%
X210262000Y-73800000D03*
%TO.N,unconnected-(U1-GPIO2-Pad8)*%
X210262000Y-99200000D03*
%TO.N,unconnected-(U1-GPIO6-Pad9)*%
X207722000Y-73800000D03*
%TO.N,unconnected-(U1-GPIO42-Pad10)*%
X207722000Y-99200000D03*
%TO.N,unconnected-(U1-GPIO7-Pad11)*%
X205182000Y-73800000D03*
%TO.N,unconnected-(U1-GPIO41-Pad12)*%
X205182000Y-99200000D03*
%TO.N,unconnected-(U1-GPIO15-Pad13)*%
X202642000Y-73800000D03*
%TO.N,unconnected-(U1-GPIO40-Pad14)*%
X202642000Y-99200000D03*
%TO.N,unconnected-(U1-GPIO16-Pad15)*%
X200102000Y-73800000D03*
%TO.N,unconnected-(U1-GPIO39-Pad16)*%
X200102000Y-99200000D03*
%TO.N,unconnected-(U1-GPIO17-Pad17)*%
X197562000Y-73800000D03*
%TO.N,unconnected-(U1-GPIO38-Pad18)*%
X197562000Y-99200000D03*
%TO.N,unconnected-(U1-GPIO18-Pad19)*%
X195022000Y-73800000D03*
%TO.N,unconnected-(U1-GPIO37-Pad20)*%
X195022000Y-99200000D03*
%TO.N,/SDA*%
X192482000Y-73800000D03*
%TO.N,unconnected-(U1-GPIO36-Pad22)*%
X192482000Y-99200000D03*
%TO.N,unconnected-(U1-GPIO3-Pad23)*%
X189942000Y-73800000D03*
%TO.N,unconnected-(U1-GPIO35-Pad24)*%
X189942000Y-99200000D03*
%TO.N,unconnected-(U1-GPIO46-Pad25)*%
X187402000Y-73800000D03*
%TO.N,unconnected-(U1-GPIO0-Pad26)*%
X187402000Y-99200000D03*
%TO.N,/SCL*%
X184862000Y-73800000D03*
%TO.N,unconnected-(U1-GPIO45-Pad28)*%
X184862000Y-99200000D03*
%TO.N,unconnected-(U1-GPIO10-Pad29)*%
X182322000Y-73800000D03*
%TO.N,unconnected-(U1-GPIO48-Pad30)*%
X182322000Y-99200000D03*
%TO.N,unconnected-(U1-GPIO11-Pad31)*%
X179782000Y-73800000D03*
%TO.N,unconnected-(U1-GPIO47-Pad32)*%
X179782000Y-99200000D03*
%TO.N,unconnected-(U1-GPIO12-Pad33)*%
X177242000Y-73800000D03*
%TO.N,unconnected-(U1-GPIO21-Pad34)*%
X177242000Y-99200000D03*
%TO.N,unconnected-(U1-GPIO13-Pad35)*%
X174702000Y-73800000D03*
%TO.N,unconnected-(U1-GPIO20-Pad36)*%
X174702000Y-99200000D03*
%TO.N,unconnected-(U1-GPIO14-Pad37)*%
X172162000Y-73800000D03*
%TO.N,unconnected-(U1-GPIO19-Pad38)*%
X172162000Y-99200000D03*
%TO.N,+5V*%
X169622000Y-73810000D03*
%TO.N,GND*%
X169622000Y-99250000D03*
%TD*%
D12*
%TO.N,/LED_STATUS*%
%TO.C,R2*%
X152930000Y-92990000D03*
%TO.N,Net-(D2-A)*%
X160550000Y-92990000D03*
%TD*%
%TO.N,Net-(J2-CC1)*%
%TO.C,R3*%
X134750000Y-76060000D03*
%TO.N,GND*%
X127130000Y-76060000D03*
%TD*%
D19*
%TO.N,+5V*%
X134290000Y-85750000D03*
X134270000Y-88370000D03*
%TD*%
M02*
