%TF.GenerationSoftware,KiCad,Pcbnew,9.0.6-9.0.6~ubuntu24.04.1*%
%TF.CreationDate,2026-01-01T18:35:02+01:00*%
%TF.ProjectId,security-system,73656375-7269-4747-992d-73797374656d,0*%
%TF.SameCoordinates,Original*%
%TF.FileFunction,Copper,L4,Bot*%
%TF.FilePolarity,Positive*%
%FSLAX46Y46*%
G04 Gerber Fmt 4.6, Leading zero omitted, Abs format (unit mm)*
G04 Created by KiCad (PCBNEW 9.0.6-9.0.6~ubuntu24.04.1) date 2026-01-01 18:35:02*
%MOMM*%
%LPD*%
G01*
G04 APERTURE LIST*
G04 Aperture macros list*
%AMRoundRect*
0 Rectangle with rounded corners*
0 $1 Rounding radius*
0 $2 $3 $4 $5 $6 $7 $8 $9 X,Y pos of 4 corners*
0 Add a 4 corners polygon primitive as box body*
4,1,4,$2,$3,$4,$5,$6,$7,$8,$9,$2,$3,0*
0 Add four circle primitives for the rounded corners*
1,1,$1+$1,$2,$3*
1,1,$1+$1,$4,$5*
1,1,$1+$1,$6,$7*
1,1,$1+$1,$8,$9*
0 Add four rect primitives between the rounded corners*
20,1,$1+$1,$2,$3,$4,$5,0*
20,1,$1+$1,$4,$5,$6,$7,0*
20,1,$1+$1,$6,$7,$8,$9,0*
20,1,$1+$1,$8,$9,$2,$3,0*%
G04 Aperture macros list end*
%TA.AperFunction,ComponentPad*%
%ADD10R,1.800000X1.800000*%
%TD*%
%TA.AperFunction,ComponentPad*%
%ADD11C,1.800000*%
%TD*%
%TA.AperFunction,ComponentPad*%
%ADD12C,1.600000*%
%TD*%
%TA.AperFunction,ComponentPad*%
%ADD13RoundRect,0.200000X-0.200000X-0.450000X0.200000X-0.450000X0.200000X0.450000X-0.200000X0.450000X0*%
%TD*%
%TA.AperFunction,ComponentPad*%
%ADD14O,0.800000X1.300000*%
%TD*%
%TA.AperFunction,HeatsinkPad*%
%ADD15O,2.100000X1.000000*%
%TD*%
%TA.AperFunction,HeatsinkPad*%
%ADD16O,1.800000X1.000000*%
%TD*%
%TA.AperFunction,ComponentPad*%
%ADD17R,1.700000X1.700000*%
%TD*%
%TA.AperFunction,ComponentPad*%
%ADD18C,1.700000*%
%TD*%
%TA.AperFunction,ViaPad*%
%ADD19C,0.600000*%
%TD*%
%TA.AperFunction,Conductor*%
%ADD20C,0.400000*%
%TD*%
G04 APERTURE END LIST*
D10*
%TO.P,DETECTION LED,1,K*%
%TO.N,GND*%
X142275000Y-92950000D03*
D11*
%TO.P,DETECTION LED,2,A*%
%TO.N,Net-(D2-A)*%
X144815000Y-92950000D03*
%TD*%
D12*
%TO.P,R1,1*%
%TO.N,+5V*%
X152960000Y-81550000D03*
%TO.P,R1,2*%
%TO.N,Net-(D1-A)*%
X160580000Y-81550000D03*
%TD*%
D10*
%TO.P,POWER-ON LED,1,K*%
%TO.N,GND*%
X141955000Y-81090000D03*
D11*
%TO.P,POWER-ON LED,2,A*%
%TO.N,Net-(D1-A)*%
X144495000Y-81090000D03*
%TD*%
D13*
%TO.P,J1,1,Pin_1*%
%TO.N,unconnected-(J1-Pin_1-Pad1)*%
X153220000Y-73520000D03*
D14*
%TO.P,J1,2,Pin_2*%
%TO.N,GND*%
X154470000Y-73520000D03*
%TO.P,J1,3,Pin_3*%
X155720000Y-73520000D03*
%TO.P,J1,4,Pin_4*%
%TO.N,/SCL*%
X156970000Y-73520000D03*
%TO.P,J1,5,Pin_5*%
%TO.N,/SDA*%
X158220000Y-73520000D03*
%TO.P,J1,6,Pin_6*%
%TO.N,+5V*%
X159470000Y-73520000D03*
%TD*%
D15*
%TO.P,J2,S1,SHIELD*%
%TO.N,GND*%
X132060000Y-82300000D03*
D16*
X127880000Y-82300000D03*
D15*
X132060000Y-90940000D03*
D16*
X127880000Y-90940000D03*
%TD*%
D12*
%TO.P,R4,1*%
%TO.N,Net-(J2-CC2)*%
X134750000Y-97470000D03*
%TO.P,R4,2*%
%TO.N,GND*%
X127130000Y-97470000D03*
%TD*%
D17*
%TO.P,U1,1,3V3*%
%TO.N,+3.3V*%
X217882000Y-73800000D03*
D18*
%TO.P,U1,2,GPIO43*%
%TO.N,unconnected-(U1-GPIO43-Pad2)*%
X217882000Y-99200000D03*
%TO.P,U1,3,RST*%
%TO.N,unconnected-(U1-RST-Pad3)*%
X215342000Y-73800000D03*
%TO.P,U1,4,GPIO44*%
%TO.N,unconnected-(U1-GPIO44-Pad4)*%
X215342000Y-99200000D03*
%TO.P,U1,5,GPIO4*%
%TO.N,unconnected-(U1-GPIO4-Pad5)*%
X212802000Y-73800000D03*
%TO.P,U1,6,GPIO1*%
%TO.N,unconnected-(U1-GPIO1-Pad6)*%
X212802000Y-99200000D03*
%TO.P,U1,7,GPIO5*%
%TO.N,unconnected-(U1-GPIO5-Pad7)*%
X210262000Y-73800000D03*
%TO.P,U1,8,GPIO2*%
%TO.N,unconnected-(U1-GPIO2-Pad8)*%
X210262000Y-99200000D03*
%TO.P,U1,9,GPIO6*%
%TO.N,unconnected-(U1-GPIO6-Pad9)*%
X207722000Y-73800000D03*
%TO.P,U1,10,GPIO42*%
%TO.N,unconnected-(U1-GPIO42-Pad10)*%
X207722000Y-99200000D03*
%TO.P,U1,11,GPIO7*%
%TO.N,unconnected-(U1-GPIO7-Pad11)*%
X205182000Y-73800000D03*
%TO.P,U1,12,GPIO41*%
%TO.N,unconnected-(U1-GPIO41-Pad12)*%
X205182000Y-99200000D03*
%TO.P,U1,13,GPIO15*%
%TO.N,unconnected-(U1-GPIO15-Pad13)*%
X202642000Y-73800000D03*
%TO.P,U1,14,GPIO40*%
%TO.N,unconnected-(U1-GPIO40-Pad14)*%
X202642000Y-99200000D03*
%TO.P,U1,15,GPIO16*%
%TO.N,unconnected-(U1-GPIO16-Pad15)*%
X200102000Y-73800000D03*
%TO.P,U1,16,GPIO39*%
%TO.N,unconnected-(U1-GPIO39-Pad16)*%
X200102000Y-99200000D03*
%TO.P,U1,17,GPIO17*%
%TO.N,unconnected-(U1-GPIO17-Pad17)*%
X197562000Y-73800000D03*
%TO.P,U1,18,GPIO38*%
%TO.N,unconnected-(U1-GPIO38-Pad18)*%
X197562000Y-99200000D03*
%TO.P,U1,19,GPIO18*%
%TO.N,unconnected-(U1-GPIO18-Pad19)*%
X195022000Y-73800000D03*
%TO.P,U1,20,GPIO37*%
%TO.N,unconnected-(U1-GPIO37-Pad20)*%
X195022000Y-99200000D03*
%TO.P,U1,21,GPIO8*%
%TO.N,/SDA*%
X192482000Y-73800000D03*
%TO.P,U1,22,GPIO36*%
%TO.N,unconnected-(U1-GPIO36-Pad22)*%
X192482000Y-99200000D03*
%TO.P,U1,23,GPIO3*%
%TO.N,unconnected-(U1-GPIO3-Pad23)*%
X189942000Y-73800000D03*
%TO.P,U1,24,GPIO35*%
%TO.N,unconnected-(U1-GPIO35-Pad24)*%
X189942000Y-99200000D03*
%TO.P,U1,25,GPIO46*%
%TO.N,unconnected-(U1-GPIO46-Pad25)*%
X187402000Y-73800000D03*
%TO.P,U1,26,GPIO0*%
%TO.N,unconnected-(U1-GPIO0-Pad26)*%
X187402000Y-99200000D03*
%TO.P,U1,27,GPIO9*%
%TO.N,/SCL*%
X184862000Y-73800000D03*
%TO.P,U1,28,GPIO45*%
%TO.N,unconnected-(U1-GPIO45-Pad28)*%
X184862000Y-99200000D03*
%TO.P,U1,29,GPIO10*%
%TO.N,unconnected-(U1-GPIO10-Pad29)*%
X182322000Y-73800000D03*
%TO.P,U1,30,GPIO48*%
%TO.N,unconnected-(U1-GPIO48-Pad30)*%
X182322000Y-99200000D03*
%TO.P,U1,31,GPIO11*%
%TO.N,unconnected-(U1-GPIO11-Pad31)*%
X179782000Y-73800000D03*
%TO.P,U1,32,GPIO47*%
%TO.N,unconnected-(U1-GPIO47-Pad32)*%
X179782000Y-99200000D03*
%TO.P,U1,33,GPIO12*%
%TO.N,unconnected-(U1-GPIO12-Pad33)*%
X177242000Y-73800000D03*
%TO.P,U1,34,GPIO21*%
%TO.N,unconnected-(U1-GPIO21-Pad34)*%
X177242000Y-99200000D03*
%TO.P,U1,35,GPIO13*%
%TO.N,unconnected-(U1-GPIO13-Pad35)*%
X174702000Y-73800000D03*
%TO.P,U1,36,GPIO20*%
%TO.N,unconnected-(U1-GPIO20-Pad36)*%
X174702000Y-99200000D03*
%TO.P,U1,37,GPIO14*%
%TO.N,unconnected-(U1-GPIO14-Pad37)*%
X172162000Y-73800000D03*
%TO.P,U1,38,GPIO19*%
%TO.N,unconnected-(U1-GPIO19-Pad38)*%
X172162000Y-99200000D03*
%TO.P,U1,39,5V*%
%TO.N,+5V*%
X169622000Y-73810000D03*
%TO.P,U1,40,GND*%
%TO.N,GND*%
X169622000Y-99250000D03*
%TD*%
D12*
%TO.P,R2,1*%
%TO.N,+5V*%
X152930000Y-92990000D03*
%TO.P,R2,2*%
%TO.N,Net-(D2-A)*%
X160550000Y-92990000D03*
%TD*%
%TO.P,R3,1*%
%TO.N,Net-(J2-CC1)*%
X134750000Y-76060000D03*
%TO.P,R3,2*%
%TO.N,GND*%
X127130000Y-76060000D03*
%TD*%
D19*
%TO.N,+5V*%
X134290000Y-85750000D03*
X134270000Y-88370000D03*
%TD*%
D20*
%TO.N,+5V*%
X159470000Y-75040000D02*
X159470000Y-73520000D01*
X134270000Y-88370000D02*
X134270000Y-85770000D01*
X134270000Y-85770000D02*
X134290000Y-85750000D01*
X152960000Y-81550000D02*
X159470000Y-75040000D01*
%TD*%
%TA.AperFunction,Conductor*%
%TO.N,GND*%
G36*
X226442539Y-66520185D02*
G01*
X226488294Y-66572989D01*
X226499500Y-66624500D01*
X226499500Y-106375500D01*
X226479815Y-106442539D01*
X226427011Y-106488294D01*
X226375500Y-106499500D01*
X125624500Y-106499500D01*
X125557461Y-106479815D01*
X125511706Y-106427011D01*
X125500500Y-106375500D01*
X125500500Y-103374038D01*
X126899500Y-103374038D01*
X126899500Y-103625961D01*
X126938910Y-103874785D01*
X127016760Y-104114383D01*
X127131132Y-104338848D01*
X127279201Y-104542649D01*
X127279205Y-104542654D01*
X127457345Y-104720794D01*
X127457350Y-104720798D01*
X127635117Y-104849952D01*
X127661155Y-104868870D01*
X127804184Y-104941747D01*
X127885616Y-104983239D01*
X127885618Y-104983239D01*
X127885621Y-104983241D01*
X128125215Y-105061090D01*
X128374038Y-105100500D01*
X128374039Y-105100500D01*
X128625961Y-105100500D01*
X128625962Y-105100500D01*
X128874785Y-105061090D01*
X129114379Y-104983241D01*
X129338845Y-104868870D01*
X129542656Y-104720793D01*
X129720793Y-104542656D01*
X129868870Y-104338845D01*
X129983241Y-104114379D01*
X130061090Y-103874785D01*
X130100500Y-103625962D01*
X130100500Y-103374038D01*
X221899500Y-103374038D01*
X221899500Y-103625961D01*
X221938910Y-103874785D01*
X222016760Y-104114383D01*
X222131132Y-104338848D01*
X222279201Y-104542649D01*
X222279205Y-104542654D01*
X222457345Y-104720794D01*
X222457350Y-104720798D01*
X222635117Y-104849952D01*
X222661155Y-104868870D01*
X222804184Y-104941747D01*
X222885616Y-104983239D01*
X222885618Y-104983239D01*
X222885621Y-104983241D01*
X223125215Y-105061090D01*
X223374038Y-105100500D01*
X223374039Y-105100500D01*
X223625961Y-105100500D01*
X223625962Y-105100500D01*
X223874785Y-105061090D01*
X224114379Y-104983241D01*
X224338845Y-104868870D01*
X224542656Y-104720793D01*
X224720793Y-104542656D01*
X224868870Y-104338845D01*
X224983241Y-104114379D01*
X225061090Y-103874785D01*
X225100500Y-103625962D01*
X225100500Y-103374038D01*
X225061090Y-103125215D01*
X224983241Y-102885621D01*
X224983239Y-102885618D01*
X224983239Y-102885616D01*
X224941747Y-102804184D01*
X224868870Y-102661155D01*
X224849952Y-102635117D01*
X224720798Y-102457350D01*
X224720794Y-102457345D01*
X224542654Y-102279205D01*
X224542649Y-102279201D01*
X224338848Y-102131132D01*
X224338847Y-102131131D01*
X224338845Y-102131130D01*
X224268747Y-102095413D01*
X224114383Y-102016760D01*
X223874785Y-101938910D01*
X223625962Y-101899500D01*
X223374038Y-101899500D01*
X223249626Y-101919205D01*
X223125214Y-101938910D01*
X222885616Y-102016760D01*
X222661151Y-102131132D01*
X222457350Y-102279201D01*
X222457345Y-102279205D01*
X222279205Y-102457345D01*
X222279201Y-102457350D01*
X222131132Y-102661151D01*
X222016760Y-102885616D01*
X221938910Y-103125214D01*
X221899500Y-103374038D01*
X130100500Y-103374038D01*
X130061090Y-103125215D01*
X129983241Y-102885621D01*
X129983239Y-102885618D01*
X129983239Y-102885616D01*
X129941747Y-102804184D01*
X129868870Y-102661155D01*
X129849952Y-102635117D01*
X129720798Y-102457350D01*
X129720794Y-102457345D01*
X129542654Y-102279205D01*
X129542649Y-102279201D01*
X129338848Y-102131132D01*
X129338847Y-102131131D01*
X129338845Y-102131130D01*
X129268747Y-102095413D01*
X129114383Y-102016760D01*
X128874785Y-101938910D01*
X128625962Y-101899500D01*
X128374038Y-101899500D01*
X128249626Y-101919205D01*
X128125214Y-101938910D01*
X127885616Y-102016760D01*
X127661151Y-102131132D01*
X127457350Y-102279201D01*
X127457345Y-102279205D01*
X127279205Y-102457345D01*
X127279201Y-102457350D01*
X127131132Y-102661151D01*
X127016760Y-102885616D01*
X126938910Y-103125214D01*
X126899500Y-103374038D01*
X125500500Y-103374038D01*
X125500500Y-99143753D01*
X168272000Y-99143753D01*
X168272000Y-99356246D01*
X168305242Y-99566127D01*
X168305242Y-99566130D01*
X168370904Y-99768217D01*
X168467375Y-99957550D01*
X168506728Y-100011716D01*
X169139037Y-99379408D01*
X169156075Y-99442993D01*
X169221901Y-99557007D01*
X169314993Y-99650099D01*
X169429007Y-99715925D01*
X169492590Y-99732962D01*
X168860282Y-100365269D01*
X168860282Y-100365270D01*
X168914449Y-100404624D01*
X169103782Y-100501095D01*
X169305870Y-100566757D01*
X169515754Y-100600000D01*
X169728246Y-100600000D01*
X169938127Y-100566757D01*
X169938130Y-100566757D01*
X170140217Y-100501095D01*
X170329554Y-100404622D01*
X170383716Y-100365270D01*
X170383717Y-100365270D01*
X169751408Y-99732962D01*
X169814993Y-99715925D01*
X169929007Y-99650099D01*
X170022099Y-99557007D01*
X170087925Y-99442993D01*
X170104962Y-99379408D01*
X170737270Y-100011717D01*
X170737270Y-100011716D01*
X170776622Y-99957554D01*
X170794596Y-99922278D01*
X170842570Y-99871481D01*
X170910390Y-99854685D01*
X170976526Y-99877221D01*
X171005400Y-99905686D01*
X171131890Y-100079785D01*
X171131894Y-100079790D01*
X171282213Y-100230109D01*
X171454179Y-100355048D01*
X171454181Y-100355049D01*
X171454184Y-100355051D01*
X171643588Y-100451557D01*
X171845757Y-100517246D01*
X172055713Y-100550500D01*
X172055714Y-100550500D01*
X172268286Y-100550500D01*
X172268287Y-100550500D01*
X172478243Y-100517246D01*
X172680412Y-100451557D01*
X172869816Y-100355051D01*
X172891789Y-100339086D01*
X173041786Y-100230109D01*
X173041788Y-100230106D01*
X173041792Y-100230104D01*
X173192104Y-100079792D01*
X173192106Y-100079788D01*
X173192109Y-100079786D01*
X173317048Y-99907820D01*
X173317047Y-99907820D01*
X173317051Y-99907816D01*
X173321514Y-99899054D01*
X173369488Y-99848259D01*
X173437308Y-99831463D01*
X173503444Y-99853999D01*
X173542486Y-99899056D01*
X173546951Y-99907820D01*
X173671890Y-100079786D01*
X173822213Y-100230109D01*
X173994179Y-100355048D01*
X173994181Y-100355049D01*
X173994184Y-100355051D01*
X174183588Y-100451557D01*
X174385757Y-100517246D01*
X174595713Y-100550500D01*
X174595714Y-100550500D01*
X174808286Y-100550500D01*
X174808287Y-100550500D01*
X175018243Y-100517246D01*
X175220412Y-100451557D01*
X175409816Y-100355051D01*
X175431789Y-100339086D01*
X175581786Y-100230109D01*
X175581788Y-100230106D01*
X175581792Y-100230104D01*
X175732104Y-100079792D01*
X175732106Y-100079788D01*
X175732109Y-100079786D01*
X175857048Y-99907820D01*
X175857047Y-99907820D01*
X175857051Y-99907816D01*
X175861514Y-99899054D01*
X175909488Y-99848259D01*
X175977308Y-99831463D01*
X176043444Y-99853999D01*
X176082486Y-99899056D01*
X176086951Y-99907820D01*
X176211890Y-100079786D01*
X176362213Y-100230109D01*
X176534179Y-100355048D01*
X176534181Y-100355049D01*
X176534184Y-100355051D01*
X176723588Y-100451557D01*
X176925757Y-100517246D01*
X177135713Y-100550500D01*
X177135714Y-100550500D01*
X177348286Y-100550500D01*
X177348287Y-100550500D01*
X177558243Y-100517246D01*
X177760412Y-100451557D01*
X177949816Y-100355051D01*
X177971789Y-100339086D01*
X178121786Y-100230109D01*
X178121788Y-100230106D01*
X178121792Y-100230104D01*
X178272104Y-100079792D01*
X178272106Y-100079788D01*
X178272109Y-100079786D01*
X178397048Y-99907820D01*
X178397047Y-99907820D01*
X178397051Y-99907816D01*
X178401514Y-99899054D01*
X178449488Y-99848259D01*
X178517308Y-99831463D01*
X178583444Y-99853999D01*
X178622486Y-99899056D01*
X178626951Y-99907820D01*
X178751890Y-100079786D01*
X178902213Y-100230109D01*
X179074179Y-100355048D01*
X179074181Y-100355049D01*
X179074184Y-100355051D01*
X179263588Y-100451557D01*
X179465757Y-100517246D01*
X179675713Y-100550500D01*
X179675714Y-100550500D01*
X179888286Y-100550500D01*
X179888287Y-100550500D01*
X180098243Y-100517246D01*
X180300412Y-100451557D01*
X180489816Y-100355051D01*
X180511789Y-100339086D01*
X180661786Y-100230109D01*
X180661788Y-100230106D01*
X180661792Y-100230104D01*
X180812104Y-100079792D01*
X180812106Y-100079788D01*
X180812109Y-100079786D01*
X180937048Y-99907820D01*
X180937047Y-99907820D01*
X180937051Y-99907816D01*
X180941514Y-99899054D01*
X180989488Y-99848259D01*
X181057308Y-99831463D01*
X181123444Y-99853999D01*
X181162486Y-99899056D01*
X181166951Y-99907820D01*
X181291890Y-100079786D01*
X181442213Y-100230109D01*
X181614179Y-100355048D01*
X181614181Y-100355049D01*
X181614184Y-100355051D01*
X181803588Y-100451557D01*
X182005757Y-100517246D01*
X182215713Y-100550500D01*
X182215714Y-100550500D01*
X182428286Y-100550500D01*
X182428287Y-100550500D01*
X182638243Y-100517246D01*
X182840412Y-100451557D01*
X183029816Y-100355051D01*
X183051789Y-100339086D01*
X183201786Y-100230109D01*
X183201788Y-100230106D01*
X183201792Y-100230104D01*
X183352104Y-100079792D01*
X183352106Y-100079788D01*
X183352109Y-100079786D01*
X183477048Y-99907820D01*
X183477047Y-99907820D01*
X183477051Y-99907816D01*
X183481514Y-99899054D01*
X183529488Y-99848259D01*
X183597308Y-99831463D01*
X183663444Y-99853999D01*
X183702486Y-99899056D01*
X183706951Y-99907820D01*
X183831890Y-100079786D01*
X183982213Y-100230109D01*
X184154179Y-100355048D01*
X184154181Y-100355049D01*
X184154184Y-100355051D01*
X184343588Y-100451557D01*
X184545757Y-100517246D01*
X184755713Y-100550500D01*
X184755714Y-100550500D01*
X184968286Y-100550500D01*
X184968287Y-100550500D01*
X185178243Y-100517246D01*
X185380412Y-100451557D01*
X185569816Y-100355051D01*
X185591789Y-100339086D01*
X185741786Y-100230109D01*
X185741788Y-100230106D01*
X185741792Y-100230104D01*
X185892104Y-100079792D01*
X185892106Y-100079788D01*
X185892109Y-100079786D01*
X186017048Y-99907820D01*
X186017047Y-99907820D01*
X186017051Y-99907816D01*
X186021514Y-99899054D01*
X186069488Y-99848259D01*
X186137308Y-99831463D01*
X186203444Y-99853999D01*
X186242486Y-99899056D01*
X186246951Y-99907820D01*
X186371890Y-100079786D01*
X186522213Y-100230109D01*
X186694179Y-100355048D01*
X186694181Y-100355049D01*
X186694184Y-100355051D01*
X186883588Y-100451557D01*
X187085757Y-100517246D01*
X187295713Y-100550500D01*
X187295714Y-100550500D01*
X187508286Y-100550500D01*
X187508287Y-100550500D01*
X187718243Y-100517246D01*
X187920412Y-100451557D01*
X188109816Y-100355051D01*
X188131789Y-100339086D01*
X188281786Y-100230109D01*
X188281788Y-100230106D01*
X188281792Y-100230104D01*
X188432104Y-100079792D01*
X188432106Y-100079788D01*
X188432109Y-100079786D01*
X188557048Y-99907820D01*
X188557047Y-99907820D01*
X188557051Y-99907816D01*
X188561514Y-99899054D01*
X188609488Y-99848259D01*
X188677308Y-99831463D01*
X188743444Y-99853999D01*
X188782486Y-99899056D01*
X188786951Y-99907820D01*
X188911890Y-100079786D01*
X189062213Y-100230109D01*
X189234179Y-100355048D01*
X189234181Y-100355049D01*
X189234184Y-100355051D01*
X189423588Y-100451557D01*
X189625757Y-100517246D01*
X189835713Y-100550500D01*
X189835714Y-100550500D01*
X190048286Y-100550500D01*
X190048287Y-100550500D01*
X190258243Y-100517246D01*
X190460412Y-100451557D01*
X190649816Y-100355051D01*
X190671789Y-100339086D01*
X190821786Y-100230109D01*
X190821788Y-100230106D01*
X190821792Y-100230104D01*
X190972104Y-100079792D01*
X190972106Y-100079788D01*
X190972109Y-100079786D01*
X191097048Y-99907820D01*
X191097047Y-99907820D01*
X191097051Y-99907816D01*
X191101514Y-99899054D01*
X191149488Y-99848259D01*
X191217308Y-99831463D01*
X191283444Y-99853999D01*
X191322486Y-99899056D01*
X191326951Y-99907820D01*
X191451890Y-100079786D01*
X191602213Y-100230109D01*
X191774179Y-100355048D01*
X191774181Y-100355049D01*
X191774184Y-100355051D01*
X191963588Y-100451557D01*
X192165757Y-100517246D01*
X192375713Y-100550500D01*
X192375714Y-100550500D01*
X192588286Y-100550500D01*
X192588287Y-100550500D01*
X192798243Y-100517246D01*
X193000412Y-100451557D01*
X193189816Y-100355051D01*
X193211789Y-100339086D01*
X193361786Y-100230109D01*
X193361788Y-100230106D01*
X193361792Y-100230104D01*
X193512104Y-100079792D01*
X193512106Y-100079788D01*
X193512109Y-100079786D01*
X193637048Y-99907820D01*
X193637047Y-99907820D01*
X193637051Y-99907816D01*
X193641514Y-99899054D01*
X193689488Y-99848259D01*
X193757308Y-99831463D01*
X193823444Y-99853999D01*
X193862486Y-99899056D01*
X193866951Y-99907820D01*
X193991890Y-100079786D01*
X194142213Y-100230109D01*
X194314179Y-100355048D01*
X194314181Y-100355049D01*
X194314184Y-100355051D01*
X194503588Y-100451557D01*
X194705757Y-100517246D01*
X194915713Y-100550500D01*
X194915714Y-100550500D01*
X195128286Y-100550500D01*
X195128287Y-100550500D01*
X195338243Y-100517246D01*
X195540412Y-100451557D01*
X195729816Y-100355051D01*
X195751789Y-100339086D01*
X195901786Y-100230109D01*
X195901788Y-100230106D01*
X195901792Y-100230104D01*
X196052104Y-100079792D01*
X196052106Y-100079788D01*
X196052109Y-100079786D01*
X196177048Y-99907820D01*
X196177047Y-99907820D01*
X196177051Y-99907816D01*
X196181514Y-99899054D01*
X196229488Y-99848259D01*
X196297308Y-99831463D01*
X196363444Y-99853999D01*
X196402486Y-99899056D01*
X196406951Y-99907820D01*
X196531890Y-100079786D01*
X196682213Y-100230109D01*
X196854179Y-100355048D01*
X196854181Y-100355049D01*
X196854184Y-100355051D01*
X197043588Y-100451557D01*
X197245757Y-100517246D01*
X197455713Y-100550500D01*
X197455714Y-100550500D01*
X197668286Y-100550500D01*
X197668287Y-100550500D01*
X197878243Y-100517246D01*
X198080412Y-100451557D01*
X198269816Y-100355051D01*
X198291789Y-100339086D01*
X198441786Y-100230109D01*
X198441788Y-100230106D01*
X198441792Y-100230104D01*
X198592104Y-100079792D01*
X198592106Y-100079788D01*
X198592109Y-100079786D01*
X198717048Y-99907820D01*
X198717047Y-99907820D01*
X198717051Y-99907816D01*
X198721514Y-99899054D01*
X198769488Y-99848259D01*
X198837308Y-99831463D01*
X198903444Y-99853999D01*
X198942486Y-99899056D01*
X198946951Y-99907820D01*
X199071890Y-100079786D01*
X199222213Y-100230109D01*
X199394179Y-100355048D01*
X199394181Y-100355049D01*
X199394184Y-100355051D01*
X199583588Y-100451557D01*
X199785757Y-100517246D01*
X199995713Y-100550500D01*
X199995714Y-100550500D01*
X200208286Y-100550500D01*
X200208287Y-100550500D01*
X200418243Y-100517246D01*
X200620412Y-100451557D01*
X200809816Y-100355051D01*
X200831789Y-100339086D01*
X200981786Y-100230109D01*
X200981788Y-100230106D01*
X200981792Y-100230104D01*
X201132104Y-100079792D01*
X201132106Y-100079788D01*
X201132109Y-100079786D01*
X201257048Y-99907820D01*
X201257047Y-99907820D01*
X201257051Y-99907816D01*
X201261514Y-99899054D01*
X201309488Y-99848259D01*
X201377308Y-99831463D01*
X201443444Y-99853999D01*
X201482486Y-99899056D01*
X201486951Y-99907820D01*
X201611890Y-100079786D01*
X201762213Y-100230109D01*
X201934179Y-100355048D01*
X201934181Y-100355049D01*
X201934184Y-100355051D01*
X202123588Y-100451557D01*
X202325757Y-100517246D01*
X202535713Y-100550500D01*
X202535714Y-100550500D01*
X202748286Y-100550500D01*
X202748287Y-100550500D01*
X202958243Y-100517246D01*
X203160412Y-100451557D01*
X203349816Y-100355051D01*
X203371789Y-100339086D01*
X203521786Y-100230109D01*
X203521788Y-100230106D01*
X203521792Y-100230104D01*
X203672104Y-100079792D01*
X203672106Y-100079788D01*
X203672109Y-100079786D01*
X203797048Y-99907820D01*
X203797047Y-99907820D01*
X203797051Y-99907816D01*
X203801514Y-99899054D01*
X203849488Y-99848259D01*
X203917308Y-99831463D01*
X203983444Y-99853999D01*
X204022486Y-99899056D01*
X204026951Y-99907820D01*
X204151890Y-100079786D01*
X204302213Y-100230109D01*
X204474179Y-100355048D01*
X204474181Y-100355049D01*
X204474184Y-100355051D01*
X204663588Y-100451557D01*
X204865757Y-100517246D01*
X205075713Y-100550500D01*
X205075714Y-100550500D01*
X205288286Y-100550500D01*
X205288287Y-100550500D01*
X205498243Y-100517246D01*
X205700412Y-100451557D01*
X205889816Y-100355051D01*
X205911789Y-100339086D01*
X206061786Y-100230109D01*
X206061788Y-100230106D01*
X206061792Y-100230104D01*
X206212104Y-100079792D01*
X206212106Y-100079788D01*
X206212109Y-100079786D01*
X206337048Y-99907820D01*
X206337047Y-99907820D01*
X206337051Y-99907816D01*
X206341514Y-99899054D01*
X206389488Y-99848259D01*
X206457308Y-99831463D01*
X206523444Y-99853999D01*
X206562486Y-99899056D01*
X206566951Y-99907820D01*
X206691890Y-100079786D01*
X206842213Y-100230109D01*
X207014179Y-100355048D01*
X207014181Y-100355049D01*
X207014184Y-100355051D01*
X207203588Y-100451557D01*
X207405757Y-100517246D01*
X207615713Y-100550500D01*
X207615714Y-100550500D01*
X207828286Y-100550500D01*
X207828287Y-100550500D01*
X208038243Y-100517246D01*
X208240412Y-100451557D01*
X208429816Y-100355051D01*
X208451789Y-100339086D01*
X208601786Y-100230109D01*
X208601788Y-100230106D01*
X208601792Y-100230104D01*
X208752104Y-100079792D01*
X208752106Y-100079788D01*
X208752109Y-100079786D01*
X208877048Y-99907820D01*
X208877047Y-99907820D01*
X208877051Y-99907816D01*
X208881514Y-99899054D01*
X208929488Y-99848259D01*
X208997308Y-99831463D01*
X209063444Y-99853999D01*
X209102486Y-99899056D01*
X209106951Y-99907820D01*
X209231890Y-100079786D01*
X209382213Y-100230109D01*
X209554179Y-100355048D01*
X209554181Y-100355049D01*
X209554184Y-100355051D01*
X209743588Y-100451557D01*
X209945757Y-100517246D01*
X210155713Y-100550500D01*
X210155714Y-100550500D01*
X210368286Y-100550500D01*
X210368287Y-100550500D01*
X210578243Y-100517246D01*
X210780412Y-100451557D01*
X210969816Y-100355051D01*
X210991789Y-100339086D01*
X211141786Y-100230109D01*
X211141788Y-100230106D01*
X211141792Y-100230104D01*
X211292104Y-100079792D01*
X211292106Y-100079788D01*
X211292109Y-100079786D01*
X211417048Y-99907820D01*
X211417047Y-99907820D01*
X211417051Y-99907816D01*
X211421514Y-99899054D01*
X211469488Y-99848259D01*
X211537308Y-99831463D01*
X211603444Y-99853999D01*
X211642486Y-99899056D01*
X211646951Y-99907820D01*
X211771890Y-100079786D01*
X211922213Y-100230109D01*
X212094179Y-100355048D01*
X212094181Y-100355049D01*
X212094184Y-100355051D01*
X212283588Y-100451557D01*
X212485757Y-100517246D01*
X212695713Y-100550500D01*
X212695714Y-100550500D01*
X212908286Y-100550500D01*
X212908287Y-100550500D01*
X213118243Y-100517246D01*
X213320412Y-100451557D01*
X213509816Y-100355051D01*
X213531789Y-100339086D01*
X213681786Y-100230109D01*
X213681788Y-100230106D01*
X213681792Y-100230104D01*
X213832104Y-100079792D01*
X213832106Y-100079788D01*
X213832109Y-100079786D01*
X213957048Y-99907820D01*
X213957047Y-99907820D01*
X213957051Y-99907816D01*
X213961514Y-99899054D01*
X214009488Y-99848259D01*
X214077308Y-99831463D01*
X214143444Y-99853999D01*
X214182486Y-99899056D01*
X214186951Y-99907820D01*
X214311890Y-100079786D01*
X214462213Y-100230109D01*
X214634179Y-100355048D01*
X214634181Y-100355049D01*
X214634184Y-100355051D01*
X214823588Y-100451557D01*
X215025757Y-100517246D01*
X215235713Y-100550500D01*
X215235714Y-100550500D01*
X215448286Y-100550500D01*
X215448287Y-100550500D01*
X215658243Y-100517246D01*
X215860412Y-100451557D01*
X216049816Y-100355051D01*
X216071789Y-100339086D01*
X216221786Y-100230109D01*
X216221788Y-100230106D01*
X216221792Y-100230104D01*
X216372104Y-100079792D01*
X216372106Y-100079788D01*
X216372109Y-100079786D01*
X216497048Y-99907820D01*
X216497047Y-99907820D01*
X216497051Y-99907816D01*
X216501514Y-99899054D01*
X216549488Y-99848259D01*
X216617308Y-99831463D01*
X216683444Y-99853999D01*
X216722486Y-99899056D01*
X216726951Y-99907820D01*
X216851890Y-100079786D01*
X217002213Y-100230109D01*
X217174179Y-100355048D01*
X217174181Y-100355049D01*
X217174184Y-100355051D01*
X217363588Y-100451557D01*
X217565757Y-100517246D01*
X217775713Y-100550500D01*
X217775714Y-100550500D01*
X217988286Y-100550500D01*
X217988287Y-100550500D01*
X218198243Y-100517246D01*
X218400412Y-100451557D01*
X218589816Y-100355051D01*
X218611789Y-100339086D01*
X218761786Y-100230109D01*
X218761788Y-100230106D01*
X218761792Y-100230104D01*
X218912104Y-100079792D01*
X218912106Y-100079788D01*
X218912109Y-100079786D01*
X219037048Y-99907820D01*
X219037047Y-99907820D01*
X219037051Y-99907816D01*
X219133557Y-99718412D01*
X219199246Y-99516243D01*
X219232500Y-99306287D01*
X219232500Y-99093713D01*
X219199246Y-98883757D01*
X219133557Y-98681588D01*
X219037051Y-98492184D01*
X219037049Y-98492181D01*
X219037048Y-98492179D01*
X218912109Y-98320213D01*
X218761786Y-98169890D01*
X218589820Y-98044951D01*
X218400414Y-97948444D01*
X218400413Y-97948443D01*
X218400412Y-97948443D01*
X218198243Y-97882754D01*
X218198241Y-97882753D01*
X218198240Y-97882753D01*
X218036957Y-97857208D01*
X217988287Y-97849500D01*
X217775713Y-97849500D01*
X217727042Y-97857208D01*
X217565760Y-97882753D01*
X217363585Y-97948444D01*
X217174179Y-98044951D01*
X217002213Y-98169890D01*
X216851890Y-98320213D01*
X216726949Y-98492182D01*
X216722484Y-98500946D01*
X216674509Y-98551742D01*
X216606688Y-98568536D01*
X216540553Y-98545998D01*
X216501516Y-98500946D01*
X216497050Y-98492182D01*
X216372109Y-98320213D01*
X216221786Y-98169890D01*
X216049820Y-98044951D01*
X215860414Y-97948444D01*
X215860413Y-97948443D01*
X215860412Y-97948443D01*
X215658243Y-97882754D01*
X215658241Y-97882753D01*
X215658240Y-97882753D01*
X215496957Y-97857208D01*
X215448287Y-97849500D01*
X215235713Y-97849500D01*
X215187042Y-97857208D01*
X215025760Y-97882753D01*
X214823585Y-97948444D01*
X214634179Y-98044951D01*
X214462213Y-98169890D01*
X214311890Y-98320213D01*
X214186949Y-98492182D01*
X214182484Y-98500946D01*
X214134509Y-98551742D01*
X214066688Y-98568536D01*
X214000553Y-98545998D01*
X213961516Y-98500946D01*
X213957050Y-98492182D01*
X213832109Y-98320213D01*
X213681786Y-98169890D01*
X213509820Y-98044951D01*
X213320414Y-97948444D01*
X213320413Y-97948443D01*
X213320412Y-97948443D01*
X213118243Y-97882754D01*
X213118241Y-97882753D01*
X213118240Y-97882753D01*
X212956957Y-97857208D01*
X212908287Y-97849500D01*
X212695713Y-97849500D01*
X212647042Y-97857208D01*
X212485760Y-97882753D01*
X212283585Y-97948444D01*
X212094179Y-98044951D01*
X211922213Y-98169890D01*
X211771890Y-98320213D01*
X211646949Y-98492182D01*
X211642484Y-98500946D01*
X211594509Y-98551742D01*
X211526688Y-98568536D01*
X211460553Y-98545998D01*
X211421516Y-98500946D01*
X211417050Y-98492182D01*
X211292109Y-98320213D01*
X211141786Y-98169890D01*
X210969820Y-98044951D01*
X210780414Y-97948444D01*
X210780413Y-97948443D01*
X210780412Y-97948443D01*
X210578243Y-97882754D01*
X210578241Y-97882753D01*
X210578240Y-97882753D01*
X210416957Y-97857208D01*
X210368287Y-97849500D01*
X210155713Y-97849500D01*
X210107042Y-97857208D01*
X209945760Y-97882753D01*
X209743585Y-97948444D01*
X209554179Y-98044951D01*
X209382213Y-98169890D01*
X209231890Y-98320213D01*
X209106949Y-98492182D01*
X209102484Y-98500946D01*
X209054509Y-98551742D01*
X208986688Y-98568536D01*
X208920553Y-98545998D01*
X208881516Y-98500946D01*
X208877050Y-98492182D01*
X208752109Y-98320213D01*
X208601786Y-98169890D01*
X208429820Y-98044951D01*
X208240414Y-97948444D01*
X208240413Y-97948443D01*
X208240412Y-97948443D01*
X208038243Y-97882754D01*
X208038241Y-97882753D01*
X208038240Y-97882753D01*
X207876957Y-97857208D01*
X207828287Y-97849500D01*
X207615713Y-97849500D01*
X207567042Y-97857208D01*
X207405760Y-97882753D01*
X207203585Y-97948444D01*
X207014179Y-98044951D01*
X206842213Y-98169890D01*
X206691890Y-98320213D01*
X206566949Y-98492182D01*
X206562484Y-98500946D01*
X206514509Y-98551742D01*
X206446688Y-98568536D01*
X206380553Y-98545998D01*
X206341516Y-98500946D01*
X206337050Y-98492182D01*
X206212109Y-98320213D01*
X206061786Y-98169890D01*
X205889820Y-98044951D01*
X205700414Y-97948444D01*
X205700413Y-97948443D01*
X205700412Y-97948443D01*
X205498243Y-97882754D01*
X205498241Y-97882753D01*
X205498240Y-97882753D01*
X205336957Y-97857208D01*
X205288287Y-97849500D01*
X205075713Y-97849500D01*
X205027042Y-97857208D01*
X204865760Y-97882753D01*
X204663585Y-97948444D01*
X204474179Y-98044951D01*
X204302213Y-98169890D01*
X204151890Y-98320213D01*
X204026949Y-98492182D01*
X204022484Y-98500946D01*
X203974509Y-98551742D01*
X203906688Y-98568536D01*
X203840553Y-98545998D01*
X203801516Y-98500946D01*
X203797050Y-98492182D01*
X203672109Y-98320213D01*
X203521786Y-98169890D01*
X203349820Y-98044951D01*
X203160414Y-97948444D01*
X203160413Y-97948443D01*
X203160412Y-97948443D01*
X202958243Y-97882754D01*
X202958241Y-97882753D01*
X202958240Y-97882753D01*
X202796957Y-97857208D01*
X202748287Y-97849500D01*
X202535713Y-97849500D01*
X202487042Y-97857208D01*
X202325760Y-97882753D01*
X202123585Y-97948444D01*
X201934179Y-98044951D01*
X201762213Y-98169890D01*
X201611890Y-98320213D01*
X201486949Y-98492182D01*
X201482484Y-98500946D01*
X201434509Y-98551742D01*
X201366688Y-98568536D01*
X201300553Y-98545998D01*
X201261516Y-98500946D01*
X201257050Y-98492182D01*
X201132109Y-98320213D01*
X200981786Y-98169890D01*
X200809820Y-98044951D01*
X200620414Y-97948444D01*
X200620413Y-97948443D01*
X200620412Y-97948443D01*
X200418243Y-97882754D01*
X200418241Y-97882753D01*
X200418240Y-97882753D01*
X200256957Y-97857208D01*
X200208287Y-97849500D01*
X199995713Y-97849500D01*
X199947042Y-97857208D01*
X199785760Y-97882753D01*
X199583585Y-97948444D01*
X199394179Y-98044951D01*
X199222213Y-98169890D01*
X199071890Y-98320213D01*
X198946949Y-98492182D01*
X198942484Y-98500946D01*
X198894509Y-98551742D01*
X198826688Y-98568536D01*
X198760553Y-98545998D01*
X198721516Y-98500946D01*
X198717050Y-98492182D01*
X198592109Y-98320213D01*
X198441786Y-98169890D01*
X198269820Y-98044951D01*
X198080414Y-97948444D01*
X198080413Y-97948443D01*
X198080412Y-97948443D01*
X197878243Y-97882754D01*
X197878241Y-97882753D01*
X197878240Y-97882753D01*
X197716957Y-97857208D01*
X197668287Y-97849500D01*
X197455713Y-97849500D01*
X197407042Y-97857208D01*
X197245760Y-97882753D01*
X197043585Y-97948444D01*
X196854179Y-98044951D01*
X196682213Y-98169890D01*
X196531890Y-98320213D01*
X196406949Y-98492182D01*
X196402484Y-98500946D01*
X196354509Y-98551742D01*
X196286688Y-98568536D01*
X196220553Y-98545998D01*
X196181516Y-98500946D01*
X196177050Y-98492182D01*
X196052109Y-98320213D01*
X195901786Y-98169890D01*
X195729820Y-98044951D01*
X195540414Y-97948444D01*
X195540413Y-97948443D01*
X195540412Y-97948443D01*
X195338243Y-97882754D01*
X195338241Y-97882753D01*
X195338240Y-97882753D01*
X195176957Y-97857208D01*
X195128287Y-97849500D01*
X194915713Y-97849500D01*
X194867042Y-97857208D01*
X194705760Y-97882753D01*
X194503585Y-97948444D01*
X194314179Y-98044951D01*
X194142213Y-98169890D01*
X193991890Y-98320213D01*
X193866949Y-98492182D01*
X193862484Y-98500946D01*
X193814509Y-98551742D01*
X193746688Y-98568536D01*
X193680553Y-98545998D01*
X193641516Y-98500946D01*
X193637050Y-98492182D01*
X193512109Y-98320213D01*
X193361786Y-98169890D01*
X193189820Y-98044951D01*
X193000414Y-97948444D01*
X193000413Y-97948443D01*
X193000412Y-97948443D01*
X192798243Y-97882754D01*
X192798241Y-97882753D01*
X192798240Y-97882753D01*
X192636957Y-97857208D01*
X192588287Y-97849500D01*
X192375713Y-97849500D01*
X192327042Y-97857208D01*
X192165760Y-97882753D01*
X191963585Y-97948444D01*
X191774179Y-98044951D01*
X191602213Y-98169890D01*
X191451890Y-98320213D01*
X191326949Y-98492182D01*
X191322484Y-98500946D01*
X191274509Y-98551742D01*
X191206688Y-98568536D01*
X191140553Y-98545998D01*
X191101516Y-98500946D01*
X191097050Y-98492182D01*
X190972109Y-98320213D01*
X190821786Y-98169890D01*
X190649820Y-98044951D01*
X190460414Y-97948444D01*
X190460413Y-97948443D01*
X190460412Y-97948443D01*
X190258243Y-97882754D01*
X190258241Y-97882753D01*
X190258240Y-97882753D01*
X190096957Y-97857208D01*
X190048287Y-97849500D01*
X189835713Y-97849500D01*
X189787042Y-97857208D01*
X189625760Y-97882753D01*
X189423585Y-97948444D01*
X189234179Y-98044951D01*
X189062213Y-98169890D01*
X188911890Y-98320213D01*
X188786949Y-98492182D01*
X188782484Y-98500946D01*
X188734509Y-98551742D01*
X188666688Y-98568536D01*
X188600553Y-98545998D01*
X188561516Y-98500946D01*
X188557050Y-98492182D01*
X188432109Y-98320213D01*
X188281786Y-98169890D01*
X188109820Y-98044951D01*
X187920414Y-97948444D01*
X187920413Y-97948443D01*
X187920412Y-97948443D01*
X187718243Y-97882754D01*
X187718241Y-97882753D01*
X187718240Y-97882753D01*
X187556957Y-97857208D01*
X187508287Y-97849500D01*
X187295713Y-97849500D01*
X187247042Y-97857208D01*
X187085760Y-97882753D01*
X186883585Y-97948444D01*
X186694179Y-98044951D01*
X186522213Y-98169890D01*
X186371890Y-98320213D01*
X186246949Y-98492182D01*
X186242484Y-98500946D01*
X186194509Y-98551742D01*
X186126688Y-98568536D01*
X186060553Y-98545998D01*
X186021516Y-98500946D01*
X186017050Y-98492182D01*
X185892109Y-98320213D01*
X185741786Y-98169890D01*
X185569820Y-98044951D01*
X185380414Y-97948444D01*
X185380413Y-97948443D01*
X185380412Y-97948443D01*
X185178243Y-97882754D01*
X185178241Y-97882753D01*
X185178240Y-97882753D01*
X185016957Y-97857208D01*
X184968287Y-97849500D01*
X184755713Y-97849500D01*
X184707042Y-97857208D01*
X184545760Y-97882753D01*
X184343585Y-97948444D01*
X184154179Y-98044951D01*
X183982213Y-98169890D01*
X183831890Y-98320213D01*
X183706949Y-98492182D01*
X183702484Y-98500946D01*
X183654509Y-98551742D01*
X183586688Y-98568536D01*
X183520553Y-98545998D01*
X183481516Y-98500946D01*
X183477050Y-98492182D01*
X183352109Y-98320213D01*
X183201786Y-98169890D01*
X183029820Y-98044951D01*
X182840414Y-97948444D01*
X182840413Y-97948443D01*
X182840412Y-97948443D01*
X182638243Y-97882754D01*
X182638241Y-97882753D01*
X182638240Y-97882753D01*
X182476957Y-97857208D01*
X182428287Y-97849500D01*
X182215713Y-97849500D01*
X182167042Y-97857208D01*
X182005760Y-97882753D01*
X181803585Y-97948444D01*
X181614179Y-98044951D01*
X181442213Y-98169890D01*
X181291890Y-98320213D01*
X181166949Y-98492182D01*
X181162484Y-98500946D01*
X181114509Y-98551742D01*
X181046688Y-98568536D01*
X180980553Y-98545998D01*
X180941516Y-98500946D01*
X180937050Y-98492182D01*
X180812109Y-98320213D01*
X180661786Y-98169890D01*
X180489820Y-98044951D01*
X180300414Y-97948444D01*
X180300413Y-97948443D01*
X180300412Y-97948443D01*
X180098243Y-97882754D01*
X180098241Y-97882753D01*
X180098240Y-97882753D01*
X179936957Y-97857208D01*
X179888287Y-97849500D01*
X179675713Y-97849500D01*
X179627042Y-97857208D01*
X179465760Y-97882753D01*
X179263585Y-97948444D01*
X179074179Y-98044951D01*
X178902213Y-98169890D01*
X178751890Y-98320213D01*
X178626949Y-98492182D01*
X178622484Y-98500946D01*
X178574509Y-98551742D01*
X178506688Y-98568536D01*
X178440553Y-98545998D01*
X178401516Y-98500946D01*
X178397050Y-98492182D01*
X178272109Y-98320213D01*
X178121786Y-98169890D01*
X177949820Y-98044951D01*
X177760414Y-97948444D01*
X177760413Y-97948443D01*
X177760412Y-97948443D01*
X177558243Y-97882754D01*
X177558241Y-97882753D01*
X177558240Y-97882753D01*
X177396957Y-97857208D01*
X177348287Y-97849500D01*
X177135713Y-97849500D01*
X177087042Y-97857208D01*
X176925760Y-97882753D01*
X176723585Y-97948444D01*
X176534179Y-98044951D01*
X176362213Y-98169890D01*
X176211890Y-98320213D01*
X176086949Y-98492182D01*
X176082484Y-98500946D01*
X176034509Y-98551742D01*
X175966688Y-98568536D01*
X175900553Y-98545998D01*
X175861516Y-98500946D01*
X175857050Y-98492182D01*
X175732109Y-98320213D01*
X175581786Y-98169890D01*
X175409820Y-98044951D01*
X175220414Y-97948444D01*
X175220413Y-97948443D01*
X175220412Y-97948443D01*
X175018243Y-97882754D01*
X175018241Y-97882753D01*
X175018240Y-97882753D01*
X174856957Y-97857208D01*
X174808287Y-97849500D01*
X174595713Y-97849500D01*
X174547042Y-97857208D01*
X174385760Y-97882753D01*
X174183585Y-97948444D01*
X173994179Y-98044951D01*
X173822213Y-98169890D01*
X173671890Y-98320213D01*
X173546949Y-98492182D01*
X173542484Y-98500946D01*
X173494509Y-98551742D01*
X173426688Y-98568536D01*
X173360553Y-98545998D01*
X173321516Y-98500946D01*
X173317050Y-98492182D01*
X173192109Y-98320213D01*
X173041786Y-98169890D01*
X172869820Y-98044951D01*
X172680414Y-97948444D01*
X172680413Y-97948443D01*
X172680412Y-97948443D01*
X172478243Y-97882754D01*
X172478241Y-97882753D01*
X172478240Y-97882753D01*
X172316957Y-97857208D01*
X172268287Y-97849500D01*
X172055713Y-97849500D01*
X172007042Y-97857208D01*
X171845760Y-97882753D01*
X171643585Y-97948444D01*
X171454179Y-98044951D01*
X171282213Y-98169890D01*
X171131890Y-98320213D01*
X171006948Y-98492184D01*
X171006946Y-98492186D01*
X170988814Y-98527772D01*
X170940839Y-98578567D01*
X170873018Y-98595361D01*
X170806883Y-98572822D01*
X170778012Y-98544359D01*
X170737270Y-98488282D01*
X170737269Y-98488282D01*
X170104962Y-99120590D01*
X170087925Y-99057007D01*
X170022099Y-98942993D01*
X169929007Y-98849901D01*
X169814993Y-98784075D01*
X169751409Y-98767037D01*
X170383716Y-98134728D01*
X170329550Y-98095375D01*
X170140217Y-97998904D01*
X169938129Y-97933242D01*
X169728246Y-97900000D01*
X169515754Y-97900000D01*
X169305872Y-97933242D01*
X169305869Y-97933242D01*
X169103782Y-97998904D01*
X168914439Y-98095380D01*
X168860282Y-98134727D01*
X168860282Y-98134728D01*
X169492591Y-98767037D01*
X169429007Y-98784075D01*
X169314993Y-98849901D01*
X169221901Y-98942993D01*
X169156075Y-99057007D01*
X169139037Y-99120591D01*
X168506728Y-98488282D01*
X168506727Y-98488282D01*
X168467380Y-98542439D01*
X168370904Y-98731782D01*
X168305242Y-98933869D01*
X168305242Y-98933872D01*
X168272000Y-99143753D01*
X125500500Y-99143753D01*
X125500500Y-97367682D01*
X125830000Y-97367682D01*
X125830000Y-97572317D01*
X125862009Y-97774417D01*
X125925244Y-97969031D01*
X126018141Y-98151350D01*
X126018147Y-98151359D01*
X126050523Y-98195921D01*
X126050524Y-98195922D01*
X126730000Y-97516446D01*
X126730000Y-97522661D01*
X126757259Y-97624394D01*
X126809920Y-97715606D01*
X126884394Y-97790080D01*
X126975606Y-97842741D01*
X127077339Y-97870000D01*
X127083553Y-97870000D01*
X126404076Y-98549474D01*
X126448650Y-98581859D01*
X126630968Y-98674755D01*
X126825582Y-98737990D01*
X127027683Y-98770000D01*
X127232317Y-98770000D01*
X127434417Y-98737990D01*
X127629031Y-98674755D01*
X127811349Y-98581859D01*
X127855921Y-98549474D01*
X127176447Y-97870000D01*
X127182661Y-97870000D01*
X127284394Y-97842741D01*
X127375606Y-97790080D01*
X127450080Y-97715606D01*
X127502741Y-97624394D01*
X127530000Y-97522661D01*
X127530000Y-97516447D01*
X128209474Y-98195921D01*
X128241859Y-98151349D01*
X128334755Y-97969031D01*
X128397990Y-97774417D01*
X128430000Y-97572317D01*
X128430000Y-97367682D01*
X128429995Y-97367648D01*
X133449500Y-97367648D01*
X133449500Y-97572351D01*
X133481522Y-97774534D01*
X133544781Y-97969223D01*
X133583366Y-98044949D01*
X133637585Y-98151359D01*
X133637715Y-98151613D01*
X133758028Y-98317213D01*
X133902786Y-98461971D01*
X134013543Y-98542439D01*
X134068390Y-98582287D01*
X134184607Y-98641503D01*
X134250776Y-98675218D01*
X134250778Y-98675218D01*
X134250781Y-98675220D01*
X134355137Y-98709127D01*
X134445465Y-98738477D01*
X134518218Y-98750000D01*
X134647648Y-98770500D01*
X134647649Y-98770500D01*
X134852351Y-98770500D01*
X134852352Y-98770500D01*
X135054534Y-98738477D01*
X135249219Y-98675220D01*
X135431610Y-98582287D01*
X135543567Y-98500946D01*
X135597213Y-98461971D01*
X135597215Y-98461968D01*
X135597219Y-98461966D01*
X135741966Y-98317219D01*
X135741968Y-98317215D01*
X135741971Y-98317213D01*
X135830093Y-98195921D01*
X135862287Y-98151610D01*
X135870889Y-98134728D01*
X135875494Y-98125691D01*
X135955218Y-97969223D01*
X135955218Y-97969222D01*
X135955220Y-97969219D01*
X136018477Y-97774534D01*
X136050500Y-97572352D01*
X136050500Y-97367648D01*
X136042257Y-97315606D01*
X136018477Y-97165465D01*
X135987458Y-97070000D01*
X135955220Y-96970781D01*
X135955218Y-96970778D01*
X135955218Y-96970776D01*
X135862419Y-96788650D01*
X135862287Y-96788390D01*
X135830092Y-96744077D01*
X135741971Y-96622786D01*
X135597213Y-96478028D01*
X135431613Y-96357715D01*
X135431612Y-96357714D01*
X135431610Y-96357713D01*
X135374653Y-96328691D01*
X135249223Y-96264781D01*
X135054534Y-96201522D01*
X134879995Y-96173878D01*
X134852352Y-96169500D01*
X134647648Y-96169500D01*
X134623329Y-96173351D01*
X134445465Y-96201522D01*
X134250776Y-96264781D01*
X134068386Y-96357715D01*
X133902786Y-96478028D01*
X133758028Y-96622786D01*
X133637715Y-96788386D01*
X133544781Y-96970776D01*
X133481522Y-97165465D01*
X133449500Y-97367648D01*
X128429995Y-97367648D01*
X128397990Y-97165582D01*
X128334755Y-96970968D01*
X128241859Y-96788650D01*
X128209474Y-96744077D01*
X128209474Y-96744076D01*
X127530000Y-97423551D01*
X127530000Y-97417339D01*
X127502741Y-97315606D01*
X127450080Y-97224394D01*
X127375606Y-97149920D01*
X127284394Y-97097259D01*
X127182661Y-97070000D01*
X127176446Y-97070000D01*
X127855922Y-96390524D01*
X127855921Y-96390523D01*
X127811359Y-96358147D01*
X127811350Y-96358141D01*
X127629031Y-96265244D01*
X127434417Y-96202009D01*
X127232317Y-96170000D01*
X127027683Y-96170000D01*
X126825582Y-96202009D01*
X126630968Y-96265244D01*
X126448644Y-96358143D01*
X126404077Y-96390523D01*
X126404077Y-96390524D01*
X127083554Y-97070000D01*
X127077339Y-97070000D01*
X126975606Y-97097259D01*
X126884394Y-97149920D01*
X126809920Y-97224394D01*
X126757259Y-97315606D01*
X126730000Y-97417339D01*
X126730000Y-97423553D01*
X126050524Y-96744077D01*
X126050523Y-96744077D01*
X126018143Y-96788644D01*
X125925244Y-96970968D01*
X125862009Y-97165582D01*
X125830000Y-97367682D01*
X125500500Y-97367682D01*
X125500500Y-92002155D01*
X140875000Y-92002155D01*
X140875000Y-92700000D01*
X141899722Y-92700000D01*
X141855667Y-92776306D01*
X141825000Y-92890756D01*
X141825000Y-93009244D01*
X141855667Y-93123694D01*
X141899722Y-93200000D01*
X140875000Y-93200000D01*
X140875000Y-93897844D01*
X140881401Y-93957372D01*
X140881403Y-93957379D01*
X140931645Y-94092086D01*
X140931649Y-94092093D01*
X141017809Y-94207187D01*
X141017812Y-94207190D01*
X141132906Y-94293350D01*
X141132913Y-94293354D01*
X141267620Y-94343596D01*
X141267627Y-94343598D01*
X141327155Y-94349999D01*
X141327172Y-94350000D01*
X142025000Y-94350000D01*
X142025000Y-93325277D01*
X142101306Y-93369333D01*
X142215756Y-93400000D01*
X142334244Y-93400000D01*
X142448694Y-93369333D01*
X142525000Y-93325277D01*
X142525000Y-94350000D01*
X143222828Y-94350000D01*
X143222844Y-94349999D01*
X143282372Y-94343598D01*
X143282379Y-94343596D01*
X143417086Y-94293354D01*
X143417093Y-94293350D01*
X143532187Y-94207190D01*
X143532190Y-94207187D01*
X143618350Y-94092093D01*
X143618354Y-94092086D01*
X143648213Y-94012031D01*
X143690084Y-93956097D01*
X143755548Y-93931680D01*
X143823821Y-93946531D01*
X143852076Y-93967683D01*
X143902636Y-94018243D01*
X143902641Y-94018247D01*
X144058192Y-94131260D01*
X144080978Y-94147815D01*
X144174011Y-94195218D01*
X144277393Y-94247895D01*
X144277396Y-94247896D01*
X144382221Y-94281955D01*
X144487049Y-94316015D01*
X144704778Y-94350500D01*
X144704779Y-94350500D01*
X144925221Y-94350500D01*
X144925222Y-94350500D01*
X145142951Y-94316015D01*
X145352606Y-94247895D01*
X145549022Y-94147815D01*
X145727365Y-94018242D01*
X145883242Y-93862365D01*
X146012815Y-93684022D01*
X146112895Y-93487606D01*
X146181015Y-93277951D01*
X146215500Y-93060222D01*
X146215500Y-92887648D01*
X151629500Y-92887648D01*
X151629500Y-93092351D01*
X151661522Y-93294534D01*
X151724781Y-93489223D01*
X151817715Y-93671613D01*
X151938028Y-93837213D01*
X152082786Y-93981971D01*
X152234349Y-94092086D01*
X152248390Y-94102287D01*
X152337738Y-94147812D01*
X152430776Y-94195218D01*
X152430778Y-94195218D01*
X152430781Y-94195220D01*
X152535137Y-94229127D01*
X152625465Y-94258477D01*
X152726557Y-94274488D01*
X152827648Y-94290500D01*
X152827649Y-94290500D01*
X153032351Y-94290500D01*
X153032352Y-94290500D01*
X153234534Y-94258477D01*
X153429219Y-94195220D01*
X153611610Y-94102287D01*
X153735838Y-94012031D01*
X153777213Y-93981971D01*
X153777215Y-93981968D01*
X153777219Y-93981966D01*
X153921966Y-93837219D01*
X153921968Y-93837215D01*
X153921971Y-93837213D01*
X153974732Y-93764590D01*
X154042287Y-93671610D01*
X154135220Y-93489219D01*
X154198477Y-93294534D01*
X154230500Y-93092352D01*
X154230500Y-92887648D01*
X159249500Y-92887648D01*
X159249500Y-93092351D01*
X159281522Y-93294534D01*
X159344781Y-93489223D01*
X159437715Y-93671613D01*
X159558028Y-93837213D01*
X159702786Y-93981971D01*
X159854349Y-94092086D01*
X159868390Y-94102287D01*
X159957738Y-94147812D01*
X160050776Y-94195218D01*
X160050778Y-94195218D01*
X160050781Y-94195220D01*
X160155137Y-94229127D01*
X160245465Y-94258477D01*
X160346557Y-94274488D01*
X160447648Y-94290500D01*
X160447649Y-94290500D01*
X160652351Y-94290500D01*
X160652352Y-94290500D01*
X160854534Y-94258477D01*
X161049219Y-94195220D01*
X161231610Y-94102287D01*
X161355838Y-94012031D01*
X161397213Y-93981971D01*
X161397215Y-93981968D01*
X161397219Y-93981966D01*
X161541966Y-93837219D01*
X161541968Y-93837215D01*
X161541971Y-93837213D01*
X161594732Y-93764590D01*
X161662287Y-93671610D01*
X161755220Y-93489219D01*
X161818477Y-93294534D01*
X161850500Y-93092352D01*
X161850500Y-92887648D01*
X161818477Y-92685466D01*
X161755220Y-92490781D01*
X161755218Y-92490778D01*
X161755218Y-92490776D01*
X161715279Y-92412393D01*
X161662287Y-92308390D01*
X161654556Y-92297749D01*
X161541971Y-92142786D01*
X161397213Y-91998028D01*
X161231613Y-91877715D01*
X161231612Y-91877714D01*
X161231610Y-91877713D01*
X161130481Y-91826185D01*
X161049223Y-91784781D01*
X160854534Y-91721522D01*
X160673244Y-91692809D01*
X160652352Y-91689500D01*
X160447648Y-91689500D01*
X160426756Y-91692809D01*
X160245465Y-91721522D01*
X160050776Y-91784781D01*
X159868386Y-91877715D01*
X159702786Y-91998028D01*
X159558028Y-92142786D01*
X159437715Y-92308386D01*
X159344781Y-92490776D01*
X159281522Y-92685465D01*
X159249500Y-92887648D01*
X154230500Y-92887648D01*
X154198477Y-92685466D01*
X154135220Y-92490781D01*
X154135218Y-92490778D01*
X154135218Y-92490776D01*
X154095279Y-92412393D01*
X154042287Y-92308390D01*
X154034556Y-92297749D01*
X153921971Y-92142786D01*
X153777213Y-91998028D01*
X153611613Y-91877715D01*
X153611612Y-91877714D01*
X153611610Y-91877713D01*
X153510481Y-91826185D01*
X153429223Y-91784781D01*
X153234534Y-91721522D01*
X153053244Y-91692809D01*
X153032352Y-91689500D01*
X152827648Y-91689500D01*
X152806756Y-91692809D01*
X152625465Y-91721522D01*
X152430776Y-91784781D01*
X152248386Y-91877715D01*
X152082786Y-91998028D01*
X151938028Y-92142786D01*
X151817715Y-92308386D01*
X151724781Y-92490776D01*
X151661522Y-92685465D01*
X151629500Y-92887648D01*
X146215500Y-92887648D01*
X146215500Y-92839778D01*
X146181015Y-92622049D01*
X146146955Y-92517221D01*
X146112896Y-92412396D01*
X146112895Y-92412393D01*
X146078237Y-92344375D01*
X146012815Y-92215978D01*
X145959635Y-92142781D01*
X145883247Y-92037641D01*
X145883243Y-92037636D01*
X145727363Y-91881756D01*
X145727358Y-91881752D01*
X145549025Y-91752187D01*
X145549024Y-91752186D01*
X145549022Y-91752185D01*
X145479474Y-91716748D01*
X145352606Y-91652104D01*
X145352603Y-91652103D01*
X145142952Y-91583985D01*
X145034086Y-91566742D01*
X144925222Y-91549500D01*
X144704778Y-91549500D01*
X144632201Y-91560995D01*
X144487047Y-91583985D01*
X144277396Y-91652103D01*
X144277393Y-91652104D01*
X144080974Y-91752187D01*
X143902641Y-91881752D01*
X143902636Y-91881756D01*
X143852075Y-91932317D01*
X143790752Y-91965801D01*
X143721060Y-91960816D01*
X143665127Y-91918945D01*
X143648213Y-91887968D01*
X143618354Y-91807913D01*
X143618350Y-91807906D01*
X143532190Y-91692812D01*
X143532187Y-91692809D01*
X143417093Y-91606649D01*
X143417086Y-91606645D01*
X143282379Y-91556403D01*
X143282372Y-91556401D01*
X143222844Y-91550000D01*
X142525000Y-91550000D01*
X142525000Y-92574722D01*
X142448694Y-92530667D01*
X142334244Y-92500000D01*
X142215756Y-92500000D01*
X142101306Y-92530667D01*
X142025000Y-92574722D01*
X142025000Y-91550000D01*
X141327155Y-91550000D01*
X141267627Y-91556401D01*
X141267620Y-91556403D01*
X141132913Y-91606645D01*
X141132906Y-91606649D01*
X141017812Y-91692809D01*
X141017809Y-91692812D01*
X140931649Y-91807906D01*
X140931645Y-91807913D01*
X140881403Y-91942620D01*
X140881401Y-91942627D01*
X140875000Y-92002155D01*
X125500500Y-92002155D01*
X125500500Y-90690000D01*
X126510138Y-90690000D01*
X127313012Y-90690000D01*
X127295795Y-90699940D01*
X127239940Y-90755795D01*
X127200444Y-90824204D01*
X127180000Y-90900504D01*
X127180000Y-90979496D01*
X127200444Y-91055796D01*
X127239940Y-91124205D01*
X127295795Y-91180060D01*
X127313012Y-91190000D01*
X126510138Y-91190000D01*
X126518430Y-91231690D01*
X126518430Y-91231692D01*
X126593807Y-91413671D01*
X126593814Y-91413684D01*
X126703248Y-91577462D01*
X126703251Y-91577466D01*
X126842533Y-91716748D01*
X126842537Y-91716751D01*
X127006315Y-91826185D01*
X127006328Y-91826192D01*
X127188306Y-91901569D01*
X127188318Y-91901572D01*
X127381504Y-91939999D01*
X127381508Y-91940000D01*
X127630000Y-91940000D01*
X127630000Y-91240000D01*
X128130000Y-91240000D01*
X128130000Y-91940000D01*
X128378492Y-91940000D01*
X128378495Y-91939999D01*
X128571681Y-91901572D01*
X128571693Y-91901569D01*
X128753671Y-91826192D01*
X128753684Y-91826185D01*
X128917462Y-91716751D01*
X128917466Y-91716748D01*
X129056748Y-91577466D01*
X129056751Y-91577462D01*
X129166185Y-91413684D01*
X129166192Y-91413671D01*
X129241569Y-91231692D01*
X129241569Y-91231690D01*
X129249862Y-91190000D01*
X128446988Y-91190000D01*
X128464205Y-91180060D01*
X128520060Y-91124205D01*
X128559556Y-91055796D01*
X128580000Y-90979496D01*
X128580000Y-90900504D01*
X128559556Y-90824204D01*
X128520060Y-90755795D01*
X128464205Y-90699940D01*
X128446988Y-90690000D01*
X129249862Y-90690000D01*
X130540138Y-90690000D01*
X131343012Y-90690000D01*
X131325795Y-90699940D01*
X131269940Y-90755795D01*
X131230444Y-90824204D01*
X131210000Y-90900504D01*
X131210000Y-90979496D01*
X131230444Y-91055796D01*
X131269940Y-91124205D01*
X131325795Y-91180060D01*
X131343012Y-91190000D01*
X130540138Y-91190000D01*
X130548430Y-91231690D01*
X130548430Y-91231692D01*
X130623807Y-91413671D01*
X130623814Y-91413684D01*
X130733248Y-91577462D01*
X130733251Y-91577466D01*
X130872533Y-91716748D01*
X130872537Y-91716751D01*
X131036315Y-91826185D01*
X131036328Y-91826192D01*
X131218306Y-91901569D01*
X131218318Y-91901572D01*
X131411504Y-91939999D01*
X131411508Y-91940000D01*
X131810000Y-91940000D01*
X131810000Y-91240000D01*
X132310000Y-91240000D01*
X132310000Y-91940000D01*
X132708492Y-91940000D01*
X132708495Y-91939999D01*
X132901681Y-91901572D01*
X132901693Y-91901569D01*
X132943410Y-91884290D01*
X133083671Y-91826192D01*
X133083684Y-91826185D01*
X133247462Y-91716751D01*
X133247466Y-91716748D01*
X133386748Y-91577466D01*
X133386751Y-91577462D01*
X133496185Y-91413684D01*
X133496192Y-91413671D01*
X133571569Y-91231692D01*
X133571569Y-91231690D01*
X133579862Y-91190000D01*
X132776988Y-91190000D01*
X132794205Y-91180060D01*
X132850060Y-91124205D01*
X132889556Y-91055796D01*
X132910000Y-90979496D01*
X132910000Y-90900504D01*
X132889556Y-90824204D01*
X132850060Y-90755795D01*
X132794205Y-90699940D01*
X132776988Y-90690000D01*
X133579862Y-90690000D01*
X133571569Y-90648309D01*
X133571569Y-90648307D01*
X133496192Y-90466328D01*
X133496185Y-90466315D01*
X133386751Y-90302537D01*
X133386748Y-90302533D01*
X133247466Y-90163251D01*
X133247462Y-90163248D01*
X133083684Y-90053814D01*
X133083671Y-90053807D01*
X132901693Y-89978430D01*
X132901681Y-89978427D01*
X132708495Y-89940000D01*
X132310000Y-89940000D01*
X132310000Y-90640000D01*
X131810000Y-90640000D01*
X131810000Y-90101784D01*
X131829685Y-90034745D01*
X131872000Y-89994397D01*
X131913365Y-89970515D01*
X132020515Y-89863365D01*
X132021372Y-89861879D01*
X132041721Y-89826637D01*
X132096279Y-89732138D01*
X132096281Y-89732135D01*
X132135500Y-89585766D01*
X132135500Y-89434234D01*
X132096281Y-89287865D01*
X132020515Y-89156635D01*
X131913365Y-89049485D01*
X131847750Y-89011602D01*
X131782136Y-88973719D01*
X131708950Y-88954109D01*
X131635766Y-88934500D01*
X131484234Y-88934500D01*
X131337863Y-88973719D01*
X131206635Y-89049485D01*
X131206632Y-89049487D01*
X131099487Y-89156632D01*
X131099485Y-89156635D01*
X131023719Y-89287863D01*
X130984500Y-89434234D01*
X130984500Y-89585765D01*
X131023719Y-89732136D01*
X131063153Y-89800437D01*
X131099485Y-89863365D01*
X131099486Y-89863366D01*
X131103549Y-89870403D01*
X131101346Y-89871674D01*
X131121959Y-89924983D01*
X131107923Y-89993428D01*
X131059112Y-90043420D01*
X131045845Y-90049866D01*
X131036324Y-90053809D01*
X131036315Y-90053814D01*
X130872537Y-90163248D01*
X130872533Y-90163251D01*
X130733251Y-90302533D01*
X130733248Y-90302537D01*
X130623814Y-90466315D01*
X130623807Y-90466328D01*
X130548430Y-90648307D01*
X130548430Y-90648309D01*
X130540138Y-90690000D01*
X129249862Y-90690000D01*
X129241569Y-90648309D01*
X129241569Y-90648307D01*
X129166192Y-90466328D01*
X129166185Y-90466315D01*
X129056751Y-90302537D01*
X129056748Y-90302533D01*
X128917466Y-90163251D01*
X128917462Y-90163248D01*
X128753684Y-90053814D01*
X128753671Y-90053807D01*
X128571693Y-89978430D01*
X128571681Y-89978427D01*
X128378495Y-89940000D01*
X128130000Y-89940000D01*
X128130000Y-90640000D01*
X127630000Y-90640000D01*
X127630000Y-89940000D01*
X127381504Y-89940000D01*
X127188318Y-89978427D01*
X127188306Y-89978430D01*
X127006328Y-90053807D01*
X127006315Y-90053814D01*
X126842537Y-90163248D01*
X126842533Y-90163251D01*
X126703251Y-90302533D01*
X126703248Y-90302537D01*
X126593814Y-90466315D01*
X126593807Y-90466328D01*
X126518430Y-90648307D01*
X126518430Y-90648309D01*
X126510138Y-90690000D01*
X125500500Y-90690000D01*
X125500500Y-88291153D01*
X133469500Y-88291153D01*
X133469500Y-88448846D01*
X133500261Y-88603489D01*
X133500264Y-88603501D01*
X133560602Y-88749172D01*
X133560609Y-88749185D01*
X133648210Y-88880288D01*
X133648213Y-88880292D01*
X133759707Y-88991786D01*
X133759711Y-88991789D01*
X133890814Y-89079390D01*
X133890827Y-89079397D01*
X134036498Y-89139735D01*
X134036503Y-89139737D01*
X134191153Y-89170499D01*
X134191156Y-89170500D01*
X134191158Y-89170500D01*
X134348844Y-89170500D01*
X134348845Y-89170499D01*
X134503497Y-89139737D01*
X134649179Y-89079394D01*
X134780289Y-88991789D01*
X134891789Y-88880289D01*
X134979394Y-88749179D01*
X135039737Y-88603497D01*
X135070500Y-88448842D01*
X135070500Y-88291158D01*
X135070500Y-88291155D01*
X135070499Y-88291153D01*
X135039738Y-88136510D01*
X135039737Y-88136503D01*
X134979939Y-87992136D01*
X134970500Y-87944684D01*
X134970500Y-86210036D01*
X134990185Y-86142997D01*
X134991346Y-86141222D01*
X134999394Y-86129179D01*
X135059737Y-85983497D01*
X135090500Y-85828842D01*
X135090500Y-85671158D01*
X135090500Y-85671155D01*
X135090499Y-85671153D01*
X135059738Y-85516510D01*
X135059737Y-85516503D01*
X135059735Y-85516498D01*
X134999397Y-85370827D01*
X134999390Y-85370814D01*
X134911789Y-85239711D01*
X134911786Y-85239707D01*
X134800292Y-85128213D01*
X134800288Y-85128210D01*
X134669185Y-85040609D01*
X134669172Y-85040602D01*
X134523501Y-84980264D01*
X134523489Y-84980261D01*
X134368845Y-84949500D01*
X134368842Y-84949500D01*
X134211158Y-84949500D01*
X134211155Y-84949500D01*
X134056510Y-84980261D01*
X134056498Y-84980264D01*
X133910827Y-85040602D01*
X133910814Y-85040609D01*
X133779711Y-85128210D01*
X133779707Y-85128213D01*
X133668213Y-85239707D01*
X133668210Y-85239711D01*
X133580609Y-85370814D01*
X133580602Y-85370827D01*
X133520264Y-85516498D01*
X133520261Y-85516510D01*
X133489500Y-85671153D01*
X133489500Y-85828846D01*
X133520261Y-85983489D01*
X133520263Y-85983497D01*
X133560061Y-86079578D01*
X133569500Y-86127031D01*
X133569500Y-87944684D01*
X133560061Y-87992136D01*
X133500264Y-88136498D01*
X133500261Y-88136510D01*
X133469500Y-88291153D01*
X125500500Y-88291153D01*
X125500500Y-82050000D01*
X126510138Y-82050000D01*
X127313012Y-82050000D01*
X127295795Y-82059940D01*
X127239940Y-82115795D01*
X127200444Y-82184204D01*
X127180000Y-82260504D01*
X127180000Y-82339496D01*
X127200444Y-82415796D01*
X127239940Y-82484205D01*
X127295795Y-82540060D01*
X127313012Y-82550000D01*
X126510138Y-82550000D01*
X126518430Y-82591690D01*
X126518430Y-82591692D01*
X126593807Y-82773671D01*
X126593814Y-82773684D01*
X126703248Y-82937462D01*
X126703251Y-82937466D01*
X126842533Y-83076748D01*
X126842537Y-83076751D01*
X127006315Y-83186185D01*
X127006328Y-83186192D01*
X127188306Y-83261569D01*
X127188318Y-83261572D01*
X127381504Y-83299999D01*
X127381508Y-83300000D01*
X127630000Y-83300000D01*
X127630000Y-82600000D01*
X128130000Y-82600000D01*
X128130000Y-83300000D01*
X128378492Y-83300000D01*
X128378495Y-83299999D01*
X128571681Y-83261572D01*
X128571693Y-83261569D01*
X128753671Y-83186192D01*
X128753684Y-83186185D01*
X128917462Y-83076751D01*
X128917466Y-83076748D01*
X129056748Y-82937466D01*
X129056751Y-82937462D01*
X129166185Y-82773684D01*
X129166192Y-82773671D01*
X129241569Y-82591692D01*
X129241569Y-82591690D01*
X129249862Y-82550000D01*
X128446988Y-82550000D01*
X128464205Y-82540060D01*
X128520060Y-82484205D01*
X128559556Y-82415796D01*
X128580000Y-82339496D01*
X128580000Y-82260504D01*
X128559556Y-82184204D01*
X128520060Y-82115795D01*
X128464205Y-82059940D01*
X128446988Y-82050000D01*
X129249862Y-82050000D01*
X130540138Y-82050000D01*
X131343012Y-82050000D01*
X131325795Y-82059940D01*
X131269940Y-82115795D01*
X131230444Y-82184204D01*
X131210000Y-82260504D01*
X131210000Y-82339496D01*
X131230444Y-82415796D01*
X131269940Y-82484205D01*
X131325795Y-82540060D01*
X131343012Y-82550000D01*
X130540138Y-82550000D01*
X130548430Y-82591690D01*
X130548430Y-82591692D01*
X130623807Y-82773671D01*
X130623814Y-82773684D01*
X130733248Y-82937462D01*
X130733251Y-82937466D01*
X130872533Y-83076748D01*
X130872537Y-83076751D01*
X131036315Y-83186185D01*
X131036328Y-83186192D01*
X131045838Y-83190131D01*
X131100243Y-83233970D01*
X131122310Y-83300264D01*
X131105033Y-83367963D01*
X131101350Y-83373405D01*
X131023719Y-83507863D01*
X130984500Y-83654234D01*
X130984500Y-83805765D01*
X131023719Y-83952136D01*
X131061602Y-84017750D01*
X131099485Y-84083365D01*
X131206635Y-84190515D01*
X131337865Y-84266281D01*
X131484234Y-84305500D01*
X131484236Y-84305500D01*
X131635764Y-84305500D01*
X131635766Y-84305500D01*
X131782135Y-84266281D01*
X131913365Y-84190515D01*
X132020515Y-84083365D01*
X132096281Y-83952135D01*
X132135500Y-83805766D01*
X132135500Y-83654234D01*
X132096281Y-83507865D01*
X132020515Y-83376635D01*
X131913365Y-83269485D01*
X131899654Y-83261569D01*
X131871998Y-83245601D01*
X131823784Y-83195033D01*
X131810000Y-83138215D01*
X131810000Y-82600000D01*
X132310000Y-82600000D01*
X132310000Y-83300000D01*
X132708492Y-83300000D01*
X132708495Y-83299999D01*
X132901681Y-83261572D01*
X132901693Y-83261569D01*
X133083671Y-83186192D01*
X133083684Y-83186185D01*
X133247462Y-83076751D01*
X133247466Y-83076748D01*
X133386748Y-82937466D01*
X133386751Y-82937462D01*
X133496185Y-82773684D01*
X133496192Y-82773671D01*
X133571569Y-82591692D01*
X133571569Y-82591690D01*
X133579862Y-82550000D01*
X132776988Y-82550000D01*
X132794205Y-82540060D01*
X132850060Y-82484205D01*
X132889556Y-82415796D01*
X132910000Y-82339496D01*
X132910000Y-82260504D01*
X132889556Y-82184204D01*
X132850060Y-82115795D01*
X132794205Y-82059940D01*
X132776988Y-82050000D01*
X133579862Y-82050000D01*
X133571569Y-82008309D01*
X133571569Y-82008307D01*
X133496192Y-81826328D01*
X133496185Y-81826315D01*
X133386751Y-81662537D01*
X133386748Y-81662533D01*
X133247466Y-81523251D01*
X133247462Y-81523248D01*
X133083684Y-81413814D01*
X133083674Y-81413809D01*
X133058059Y-81403199D01*
X133058057Y-81403198D01*
X132901693Y-81338430D01*
X132901681Y-81338427D01*
X132708495Y-81300000D01*
X132310000Y-81300000D01*
X132310000Y-82000000D01*
X131810000Y-82000000D01*
X131810000Y-81300000D01*
X131411504Y-81300000D01*
X131218318Y-81338427D01*
X131218306Y-81338430D01*
X131036328Y-81413807D01*
X131036315Y-81413814D01*
X130872537Y-81523248D01*
X130872533Y-81523251D01*
X130733251Y-81662533D01*
X130733248Y-81662537D01*
X130623814Y-81826315D01*
X130623807Y-81826328D01*
X130548430Y-82008307D01*
X130548430Y-82008309D01*
X130540138Y-82050000D01*
X129249862Y-82050000D01*
X129241569Y-82008309D01*
X129241569Y-82008307D01*
X129166192Y-81826328D01*
X129166185Y-81826315D01*
X129056751Y-81662537D01*
X129056748Y-81662533D01*
X128917466Y-81523251D01*
X128917462Y-81523248D01*
X128753684Y-81413814D01*
X128753671Y-81413807D01*
X128571693Y-81338430D01*
X128571681Y-81338427D01*
X128378495Y-81300000D01*
X128130000Y-81300000D01*
X128130000Y-82000000D01*
X127630000Y-82000000D01*
X127630000Y-81300000D01*
X127381504Y-81300000D01*
X127188318Y-81338427D01*
X127188306Y-81338430D01*
X127006328Y-81413807D01*
X127006315Y-81413814D01*
X126842537Y-81523248D01*
X126842533Y-81523251D01*
X126703251Y-81662533D01*
X126703248Y-81662537D01*
X126593814Y-81826315D01*
X126593807Y-81826328D01*
X126518430Y-82008307D01*
X126518430Y-82008309D01*
X126510138Y-82050000D01*
X125500500Y-82050000D01*
X125500500Y-80142155D01*
X140555000Y-80142155D01*
X140555000Y-80840000D01*
X141579722Y-80840000D01*
X141535667Y-80916306D01*
X141505000Y-81030756D01*
X141505000Y-81149244D01*
X141535667Y-81263694D01*
X141579722Y-81340000D01*
X140555000Y-81340000D01*
X140555000Y-82037844D01*
X140561401Y-82097372D01*
X140561403Y-82097379D01*
X140611645Y-82232086D01*
X140611649Y-82232093D01*
X140697809Y-82347187D01*
X140697812Y-82347190D01*
X140812906Y-82433350D01*
X140812913Y-82433354D01*
X140947620Y-82483596D01*
X140947627Y-82483598D01*
X141007155Y-82489999D01*
X141007172Y-82490000D01*
X141705000Y-82490000D01*
X141705000Y-81465277D01*
X141781306Y-81509333D01*
X141895756Y-81540000D01*
X142014244Y-81540000D01*
X142128694Y-81509333D01*
X142205000Y-81465277D01*
X142205000Y-82490000D01*
X142902828Y-82490000D01*
X142902844Y-82489999D01*
X142962372Y-82483598D01*
X142962379Y-82483596D01*
X143097086Y-82433354D01*
X143097093Y-82433350D01*
X143212187Y-82347190D01*
X143212190Y-82347187D01*
X143298350Y-82232093D01*
X143298354Y-82232086D01*
X143328213Y-82152031D01*
X143370084Y-82096097D01*
X143435548Y-82071680D01*
X143503821Y-82086531D01*
X143532076Y-82107683D01*
X143582636Y-82158243D01*
X143582641Y-82158247D01*
X143723387Y-82260504D01*
X143760978Y-82287815D01*
X143862407Y-82339496D01*
X143957393Y-82387895D01*
X143957396Y-82387896D01*
X144043266Y-82415796D01*
X144167049Y-82456015D01*
X144384778Y-82490500D01*
X144384779Y-82490500D01*
X144605221Y-82490500D01*
X144605222Y-82490500D01*
X144822951Y-82456015D01*
X145032606Y-82387895D01*
X145229022Y-82287815D01*
X145407365Y-82158242D01*
X145563242Y-82002365D01*
X145692815Y-81824022D01*
X145792895Y-81627606D01*
X145851366Y-81447648D01*
X151659500Y-81447648D01*
X151659500Y-81652351D01*
X151691522Y-81854534D01*
X151754781Y-82049223D01*
X151847715Y-82231613D01*
X151968028Y-82397213D01*
X152112786Y-82541971D01*
X152267749Y-82654556D01*
X152278390Y-82662287D01*
X152394607Y-82721503D01*
X152460776Y-82755218D01*
X152460778Y-82755218D01*
X152460781Y-82755220D01*
X152565137Y-82789127D01*
X152655465Y-82818477D01*
X152756557Y-82834488D01*
X152857648Y-82850500D01*
X152857649Y-82850500D01*
X153062351Y-82850500D01*
X153062352Y-82850500D01*
X153264534Y-82818477D01*
X153459219Y-82755220D01*
X153641610Y-82662287D01*
X153734590Y-82594732D01*
X153807213Y-82541971D01*
X153807215Y-82541968D01*
X153807219Y-82541966D01*
X153951966Y-82397219D01*
X153951968Y-82397215D01*
X153951971Y-82397213D01*
X154051294Y-82260504D01*
X154072287Y-82231610D01*
X154165220Y-82049219D01*
X154228477Y-81854534D01*
X154260500Y-81652352D01*
X154260500Y-81447648D01*
X159279500Y-81447648D01*
X159279500Y-81652351D01*
X159311522Y-81854534D01*
X159374781Y-82049223D01*
X159467715Y-82231613D01*
X159588028Y-82397213D01*
X159732786Y-82541971D01*
X159887749Y-82654556D01*
X159898390Y-82662287D01*
X160014607Y-82721503D01*
X160080776Y-82755218D01*
X160080778Y-82755218D01*
X160080781Y-82755220D01*
X160185137Y-82789127D01*
X160275465Y-82818477D01*
X160376557Y-82834488D01*
X160477648Y-82850500D01*
X160477649Y-82850500D01*
X160682351Y-82850500D01*
X160682352Y-82850500D01*
X160884534Y-82818477D01*
X161079219Y-82755220D01*
X161261610Y-82662287D01*
X161354590Y-82594732D01*
X161427213Y-82541971D01*
X161427215Y-82541968D01*
X161427219Y-82541966D01*
X161571966Y-82397219D01*
X161571968Y-82397215D01*
X161571971Y-82397213D01*
X161671294Y-82260504D01*
X161692287Y-82231610D01*
X161785220Y-82049219D01*
X161848477Y-81854534D01*
X161880500Y-81652352D01*
X161880500Y-81447648D01*
X161873460Y-81403198D01*
X161848477Y-81245465D01*
X161785218Y-81050776D01*
X161716701Y-80916306D01*
X161692287Y-80868390D01*
X161671661Y-80840000D01*
X161571971Y-80702786D01*
X161427213Y-80558028D01*
X161261613Y-80437715D01*
X161261612Y-80437714D01*
X161261610Y-80437713D01*
X161204653Y-80408691D01*
X161079223Y-80344781D01*
X160884534Y-80281522D01*
X160709995Y-80253878D01*
X160682352Y-80249500D01*
X160477648Y-80249500D01*
X160453329Y-80253351D01*
X160275465Y-80281522D01*
X160080776Y-80344781D01*
X159898386Y-80437715D01*
X159732786Y-80558028D01*
X159588028Y-80702786D01*
X159467715Y-80868386D01*
X159374781Y-81050776D01*
X159311522Y-81245465D01*
X159279500Y-81447648D01*
X154260500Y-81447648D01*
X154241949Y-81330529D01*
X154241903Y-81330224D01*
X154246538Y-81295903D01*
X154250967Y-81261636D01*
X154251217Y-81261270D01*
X154251256Y-81260983D01*
X154252055Y-81260044D01*
X154276802Y-81223853D01*
X160014114Y-75486543D01*
X160044819Y-75440587D01*
X160090775Y-75371811D01*
X160128113Y-75281667D01*
X160143580Y-75244329D01*
X160153570Y-75194106D01*
X160170500Y-75108993D01*
X160170500Y-74380099D01*
X160190185Y-74313060D01*
X160191398Y-74311208D01*
X160268013Y-74196547D01*
X160335894Y-74032666D01*
X160337098Y-74026616D01*
X160370499Y-73858695D01*
X160370500Y-73858693D01*
X160370500Y-73703713D01*
X168271500Y-73703713D01*
X168271500Y-73916286D01*
X168300152Y-74097192D01*
X168304754Y-74126243D01*
X168350375Y-74266650D01*
X168370444Y-74328414D01*
X168466951Y-74517820D01*
X168591890Y-74689786D01*
X168742213Y-74840109D01*
X168914179Y-74965048D01*
X168914181Y-74965049D01*
X168914184Y-74965051D01*
X169103588Y-75061557D01*
X169305757Y-75127246D01*
X169515713Y-75160500D01*
X169515714Y-75160500D01*
X169728286Y-75160500D01*
X169728287Y-75160500D01*
X169938243Y-75127246D01*
X170140412Y-75061557D01*
X170329816Y-74965051D01*
X170429902Y-74892335D01*
X170501786Y-74840109D01*
X170501788Y-74840106D01*
X170501792Y-74840104D01*
X170652104Y-74689792D01*
X170652106Y-74689788D01*
X170652109Y-74689786D01*
X170740902Y-74567571D01*
X170777051Y-74517816D01*
X170784061Y-74504057D01*
X170832032Y-74453261D01*
X170899852Y-74436463D01*
X170965988Y-74458997D01*
X171005030Y-74504051D01*
X171006949Y-74507817D01*
X171131890Y-74679786D01*
X171282213Y-74830109D01*
X171454179Y-74955048D01*
X171454181Y-74955049D01*
X171454184Y-74955051D01*
X171643588Y-75051557D01*
X171845757Y-75117246D01*
X172055713Y-75150500D01*
X172055714Y-75150500D01*
X172268286Y-75150500D01*
X172268287Y-75150500D01*
X172478243Y-75117246D01*
X172680412Y-75051557D01*
X172869816Y-74955051D01*
X172956138Y-74892335D01*
X173041786Y-74830109D01*
X173041788Y-74830106D01*
X173041792Y-74830104D01*
X173192104Y-74679792D01*
X173192106Y-74679788D01*
X173192109Y-74679786D01*
X173317048Y-74507820D01*
X173317050Y-74507817D01*
X173317051Y-74507816D01*
X173321514Y-74499054D01*
X173369488Y-74448259D01*
X173437308Y-74431463D01*
X173503444Y-74453999D01*
X173542486Y-74499056D01*
X173546951Y-74507820D01*
X173671890Y-74679786D01*
X173822213Y-74830109D01*
X173994179Y-74955048D01*
X173994181Y-74955049D01*
X173994184Y-74955051D01*
X174183588Y-75051557D01*
X174385757Y-75117246D01*
X174595713Y-75150500D01*
X174595714Y-75150500D01*
X174808286Y-75150500D01*
X174808287Y-75150500D01*
X175018243Y-75117246D01*
X175220412Y-75051557D01*
X175409816Y-74955051D01*
X175496138Y-74892335D01*
X175581786Y-74830109D01*
X175581788Y-74830106D01*
X175581792Y-74830104D01*
X175732104Y-74679792D01*
X175732106Y-74679788D01*
X175732109Y-74679786D01*
X175857048Y-74507820D01*
X175857050Y-74507817D01*
X175857051Y-74507816D01*
X175861514Y-74499054D01*
X175909488Y-74448259D01*
X175977308Y-74431463D01*
X176043444Y-74453999D01*
X176082486Y-74499056D01*
X176086951Y-74507820D01*
X176211890Y-74679786D01*
X176362213Y-74830109D01*
X176534179Y-74955048D01*
X176534181Y-74955049D01*
X176534184Y-74955051D01*
X176723588Y-75051557D01*
X176925757Y-75117246D01*
X177135713Y-75150500D01*
X177135714Y-75150500D01*
X177348286Y-75150500D01*
X177348287Y-75150500D01*
X177558243Y-75117246D01*
X177760412Y-75051557D01*
X177949816Y-74955051D01*
X178036138Y-74892335D01*
X178121786Y-74830109D01*
X178121788Y-74830106D01*
X178121792Y-74830104D01*
X178272104Y-74679792D01*
X178272106Y-74679788D01*
X178272109Y-74679786D01*
X178397048Y-74507820D01*
X178397050Y-74507817D01*
X178397051Y-74507816D01*
X178401514Y-74499054D01*
X178449488Y-74448259D01*
X178517308Y-74431463D01*
X178583444Y-74453999D01*
X178622486Y-74499056D01*
X178626951Y-74507820D01*
X178751890Y-74679786D01*
X178902213Y-74830109D01*
X179074179Y-74955048D01*
X179074181Y-74955049D01*
X179074184Y-74955051D01*
X179263588Y-75051557D01*
X179465757Y-75117246D01*
X179675713Y-75150500D01*
X179675714Y-75150500D01*
X179888286Y-75150500D01*
X179888287Y-75150500D01*
X180098243Y-75117246D01*
X180300412Y-75051557D01*
X180489816Y-74955051D01*
X180576138Y-74892335D01*
X180661786Y-74830109D01*
X180661788Y-74830106D01*
X180661792Y-74830104D01*
X180812104Y-74679792D01*
X180812106Y-74679788D01*
X180812109Y-74679786D01*
X180937048Y-74507820D01*
X180937050Y-74507817D01*
X180937051Y-74507816D01*
X180941514Y-74499054D01*
X180989488Y-74448259D01*
X181057308Y-74431463D01*
X181123444Y-74453999D01*
X181162486Y-74499056D01*
X181166951Y-74507820D01*
X181291890Y-74679786D01*
X181442213Y-74830109D01*
X181614179Y-74955048D01*
X181614181Y-74955049D01*
X181614184Y-74955051D01*
X181803588Y-75051557D01*
X182005757Y-75117246D01*
X182215713Y-75150500D01*
X182215714Y-75150500D01*
X182428286Y-75150500D01*
X182428287Y-75150500D01*
X182638243Y-75117246D01*
X182840412Y-75051557D01*
X183029816Y-74955051D01*
X183116138Y-74892335D01*
X183201786Y-74830109D01*
X183201788Y-74830106D01*
X183201792Y-74830104D01*
X183352104Y-74679792D01*
X183352106Y-74679788D01*
X183352109Y-74679786D01*
X183477048Y-74507820D01*
X183477050Y-74507817D01*
X183477051Y-74507816D01*
X183481514Y-74499054D01*
X183529488Y-74448259D01*
X183597308Y-74431463D01*
X183663444Y-74453999D01*
X183702486Y-74499056D01*
X183706951Y-74507820D01*
X183831890Y-74679786D01*
X183982213Y-74830109D01*
X184154179Y-74955048D01*
X184154181Y-74955049D01*
X184154184Y-74955051D01*
X184343588Y-75051557D01*
X184545757Y-75117246D01*
X184755713Y-75150500D01*
X184755714Y-75150500D01*
X184968286Y-75150500D01*
X184968287Y-75150500D01*
X185178243Y-75117246D01*
X185380412Y-75051557D01*
X185569816Y-74955051D01*
X185656138Y-74892335D01*
X185741786Y-74830109D01*
X185741788Y-74830106D01*
X185741792Y-74830104D01*
X185892104Y-74679792D01*
X185892106Y-74679788D01*
X185892109Y-74679786D01*
X186017048Y-74507820D01*
X186017050Y-74507817D01*
X186017051Y-74507816D01*
X186021514Y-74499054D01*
X186069488Y-74448259D01*
X186137308Y-74431463D01*
X186203444Y-74453999D01*
X186242486Y-74499056D01*
X186246951Y-74507820D01*
X186371890Y-74679786D01*
X186522213Y-74830109D01*
X186694179Y-74955048D01*
X186694181Y-74955049D01*
X186694184Y-74955051D01*
X186883588Y-75051557D01*
X187085757Y-75117246D01*
X187295713Y-75150500D01*
X187295714Y-75150500D01*
X187508286Y-75150500D01*
X187508287Y-75150500D01*
X187718243Y-75117246D01*
X187920412Y-75051557D01*
X188109816Y-74955051D01*
X188196138Y-74892335D01*
X188281786Y-74830109D01*
X188281788Y-74830106D01*
X188281792Y-74830104D01*
X188432104Y-74679792D01*
X188432106Y-74679788D01*
X188432109Y-74679786D01*
X188557048Y-74507820D01*
X188557050Y-74507817D01*
X188557051Y-74507816D01*
X188561514Y-74499054D01*
X188609488Y-74448259D01*
X188677308Y-74431463D01*
X188743444Y-74453999D01*
X188782486Y-74499056D01*
X188786951Y-74507820D01*
X188911890Y-74679786D01*
X189062213Y-74830109D01*
X189234179Y-74955048D01*
X189234181Y-74955049D01*
X189234184Y-74955051D01*
X189423588Y-75051557D01*
X189625757Y-75117246D01*
X189835713Y-75150500D01*
X189835714Y-75150500D01*
X190048286Y-75150500D01*
X190048287Y-75150500D01*
X190258243Y-75117246D01*
X190460412Y-75051557D01*
X190649816Y-74955051D01*
X190736138Y-74892335D01*
X190821786Y-74830109D01*
X190821788Y-74830106D01*
X190821792Y-74830104D01*
X190972104Y-74679792D01*
X190972106Y-74679788D01*
X190972109Y-74679786D01*
X191097048Y-74507820D01*
X191097050Y-74507817D01*
X191097051Y-74507816D01*
X191101514Y-74499054D01*
X191149488Y-74448259D01*
X191217308Y-74431463D01*
X191283444Y-74453999D01*
X191322486Y-74499056D01*
X191326951Y-74507820D01*
X191451890Y-74679786D01*
X191602213Y-74830109D01*
X191774179Y-74955048D01*
X191774181Y-74955049D01*
X191774184Y-74955051D01*
X191963588Y-75051557D01*
X192165757Y-75117246D01*
X192375713Y-75150500D01*
X192375714Y-75150500D01*
X192588286Y-75150500D01*
X192588287Y-75150500D01*
X192798243Y-75117246D01*
X193000412Y-75051557D01*
X193189816Y-74955051D01*
X193276138Y-74892335D01*
X193361786Y-74830109D01*
X193361788Y-74830106D01*
X193361792Y-74830104D01*
X193512104Y-74679792D01*
X193512106Y-74679788D01*
X193512109Y-74679786D01*
X193637048Y-74507820D01*
X193637050Y-74507817D01*
X193637051Y-74507816D01*
X193641514Y-74499054D01*
X193689488Y-74448259D01*
X193757308Y-74431463D01*
X193823444Y-74453999D01*
X193862486Y-74499056D01*
X193866951Y-74507820D01*
X193991890Y-74679786D01*
X194142213Y-74830109D01*
X194314179Y-74955048D01*
X194314181Y-74955049D01*
X194314184Y-74955051D01*
X194503588Y-75051557D01*
X194705757Y-75117246D01*
X194915713Y-75150500D01*
X194915714Y-75150500D01*
X195128286Y-75150500D01*
X195128287Y-75150500D01*
X195338243Y-75117246D01*
X195540412Y-75051557D01*
X195729816Y-74955051D01*
X195816138Y-74892335D01*
X195901786Y-74830109D01*
X195901788Y-74830106D01*
X195901792Y-74830104D01*
X196052104Y-74679792D01*
X196052106Y-74679788D01*
X196052109Y-74679786D01*
X196177048Y-74507820D01*
X196177050Y-74507817D01*
X196177051Y-74507816D01*
X196181514Y-74499054D01*
X196229488Y-74448259D01*
X196297308Y-74431463D01*
X196363444Y-74453999D01*
X196402486Y-74499056D01*
X196406951Y-74507820D01*
X196531890Y-74679786D01*
X196682213Y-74830109D01*
X196854179Y-74955048D01*
X196854181Y-74955049D01*
X196854184Y-74955051D01*
X197043588Y-75051557D01*
X197245757Y-75117246D01*
X197455713Y-75150500D01*
X197455714Y-75150500D01*
X197668286Y-75150500D01*
X197668287Y-75150500D01*
X197878243Y-75117246D01*
X198080412Y-75051557D01*
X198269816Y-74955051D01*
X198356138Y-74892335D01*
X198441786Y-74830109D01*
X198441788Y-74830106D01*
X198441792Y-74830104D01*
X198592104Y-74679792D01*
X198592106Y-74679788D01*
X198592109Y-74679786D01*
X198717048Y-74507820D01*
X198717050Y-74507817D01*
X198717051Y-74507816D01*
X198721514Y-74499054D01*
X198769488Y-74448259D01*
X198837308Y-74431463D01*
X198903444Y-74453999D01*
X198942486Y-74499056D01*
X198946951Y-74507820D01*
X199071890Y-74679786D01*
X199222213Y-74830109D01*
X199394179Y-74955048D01*
X199394181Y-74955049D01*
X199394184Y-74955051D01*
X199583588Y-75051557D01*
X199785757Y-75117246D01*
X199995713Y-75150500D01*
X199995714Y-75150500D01*
X200208286Y-75150500D01*
X200208287Y-75150500D01*
X200418243Y-75117246D01*
X200620412Y-75051557D01*
X200809816Y-74955051D01*
X200896138Y-74892335D01*
X200981786Y-74830109D01*
X200981788Y-74830106D01*
X200981792Y-74830104D01*
X201132104Y-74679792D01*
X201132106Y-74679788D01*
X201132109Y-74679786D01*
X201257048Y-74507820D01*
X201257050Y-74507817D01*
X201257051Y-74507816D01*
X201261514Y-74499054D01*
X201309488Y-74448259D01*
X201377308Y-74431463D01*
X201443444Y-74453999D01*
X201482486Y-74499056D01*
X201486951Y-74507820D01*
X201611890Y-74679786D01*
X201762213Y-74830109D01*
X201934179Y-74955048D01*
X201934181Y-74955049D01*
X201934184Y-74955051D01*
X202123588Y-75051557D01*
X202325757Y-75117246D01*
X202535713Y-75150500D01*
X202535714Y-75150500D01*
X202748286Y-75150500D01*
X202748287Y-75150500D01*
X202958243Y-75117246D01*
X203160412Y-75051557D01*
X203349816Y-74955051D01*
X203436138Y-74892335D01*
X203521786Y-74830109D01*
X203521788Y-74830106D01*
X203521792Y-74830104D01*
X203672104Y-74679792D01*
X203672106Y-74679788D01*
X203672109Y-74679786D01*
X203797048Y-74507820D01*
X203797050Y-74507817D01*
X203797051Y-74507816D01*
X203801514Y-74499054D01*
X203849488Y-74448259D01*
X203917308Y-74431463D01*
X203983444Y-74453999D01*
X204022486Y-74499056D01*
X204026951Y-74507820D01*
X204151890Y-74679786D01*
X204302213Y-74830109D01*
X204474179Y-74955048D01*
X204474181Y-74955049D01*
X204474184Y-74955051D01*
X204663588Y-75051557D01*
X204865757Y-75117246D01*
X205075713Y-75150500D01*
X205075714Y-75150500D01*
X205288286Y-75150500D01*
X205288287Y-75150500D01*
X205498243Y-75117246D01*
X205700412Y-75051557D01*
X205889816Y-74955051D01*
X205976138Y-74892335D01*
X206061786Y-74830109D01*
X206061788Y-74830106D01*
X206061792Y-74830104D01*
X206212104Y-74679792D01*
X206212106Y-74679788D01*
X206212109Y-74679786D01*
X206337048Y-74507820D01*
X206337050Y-74507817D01*
X206337051Y-74507816D01*
X206341514Y-74499054D01*
X206389488Y-74448259D01*
X206457308Y-74431463D01*
X206523444Y-74453999D01*
X206562486Y-74499056D01*
X206566951Y-74507820D01*
X206691890Y-74679786D01*
X206842213Y-74830109D01*
X207014179Y-74955048D01*
X207014181Y-74955049D01*
X207014184Y-74955051D01*
X207203588Y-75051557D01*
X207405757Y-75117246D01*
X207615713Y-75150500D01*
X207615714Y-75150500D01*
X207828286Y-75150500D01*
X207828287Y-75150500D01*
X208038243Y-75117246D01*
X208240412Y-75051557D01*
X208429816Y-74955051D01*
X208516138Y-74892335D01*
X208601786Y-74830109D01*
X208601788Y-74830106D01*
X208601792Y-74830104D01*
X208752104Y-74679792D01*
X208752106Y-74679788D01*
X208752109Y-74679786D01*
X208877048Y-74507820D01*
X208877050Y-74507817D01*
X208877051Y-74507816D01*
X208881514Y-74499054D01*
X208929488Y-74448259D01*
X208997308Y-74431463D01*
X209063444Y-74453999D01*
X209102486Y-74499056D01*
X209106951Y-74507820D01*
X209231890Y-74679786D01*
X209382213Y-74830109D01*
X209554179Y-74955048D01*
X209554181Y-74955049D01*
X209554184Y-74955051D01*
X209743588Y-75051557D01*
X209945757Y-75117246D01*
X210155713Y-75150500D01*
X210155714Y-75150500D01*
X210368286Y-75150500D01*
X210368287Y-75150500D01*
X210578243Y-75117246D01*
X210780412Y-75051557D01*
X210969816Y-74955051D01*
X211056138Y-74892335D01*
X211141786Y-74830109D01*
X211141788Y-74830106D01*
X211141792Y-74830104D01*
X211292104Y-74679792D01*
X211292106Y-74679788D01*
X211292109Y-74679786D01*
X211417048Y-74507820D01*
X211417050Y-74507817D01*
X211417051Y-74507816D01*
X211421514Y-74499054D01*
X211469488Y-74448259D01*
X211537308Y-74431463D01*
X211603444Y-74453999D01*
X211642486Y-74499056D01*
X211646951Y-74507820D01*
X211771890Y-74679786D01*
X211922213Y-74830109D01*
X212094179Y-74955048D01*
X212094181Y-74955049D01*
X212094184Y-74955051D01*
X212283588Y-75051557D01*
X212485757Y-75117246D01*
X212695713Y-75150500D01*
X212695714Y-75150500D01*
X212908286Y-75150500D01*
X212908287Y-75150500D01*
X213118243Y-75117246D01*
X213320412Y-75051557D01*
X213509816Y-74955051D01*
X213596138Y-74892335D01*
X213681786Y-74830109D01*
X213681788Y-74830106D01*
X213681792Y-74830104D01*
X213832104Y-74679792D01*
X213832106Y-74679788D01*
X213832109Y-74679786D01*
X213957048Y-74507820D01*
X213957050Y-74507817D01*
X213957051Y-74507816D01*
X213961514Y-74499054D01*
X214009488Y-74448259D01*
X214077308Y-74431463D01*
X214143444Y-74453999D01*
X214182486Y-74499056D01*
X214186951Y-74507820D01*
X214311890Y-74679786D01*
X214462213Y-74830109D01*
X214634179Y-74955048D01*
X214634181Y-74955049D01*
X214634184Y-74955051D01*
X214823588Y-75051557D01*
X215025757Y-75117246D01*
X215235713Y-75150500D01*
X215235714Y-75150500D01*
X215448286Y-75150500D01*
X215448287Y-75150500D01*
X215658243Y-75117246D01*
X215860412Y-75051557D01*
X216049816Y-74955051D01*
X216221792Y-74830104D01*
X216335329Y-74716566D01*
X216396648Y-74683084D01*
X216466340Y-74688068D01*
X216522274Y-74729939D01*
X216539189Y-74760917D01*
X216588202Y-74892328D01*
X216588206Y-74892335D01*
X216674452Y-75007544D01*
X216674455Y-75007547D01*
X216789664Y-75093793D01*
X216789671Y-75093797D01*
X216924517Y-75144091D01*
X216924516Y-75144091D01*
X216931444Y-75144835D01*
X216984127Y-75150500D01*
X218779872Y-75150499D01*
X218839483Y-75144091D01*
X218974331Y-75093796D01*
X219089546Y-75007546D01*
X219175796Y-74892331D01*
X219226091Y-74757483D01*
X219232500Y-74697873D01*
X219232499Y-72902128D01*
X219226091Y-72842517D01*
X219224810Y-72839083D01*
X219175797Y-72707671D01*
X219175793Y-72707664D01*
X219089547Y-72592455D01*
X219089544Y-72592452D01*
X218974335Y-72506206D01*
X218974328Y-72506202D01*
X218839482Y-72455908D01*
X218839483Y-72455908D01*
X218779883Y-72449501D01*
X218779881Y-72449500D01*
X218779873Y-72449500D01*
X218779864Y-72449500D01*
X216984129Y-72449500D01*
X216984123Y-72449501D01*
X216924516Y-72455908D01*
X216789671Y-72506202D01*
X216789664Y-72506206D01*
X216674455Y-72592452D01*
X216674452Y-72592455D01*
X216588206Y-72707664D01*
X216588203Y-72707669D01*
X216539189Y-72839083D01*
X216497317Y-72895016D01*
X216431853Y-72919433D01*
X216363580Y-72904581D01*
X216335326Y-72883430D01*
X216221786Y-72769890D01*
X216049820Y-72644951D01*
X215860414Y-72548444D01*
X215860413Y-72548443D01*
X215860412Y-72548443D01*
X215658243Y-72482754D01*
X215658241Y-72482753D01*
X215658240Y-72482753D01*
X215496957Y-72457208D01*
X215448287Y-72449500D01*
X215235713Y-72449500D01*
X215187042Y-72457208D01*
X215025760Y-72482753D01*
X214823585Y-72548444D01*
X214634179Y-72644951D01*
X214462213Y-72769890D01*
X214311890Y-72920213D01*
X214186949Y-73092182D01*
X214182484Y-73100946D01*
X214134509Y-73151742D01*
X214066688Y-73168536D01*
X214000553Y-73145998D01*
X213961516Y-73100946D01*
X213957050Y-73092182D01*
X213832109Y-72920213D01*
X213681786Y-72769890D01*
X213509820Y-72644951D01*
X213320414Y-72548444D01*
X213320413Y-72548443D01*
X213320412Y-72548443D01*
X213118243Y-72482754D01*
X213118241Y-72482753D01*
X213118240Y-72482753D01*
X212956957Y-72457208D01*
X212908287Y-72449500D01*
X212695713Y-72449500D01*
X212647042Y-72457208D01*
X212485760Y-72482753D01*
X212283585Y-72548444D01*
X212094179Y-72644951D01*
X211922213Y-72769890D01*
X211771890Y-72920213D01*
X211646949Y-73092182D01*
X211642484Y-73100946D01*
X211594509Y-73151742D01*
X211526688Y-73168536D01*
X211460553Y-73145998D01*
X211421516Y-73100946D01*
X211417050Y-73092182D01*
X211292109Y-72920213D01*
X211141786Y-72769890D01*
X210969820Y-72644951D01*
X210780414Y-72548444D01*
X210780413Y-72548443D01*
X210780412Y-72548443D01*
X210578243Y-72482754D01*
X210578241Y-72482753D01*
X210578240Y-72482753D01*
X210416957Y-72457208D01*
X210368287Y-72449500D01*
X210155713Y-72449500D01*
X210107042Y-72457208D01*
X209945760Y-72482753D01*
X209743585Y-72548444D01*
X209554179Y-72644951D01*
X209382213Y-72769890D01*
X209231890Y-72920213D01*
X209106949Y-73092182D01*
X209102484Y-73100946D01*
X209054509Y-73151742D01*
X208986688Y-73168536D01*
X208920553Y-73145998D01*
X208881516Y-73100946D01*
X208877050Y-73092182D01*
X208752109Y-72920213D01*
X208601786Y-72769890D01*
X208429820Y-72644951D01*
X208240414Y-72548444D01*
X208240413Y-72548443D01*
X208240412Y-72548443D01*
X208038243Y-72482754D01*
X208038241Y-72482753D01*
X208038240Y-72482753D01*
X207876957Y-72457208D01*
X207828287Y-72449500D01*
X207615713Y-72449500D01*
X207567042Y-72457208D01*
X207405760Y-72482753D01*
X207203585Y-72548444D01*
X207014179Y-72644951D01*
X206842213Y-72769890D01*
X206691890Y-72920213D01*
X206566949Y-73092182D01*
X206562484Y-73100946D01*
X206514509Y-73151742D01*
X206446688Y-73168536D01*
X206380553Y-73145998D01*
X206341516Y-73100946D01*
X206337050Y-73092182D01*
X206212109Y-72920213D01*
X206061786Y-72769890D01*
X205889820Y-72644951D01*
X205700414Y-72548444D01*
X205700413Y-72548443D01*
X205700412Y-72548443D01*
X205498243Y-72482754D01*
X205498241Y-72482753D01*
X205498240Y-72482753D01*
X205336957Y-72457208D01*
X205288287Y-72449500D01*
X205075713Y-72449500D01*
X205027042Y-72457208D01*
X204865760Y-72482753D01*
X204663585Y-72548444D01*
X204474179Y-72644951D01*
X204302213Y-72769890D01*
X204151890Y-72920213D01*
X204026949Y-73092182D01*
X204022484Y-73100946D01*
X203974509Y-73151742D01*
X203906688Y-73168536D01*
X203840553Y-73145998D01*
X203801516Y-73100946D01*
X203797050Y-73092182D01*
X203672109Y-72920213D01*
X203521786Y-72769890D01*
X203349820Y-72644951D01*
X203160414Y-72548444D01*
X203160413Y-72548443D01*
X203160412Y-72548443D01*
X202958243Y-72482754D01*
X202958241Y-72482753D01*
X202958240Y-72482753D01*
X202796957Y-72457208D01*
X202748287Y-72449500D01*
X202535713Y-72449500D01*
X202487042Y-72457208D01*
X202325760Y-72482753D01*
X202123585Y-72548444D01*
X201934179Y-72644951D01*
X201762213Y-72769890D01*
X201611890Y-72920213D01*
X201486949Y-73092182D01*
X201482484Y-73100946D01*
X201434509Y-73151742D01*
X201366688Y-73168536D01*
X201300553Y-73145998D01*
X201261516Y-73100946D01*
X201257050Y-73092182D01*
X201132109Y-72920213D01*
X200981786Y-72769890D01*
X200809820Y-72644951D01*
X200620414Y-72548444D01*
X200620413Y-72548443D01*
X200620412Y-72548443D01*
X200418243Y-72482754D01*
X200418241Y-72482753D01*
X200418240Y-72482753D01*
X200256957Y-72457208D01*
X200208287Y-72449500D01*
X199995713Y-72449500D01*
X199947042Y-72457208D01*
X199785760Y-72482753D01*
X199583585Y-72548444D01*
X199394179Y-72644951D01*
X199222213Y-72769890D01*
X199071890Y-72920213D01*
X198946949Y-73092182D01*
X198942484Y-73100946D01*
X198894509Y-73151742D01*
X198826688Y-73168536D01*
X198760553Y-73145998D01*
X198721516Y-73100946D01*
X198717050Y-73092182D01*
X198592109Y-72920213D01*
X198441786Y-72769890D01*
X198269820Y-72644951D01*
X198080414Y-72548444D01*
X198080413Y-72548443D01*
X198080412Y-72548443D01*
X197878243Y-72482754D01*
X197878241Y-72482753D01*
X197878240Y-72482753D01*
X197716957Y-72457208D01*
X197668287Y-72449500D01*
X197455713Y-72449500D01*
X197407042Y-72457208D01*
X197245760Y-72482753D01*
X197043585Y-72548444D01*
X196854179Y-72644951D01*
X196682213Y-72769890D01*
X196531890Y-72920213D01*
X196406949Y-73092182D01*
X196402484Y-73100946D01*
X196354509Y-73151742D01*
X196286688Y-73168536D01*
X196220553Y-73145998D01*
X196181516Y-73100946D01*
X196177050Y-73092182D01*
X196052109Y-72920213D01*
X195901786Y-72769890D01*
X195729820Y-72644951D01*
X195540414Y-72548444D01*
X195540413Y-72548443D01*
X195540412Y-72548443D01*
X195338243Y-72482754D01*
X195338241Y-72482753D01*
X195338240Y-72482753D01*
X195176957Y-72457208D01*
X195128287Y-72449500D01*
X194915713Y-72449500D01*
X194867042Y-72457208D01*
X194705760Y-72482753D01*
X194503585Y-72548444D01*
X194314179Y-72644951D01*
X194142213Y-72769890D01*
X193991890Y-72920213D01*
X193866949Y-73092182D01*
X193862484Y-73100946D01*
X193814509Y-73151742D01*
X193746688Y-73168536D01*
X193680553Y-73145998D01*
X193641516Y-73100946D01*
X193637050Y-73092182D01*
X193512109Y-72920213D01*
X193361786Y-72769890D01*
X193189820Y-72644951D01*
X193000414Y-72548444D01*
X193000413Y-72548443D01*
X193000412Y-72548443D01*
X192798243Y-72482754D01*
X192798241Y-72482753D01*
X192798240Y-72482753D01*
X192636957Y-72457208D01*
X192588287Y-72449500D01*
X192375713Y-72449500D01*
X192327042Y-72457208D01*
X192165760Y-72482753D01*
X191963585Y-72548444D01*
X191774179Y-72644951D01*
X191602213Y-72769890D01*
X191451890Y-72920213D01*
X191326949Y-73092182D01*
X191322484Y-73100946D01*
X191274509Y-73151742D01*
X191206688Y-73168536D01*
X191140553Y-73145998D01*
X191101516Y-73100946D01*
X191097050Y-73092182D01*
X190972109Y-72920213D01*
X190821786Y-72769890D01*
X190649820Y-72644951D01*
X190460414Y-72548444D01*
X190460413Y-72548443D01*
X190460412Y-72548443D01*
X190258243Y-72482754D01*
X190258241Y-72482753D01*
X190258240Y-72482753D01*
X190096957Y-72457208D01*
X190048287Y-72449500D01*
X189835713Y-72449500D01*
X189787042Y-72457208D01*
X189625760Y-72482753D01*
X189423585Y-72548444D01*
X189234179Y-72644951D01*
X189062213Y-72769890D01*
X188911890Y-72920213D01*
X188786949Y-73092182D01*
X188782484Y-73100946D01*
X188734509Y-73151742D01*
X188666688Y-73168536D01*
X188600553Y-73145998D01*
X188561516Y-73100946D01*
X188557050Y-73092182D01*
X188432109Y-72920213D01*
X188281786Y-72769890D01*
X188109820Y-72644951D01*
X187920414Y-72548444D01*
X187920413Y-72548443D01*
X187920412Y-72548443D01*
X187718243Y-72482754D01*
X187718241Y-72482753D01*
X187718240Y-72482753D01*
X187556957Y-72457208D01*
X187508287Y-72449500D01*
X187295713Y-72449500D01*
X187247042Y-72457208D01*
X187085760Y-72482753D01*
X186883585Y-72548444D01*
X186694179Y-72644951D01*
X186522213Y-72769890D01*
X186371890Y-72920213D01*
X186246949Y-73092182D01*
X186242484Y-73100946D01*
X186194509Y-73151742D01*
X186126688Y-73168536D01*
X186060553Y-73145998D01*
X186021516Y-73100946D01*
X186017050Y-73092182D01*
X185892109Y-72920213D01*
X185741786Y-72769890D01*
X185569820Y-72644951D01*
X185380414Y-72548444D01*
X185380413Y-72548443D01*
X185380412Y-72548443D01*
X185178243Y-72482754D01*
X185178241Y-72482753D01*
X185178240Y-72482753D01*
X185016957Y-72457208D01*
X184968287Y-72449500D01*
X184755713Y-72449500D01*
X184707042Y-72457208D01*
X184545760Y-72482753D01*
X184343585Y-72548444D01*
X184154179Y-72644951D01*
X183982213Y-72769890D01*
X183831890Y-72920213D01*
X183706949Y-73092182D01*
X183702484Y-73100946D01*
X183654509Y-73151742D01*
X183586688Y-73168536D01*
X183520553Y-73145998D01*
X183481516Y-73100946D01*
X183477050Y-73092182D01*
X183352109Y-72920213D01*
X183201786Y-72769890D01*
X183029820Y-72644951D01*
X182840414Y-72548444D01*
X182840413Y-72548443D01*
X182840412Y-72548443D01*
X182638243Y-72482754D01*
X182638241Y-72482753D01*
X182638240Y-72482753D01*
X182476957Y-72457208D01*
X182428287Y-72449500D01*
X182215713Y-72449500D01*
X182167042Y-72457208D01*
X182005760Y-72482753D01*
X181803585Y-72548444D01*
X181614179Y-72644951D01*
X181442213Y-72769890D01*
X181291890Y-72920213D01*
X181166949Y-73092182D01*
X181162484Y-73100946D01*
X181114509Y-73151742D01*
X181046688Y-73168536D01*
X180980553Y-73145998D01*
X180941516Y-73100946D01*
X180937050Y-73092182D01*
X180812109Y-72920213D01*
X180661786Y-72769890D01*
X180489820Y-72644951D01*
X180300414Y-72548444D01*
X180300413Y-72548443D01*
X180300412Y-72548443D01*
X180098243Y-72482754D01*
X180098241Y-72482753D01*
X180098240Y-72482753D01*
X179936957Y-72457208D01*
X179888287Y-72449500D01*
X179675713Y-72449500D01*
X179627042Y-72457208D01*
X179465760Y-72482753D01*
X179263585Y-72548444D01*
X179074179Y-72644951D01*
X178902213Y-72769890D01*
X178751890Y-72920213D01*
X178626949Y-73092182D01*
X178622484Y-73100946D01*
X178574509Y-73151742D01*
X178506688Y-73168536D01*
X178440553Y-73145998D01*
X178401516Y-73100946D01*
X178397050Y-73092182D01*
X178272109Y-72920213D01*
X178121786Y-72769890D01*
X177949820Y-72644951D01*
X177760414Y-72548444D01*
X177760413Y-72548443D01*
X177760412Y-72548443D01*
X177558243Y-72482754D01*
X177558241Y-72482753D01*
X177558240Y-72482753D01*
X177396957Y-72457208D01*
X177348287Y-72449500D01*
X177135713Y-72449500D01*
X177087042Y-72457208D01*
X176925760Y-72482753D01*
X176723585Y-72548444D01*
X176534179Y-72644951D01*
X176362213Y-72769890D01*
X176211890Y-72920213D01*
X176086949Y-73092182D01*
X176082484Y-73100946D01*
X176034509Y-73151742D01*
X175966688Y-73168536D01*
X175900553Y-73145998D01*
X175861516Y-73100946D01*
X175857050Y-73092182D01*
X175732109Y-72920213D01*
X175581786Y-72769890D01*
X175409820Y-72644951D01*
X175220414Y-72548444D01*
X175220413Y-72548443D01*
X175220412Y-72548443D01*
X175018243Y-72482754D01*
X175018241Y-72482753D01*
X175018240Y-72482753D01*
X174856957Y-72457208D01*
X174808287Y-72449500D01*
X174595713Y-72449500D01*
X174547042Y-72457208D01*
X174385760Y-72482753D01*
X174183585Y-72548444D01*
X173994179Y-72644951D01*
X173822213Y-72769890D01*
X173671890Y-72920213D01*
X173546949Y-73092182D01*
X173542484Y-73100946D01*
X173494509Y-73151742D01*
X173426688Y-73168536D01*
X173360553Y-73145998D01*
X173321516Y-73100946D01*
X173317050Y-73092182D01*
X173192109Y-72920213D01*
X173041786Y-72769890D01*
X172869820Y-72644951D01*
X172680414Y-72548444D01*
X172680413Y-72548443D01*
X172680412Y-72548443D01*
X172478243Y-72482754D01*
X172478241Y-72482753D01*
X172478240Y-72482753D01*
X172316957Y-72457208D01*
X172268287Y-72449500D01*
X172055713Y-72449500D01*
X172007042Y-72457208D01*
X171845760Y-72482753D01*
X171643585Y-72548444D01*
X171454179Y-72644951D01*
X171282213Y-72769890D01*
X171131890Y-72920213D01*
X171006949Y-73092182D01*
X170999935Y-73105948D01*
X170951960Y-73156742D01*
X170884138Y-73173536D01*
X170818004Y-73150997D01*
X170778966Y-73105943D01*
X170777048Y-73102179D01*
X170652109Y-72930213D01*
X170501786Y-72779890D01*
X170329820Y-72654951D01*
X170140414Y-72558444D01*
X170140413Y-72558443D01*
X170140412Y-72558443D01*
X169938243Y-72492754D01*
X169938241Y-72492753D01*
X169938240Y-72492753D01*
X169776957Y-72467208D01*
X169728287Y-72459500D01*
X169515713Y-72459500D01*
X169467042Y-72467208D01*
X169305760Y-72492753D01*
X169103585Y-72558444D01*
X168914179Y-72654951D01*
X168742213Y-72779890D01*
X168591890Y-72930213D01*
X168466951Y-73102179D01*
X168370444Y-73291585D01*
X168304753Y-73493760D01*
X168271500Y-73703713D01*
X160370500Y-73703713D01*
X160370500Y-73181306D01*
X160370499Y-73181304D01*
X160335896Y-73007341D01*
X160335893Y-73007332D01*
X160268016Y-72843459D01*
X160268009Y-72843446D01*
X160169464Y-72695965D01*
X160169461Y-72695961D01*
X160044038Y-72570538D01*
X160044034Y-72570535D01*
X159896553Y-72471990D01*
X159896540Y-72471983D01*
X159732667Y-72404106D01*
X159732658Y-72404103D01*
X159558694Y-72369500D01*
X159558691Y-72369500D01*
X159381309Y-72369500D01*
X159381306Y-72369500D01*
X159207341Y-72404103D01*
X159207332Y-72404106D01*
X159043459Y-72471983D01*
X159043446Y-72471990D01*
X158913891Y-72558557D01*
X158847213Y-72579435D01*
X158779833Y-72560950D01*
X158776109Y-72558557D01*
X158646553Y-72471990D01*
X158646540Y-72471983D01*
X158482667Y-72404106D01*
X158482658Y-72404103D01*
X158308694Y-72369500D01*
X158308691Y-72369500D01*
X158131309Y-72369500D01*
X158131306Y-72369500D01*
X157957341Y-72404103D01*
X157957332Y-72404106D01*
X157793459Y-72471983D01*
X157793446Y-72471990D01*
X157663891Y-72558557D01*
X157597213Y-72579435D01*
X157529833Y-72560950D01*
X157526109Y-72558557D01*
X157396553Y-72471990D01*
X157396540Y-72471983D01*
X157232667Y-72404106D01*
X157232658Y-72404103D01*
X157058694Y-72369500D01*
X157058691Y-72369500D01*
X156881309Y-72369500D01*
X156881306Y-72369500D01*
X156707341Y-72404103D01*
X156707332Y-72404106D01*
X156543459Y-72471983D01*
X156543446Y-72471990D01*
X156413441Y-72558858D01*
X156346764Y-72579736D01*
X156279383Y-72561252D01*
X156275659Y-72558858D01*
X156146316Y-72472433D01*
X156146307Y-72472428D01*
X155982519Y-72404585D01*
X155970000Y-72402094D01*
X155970000Y-73470272D01*
X155931940Y-73378386D01*
X155861614Y-73308060D01*
X155769728Y-73270000D01*
X155670272Y-73270000D01*
X155578386Y-73308060D01*
X155508060Y-73378386D01*
X155470000Y-73470272D01*
X155470000Y-73569728D01*
X155508060Y-73661614D01*
X155578386Y-73731940D01*
X155670272Y-73770000D01*
X155769728Y-73770000D01*
X155861614Y-73731940D01*
X155931940Y-73661614D01*
X155970000Y-73569728D01*
X155970000Y-74637903D01*
X155982516Y-74635415D01*
X155982523Y-74635412D01*
X156146306Y-74567571D01*
X156146315Y-74567566D01*
X156275659Y-74481141D01*
X156342336Y-74460263D01*
X156409716Y-74478747D01*
X156413434Y-74481136D01*
X156479782Y-74525469D01*
X156542791Y-74567571D01*
X156543453Y-74568013D01*
X156543455Y-74568014D01*
X156543459Y-74568016D01*
X156653214Y-74613477D01*
X156707334Y-74635894D01*
X156707336Y-74635894D01*
X156707341Y-74635896D01*
X156881304Y-74670499D01*
X156881307Y-74670500D01*
X156881309Y-74670500D01*
X157058693Y-74670500D01*
X157058694Y-74670499D01*
X157116682Y-74658964D01*
X157232658Y-74635896D01*
X157232661Y-74635894D01*
X157232666Y-74635894D01*
X157396547Y-74568013D01*
X157526109Y-74481442D01*
X157592786Y-74460564D01*
X157660166Y-74479048D01*
X157663891Y-74481442D01*
X157793447Y-74568009D01*
X157793453Y-74568013D01*
X157793455Y-74568014D01*
X157793459Y-74568016D01*
X157903214Y-74613477D01*
X157957334Y-74635894D01*
X157957336Y-74635894D01*
X157957341Y-74635896D01*
X158131304Y-74670499D01*
X158131307Y-74670500D01*
X158131309Y-74670500D01*
X158308693Y-74670500D01*
X158308694Y-74670499D01*
X158366682Y-74658964D01*
X158482658Y-74635896D01*
X158482661Y-74635894D01*
X158482666Y-74635894D01*
X158590908Y-74591058D01*
X158660377Y-74583590D01*
X158722856Y-74614865D01*
X158758508Y-74674954D01*
X158756014Y-74744780D01*
X158726041Y-74793301D01*
X153286147Y-80233194D01*
X153224824Y-80266679D01*
X153179068Y-80267986D01*
X153129969Y-80260209D01*
X153062352Y-80249500D01*
X152857648Y-80249500D01*
X152833329Y-80253351D01*
X152655465Y-80281522D01*
X152460776Y-80344781D01*
X152278386Y-80437715D01*
X152112786Y-80558028D01*
X151968028Y-80702786D01*
X151847715Y-80868386D01*
X151754781Y-81050776D01*
X151691522Y-81245465D01*
X151659500Y-81447648D01*
X145851366Y-81447648D01*
X145861015Y-81417951D01*
X145895500Y-81200222D01*
X145895500Y-80979778D01*
X145861015Y-80762049D01*
X145826955Y-80657221D01*
X145792896Y-80552396D01*
X145792895Y-80552393D01*
X145758237Y-80484375D01*
X145692815Y-80355978D01*
X145636067Y-80277870D01*
X145563247Y-80177641D01*
X145563243Y-80177636D01*
X145407363Y-80021756D01*
X145407358Y-80021752D01*
X145229025Y-79892187D01*
X145229024Y-79892186D01*
X145229022Y-79892185D01*
X145166096Y-79860122D01*
X145032606Y-79792104D01*
X145032603Y-79792103D01*
X144822952Y-79723985D01*
X144714086Y-79706742D01*
X144605222Y-79689500D01*
X144384778Y-79689500D01*
X144312201Y-79700995D01*
X144167047Y-79723985D01*
X143957396Y-79792103D01*
X143957393Y-79792104D01*
X143760974Y-79892187D01*
X143582641Y-80021752D01*
X143582636Y-80021756D01*
X143532075Y-80072317D01*
X143470752Y-80105801D01*
X143401060Y-80100816D01*
X143345127Y-80058945D01*
X143328213Y-80027968D01*
X143298354Y-79947913D01*
X143298350Y-79947906D01*
X143212190Y-79832812D01*
X143212187Y-79832809D01*
X143097093Y-79746649D01*
X143097086Y-79746645D01*
X142962379Y-79696403D01*
X142962372Y-79696401D01*
X142902844Y-79690000D01*
X142205000Y-79690000D01*
X142205000Y-80714722D01*
X142128694Y-80670667D01*
X142014244Y-80640000D01*
X141895756Y-80640000D01*
X141781306Y-80670667D01*
X141705000Y-80714722D01*
X141705000Y-79690000D01*
X141007155Y-79690000D01*
X140947627Y-79696401D01*
X140947620Y-79696403D01*
X140812913Y-79746645D01*
X140812906Y-79746649D01*
X140697812Y-79832809D01*
X140697809Y-79832812D01*
X140611649Y-79947906D01*
X140611645Y-79947913D01*
X140561403Y-80082620D01*
X140561401Y-80082627D01*
X140555000Y-80142155D01*
X125500500Y-80142155D01*
X125500500Y-75957682D01*
X125830000Y-75957682D01*
X125830000Y-76162317D01*
X125862009Y-76364417D01*
X125925244Y-76559031D01*
X126018141Y-76741350D01*
X126018147Y-76741359D01*
X126050523Y-76785921D01*
X126050524Y-76785922D01*
X126730000Y-76106446D01*
X126730000Y-76112661D01*
X126757259Y-76214394D01*
X126809920Y-76305606D01*
X126884394Y-76380080D01*
X126975606Y-76432741D01*
X127077339Y-76460000D01*
X127083553Y-76460000D01*
X126404076Y-77139474D01*
X126448650Y-77171859D01*
X126630968Y-77264755D01*
X126825582Y-77327990D01*
X127027683Y-77360000D01*
X127232317Y-77360000D01*
X127434417Y-77327990D01*
X127629031Y-77264755D01*
X127811349Y-77171859D01*
X127855921Y-77139474D01*
X127176447Y-76460000D01*
X127182661Y-76460000D01*
X127284394Y-76432741D01*
X127375606Y-76380080D01*
X127450080Y-76305606D01*
X127502741Y-76214394D01*
X127530000Y-76112661D01*
X127530000Y-76106447D01*
X128209474Y-76785921D01*
X128241859Y-76741349D01*
X128334755Y-76559031D01*
X128397990Y-76364417D01*
X128430000Y-76162317D01*
X128430000Y-75957682D01*
X128429995Y-75957648D01*
X133449500Y-75957648D01*
X133449500Y-76162351D01*
X133481522Y-76364534D01*
X133544781Y-76559223D01*
X133608691Y-76684653D01*
X133637585Y-76741359D01*
X133637715Y-76741613D01*
X133758028Y-76907213D01*
X133902786Y-77051971D01*
X134023226Y-77139474D01*
X134068390Y-77172287D01*
X134184607Y-77231503D01*
X134250776Y-77265218D01*
X134250778Y-77265218D01*
X134250781Y-77265220D01*
X134355137Y-77299127D01*
X134445465Y-77328477D01*
X134546557Y-77344488D01*
X134647648Y-77360500D01*
X134647649Y-77360500D01*
X134852351Y-77360500D01*
X134852352Y-77360500D01*
X135054534Y-77328477D01*
X135249219Y-77265220D01*
X135431610Y-77172287D01*
X135524590Y-77104732D01*
X135597213Y-77051971D01*
X135597215Y-77051968D01*
X135597219Y-77051966D01*
X135741966Y-76907219D01*
X135741968Y-76907215D01*
X135741971Y-76907213D01*
X135794732Y-76834590D01*
X135862287Y-76741610D01*
X135955220Y-76559219D01*
X136018477Y-76364534D01*
X136050500Y-76162352D01*
X136050500Y-75957648D01*
X136042257Y-75905606D01*
X136018477Y-75755465D01*
X135987458Y-75660000D01*
X135955220Y-75560781D01*
X135955218Y-75560778D01*
X135955218Y-75560776D01*
X135862419Y-75378650D01*
X135862287Y-75378390D01*
X135830092Y-75334077D01*
X135741971Y-75212786D01*
X135597213Y-75068028D01*
X135431613Y-74947715D01*
X135431612Y-74947714D01*
X135431610Y-74947713D01*
X135374653Y-74918691D01*
X135249223Y-74854781D01*
X135054534Y-74791522D01*
X134861298Y-74760917D01*
X134852352Y-74759500D01*
X134647648Y-74759500D01*
X134638702Y-74760917D01*
X134445465Y-74791522D01*
X134250776Y-74854781D01*
X134068386Y-74947715D01*
X133902786Y-75068028D01*
X133758028Y-75212786D01*
X133637715Y-75378386D01*
X133544781Y-75560776D01*
X133481522Y-75755465D01*
X133449500Y-75957648D01*
X128429995Y-75957648D01*
X128397990Y-75755582D01*
X128334755Y-75560968D01*
X128241859Y-75378650D01*
X128209474Y-75334077D01*
X128209474Y-75334076D01*
X127530000Y-76013551D01*
X127530000Y-76007339D01*
X127502741Y-75905606D01*
X127450080Y-75814394D01*
X127375606Y-75739920D01*
X127284394Y-75687259D01*
X127182661Y-75660000D01*
X127176446Y-75660000D01*
X127855922Y-74980524D01*
X127855921Y-74980523D01*
X127811359Y-74948147D01*
X127811350Y-74948141D01*
X127629031Y-74855244D01*
X127434417Y-74792009D01*
X127232317Y-74760000D01*
X127027683Y-74760000D01*
X126825582Y-74792009D01*
X126630968Y-74855244D01*
X126448644Y-74948143D01*
X126404077Y-74980523D01*
X126404077Y-74980524D01*
X127083554Y-75660000D01*
X127077339Y-75660000D01*
X126975606Y-75687259D01*
X126884394Y-75739920D01*
X126809920Y-75814394D01*
X126757259Y-75905606D01*
X126730000Y-76007339D01*
X126730000Y-76013553D01*
X126050524Y-75334077D01*
X126050523Y-75334077D01*
X126018143Y-75378644D01*
X125925244Y-75560968D01*
X125862009Y-75755582D01*
X125830000Y-75957682D01*
X125500500Y-75957682D01*
X125500500Y-73013386D01*
X152319500Y-73013386D01*
X152319500Y-74026613D01*
X152325913Y-74097192D01*
X152325913Y-74097194D01*
X152325914Y-74097196D01*
X152376522Y-74259606D01*
X152464530Y-74405188D01*
X152584811Y-74525469D01*
X152584813Y-74525470D01*
X152584815Y-74525472D01*
X152730394Y-74613478D01*
X152892804Y-74664086D01*
X152963384Y-74670500D01*
X152963387Y-74670500D01*
X153476613Y-74670500D01*
X153476616Y-74670500D01*
X153547196Y-74664086D01*
X153709606Y-74613478D01*
X153853597Y-74526431D01*
X153921148Y-74508596D01*
X153986636Y-74529447D01*
X154043689Y-74567569D01*
X154043693Y-74567571D01*
X154207476Y-74635412D01*
X154207483Y-74635415D01*
X154220000Y-74637904D01*
X154220000Y-74637903D01*
X154720000Y-74637903D01*
X154732516Y-74635415D01*
X154732523Y-74635412D01*
X154896306Y-74567571D01*
X154896316Y-74567566D01*
X155026109Y-74480841D01*
X155092786Y-74459963D01*
X155160166Y-74478447D01*
X155163891Y-74480841D01*
X155293683Y-74567566D01*
X155293693Y-74567571D01*
X155457476Y-74635412D01*
X155457483Y-74635415D01*
X155470000Y-74637904D01*
X155470000Y-73770000D01*
X154720000Y-73770000D01*
X154720000Y-74637903D01*
X154220000Y-74637903D01*
X154220000Y-73569728D01*
X154258060Y-73661614D01*
X154328386Y-73731940D01*
X154420272Y-73770000D01*
X154519728Y-73770000D01*
X154611614Y-73731940D01*
X154681940Y-73661614D01*
X154720000Y-73569728D01*
X154720000Y-73470272D01*
X154681940Y-73378386D01*
X154611614Y-73308060D01*
X154519728Y-73270000D01*
X154420272Y-73270000D01*
X154328386Y-73308060D01*
X154258060Y-73378386D01*
X154220000Y-73470272D01*
X154220000Y-72402095D01*
X154219999Y-72402094D01*
X154720000Y-72402094D01*
X154720000Y-73270000D01*
X155470000Y-73270000D01*
X155470000Y-72402095D01*
X155469999Y-72402094D01*
X155457480Y-72404585D01*
X155293692Y-72472428D01*
X155293683Y-72472433D01*
X155163891Y-72559158D01*
X155097213Y-72580036D01*
X155029833Y-72561551D01*
X155026109Y-72559158D01*
X154896316Y-72472433D01*
X154896307Y-72472428D01*
X154732519Y-72404585D01*
X154720000Y-72402094D01*
X154219999Y-72402094D01*
X154207480Y-72404585D01*
X154043691Y-72472429D01*
X153986634Y-72510553D01*
X153919956Y-72531430D01*
X153853596Y-72513567D01*
X153709606Y-72426522D01*
X153547196Y-72375914D01*
X153547194Y-72375913D01*
X153547192Y-72375913D01*
X153497778Y-72371423D01*
X153476616Y-72369500D01*
X152963384Y-72369500D01*
X152944145Y-72371248D01*
X152892807Y-72375913D01*
X152730393Y-72426522D01*
X152584811Y-72514530D01*
X152464530Y-72634811D01*
X152376522Y-72780393D01*
X152325913Y-72942807D01*
X152319500Y-73013386D01*
X125500500Y-73013386D01*
X125500500Y-69374038D01*
X126899500Y-69374038D01*
X126899500Y-69625961D01*
X126938910Y-69874785D01*
X127016760Y-70114383D01*
X127131132Y-70338848D01*
X127279201Y-70542649D01*
X127279205Y-70542654D01*
X127457345Y-70720794D01*
X127457350Y-70720798D01*
X127635117Y-70849952D01*
X127661155Y-70868870D01*
X127804184Y-70941747D01*
X127885616Y-70983239D01*
X127885618Y-70983239D01*
X127885621Y-70983241D01*
X128125215Y-71061090D01*
X128374038Y-71100500D01*
X128374039Y-71100500D01*
X128625961Y-71100500D01*
X128625962Y-71100500D01*
X128874785Y-71061090D01*
X129114379Y-70983241D01*
X129338845Y-70868870D01*
X129542656Y-70720793D01*
X129720793Y-70542656D01*
X129868870Y-70338845D01*
X129983241Y-70114379D01*
X130061090Y-69874785D01*
X130100500Y-69625962D01*
X130100500Y-69374038D01*
X221899500Y-69374038D01*
X221899500Y-69625961D01*
X221938910Y-69874785D01*
X222016760Y-70114383D01*
X222131132Y-70338848D01*
X222279201Y-70542649D01*
X222279205Y-70542654D01*
X222457345Y-70720794D01*
X222457350Y-70720798D01*
X222635117Y-70849952D01*
X222661155Y-70868870D01*
X222804184Y-70941747D01*
X222885616Y-70983239D01*
X222885618Y-70983239D01*
X222885621Y-70983241D01*
X223125215Y-71061090D01*
X223374038Y-71100500D01*
X223374039Y-71100500D01*
X223625961Y-71100500D01*
X223625962Y-71100500D01*
X223874785Y-71061090D01*
X224114379Y-70983241D01*
X224338845Y-70868870D01*
X224542656Y-70720793D01*
X224720793Y-70542656D01*
X224868870Y-70338845D01*
X224983241Y-70114379D01*
X225061090Y-69874785D01*
X225100500Y-69625962D01*
X225100500Y-69374038D01*
X225061090Y-69125215D01*
X224983241Y-68885621D01*
X224983239Y-68885618D01*
X224983239Y-68885616D01*
X224941747Y-68804184D01*
X224868870Y-68661155D01*
X224849952Y-68635117D01*
X224720798Y-68457350D01*
X224720794Y-68457345D01*
X224542654Y-68279205D01*
X224542649Y-68279201D01*
X224338848Y-68131132D01*
X224338847Y-68131131D01*
X224338845Y-68131130D01*
X224268747Y-68095413D01*
X224114383Y-68016760D01*
X223874785Y-67938910D01*
X223625962Y-67899500D01*
X223374038Y-67899500D01*
X223249626Y-67919205D01*
X223125214Y-67938910D01*
X222885616Y-68016760D01*
X222661151Y-68131132D01*
X222457350Y-68279201D01*
X222457345Y-68279205D01*
X222279205Y-68457345D01*
X222279201Y-68457350D01*
X222131132Y-68661151D01*
X222016760Y-68885616D01*
X221938910Y-69125214D01*
X221899500Y-69374038D01*
X130100500Y-69374038D01*
X130061090Y-69125215D01*
X129983241Y-68885621D01*
X129983239Y-68885618D01*
X129983239Y-68885616D01*
X129941747Y-68804184D01*
X129868870Y-68661155D01*
X129849952Y-68635117D01*
X129720798Y-68457350D01*
X129720794Y-68457345D01*
X129542654Y-68279205D01*
X129542649Y-68279201D01*
X129338848Y-68131132D01*
X129338847Y-68131131D01*
X129338845Y-68131130D01*
X129268747Y-68095413D01*
X129114383Y-68016760D01*
X128874785Y-67938910D01*
X128625962Y-67899500D01*
X128374038Y-67899500D01*
X128249626Y-67919205D01*
X128125214Y-67938910D01*
X127885616Y-68016760D01*
X127661151Y-68131132D01*
X127457350Y-68279201D01*
X127457345Y-68279205D01*
X127279205Y-68457345D01*
X127279201Y-68457350D01*
X127131132Y-68661151D01*
X127016760Y-68885616D01*
X126938910Y-69125214D01*
X126899500Y-69374038D01*
X125500500Y-69374038D01*
X125500500Y-66624500D01*
X125520185Y-66557461D01*
X125572989Y-66511706D01*
X125624500Y-66500500D01*
X226375500Y-66500500D01*
X226442539Y-66520185D01*
G37*
%TD.AperFunction*%
%TD*%
M02*
