%TF.GenerationSoftware,KiCad,Pcbnew,9.0.6-9.0.6~ubuntu24.04.1*%
%TF.CreationDate,2026-01-01T18:35:03+01:00*%
%TF.ProjectId,security-system,73656375-7269-4747-992d-73797374656d,0*%
%TF.SameCoordinates,Original*%
%TF.FileFunction,Soldermask,Top*%
%TF.FilePolarity,Negative*%
%FSLAX46Y46*%
G04 Gerber Fmt 4.6, Leading zero omitted, Abs format (unit mm)*
G04 Created by KiCad (PCBNEW 9.0.6-9.0.6~ubuntu24.04.1) date 2026-01-01 18:35:03*
%MOMM*%
%LPD*%
G01*
G04 APERTURE LIST*
G04 APERTURE END LIST*
G36*
X169868742Y-98436601D02*
G01*
X170022687Y-98500367D01*
X170161234Y-98592941D01*
X170279059Y-98710766D01*
X170371633Y-98849313D01*
X170435399Y-99003258D01*
X170467907Y-99166685D01*
X170467907Y-99333315D01*
X170435399Y-99496742D01*
X170371633Y-99650687D01*
X170279059Y-99789234D01*
X170161234Y-99907059D01*
X170022687Y-99999633D01*
X169868742Y-100063399D01*
X169705315Y-100095907D01*
X169538685Y-100095907D01*
X169375258Y-100063399D01*
X169221313Y-99999633D01*
X169082766Y-99907059D01*
X168964941Y-99789234D01*
X168872367Y-99650687D01*
X168808601Y-99496742D01*
X168776093Y-99333315D01*
X168776093Y-99166685D01*
X168808601Y-99003258D01*
X168872367Y-98849313D01*
X168964941Y-98710766D01*
X169082766Y-98592941D01*
X169221313Y-98500367D01*
X169375258Y-98436601D01*
X169538685Y-98404093D01*
X169705315Y-98404093D01*
X169868742Y-98436601D01*
G37*
G36*
X172408742Y-98386601D02*
G01*
X172562687Y-98450367D01*
X172701234Y-98542941D01*
X172819059Y-98660766D01*
X172911633Y-98799313D01*
X172975399Y-98953258D01*
X173007907Y-99116685D01*
X173007907Y-99283315D01*
X172975399Y-99446742D01*
X172911633Y-99600687D01*
X172819059Y-99739234D01*
X172701234Y-99857059D01*
X172562687Y-99949633D01*
X172408742Y-100013399D01*
X172245315Y-100045907D01*
X172078685Y-100045907D01*
X171915258Y-100013399D01*
X171761313Y-99949633D01*
X171622766Y-99857059D01*
X171504941Y-99739234D01*
X171412367Y-99600687D01*
X171348601Y-99446742D01*
X171316093Y-99283315D01*
X171316093Y-99116685D01*
X171348601Y-98953258D01*
X171412367Y-98799313D01*
X171504941Y-98660766D01*
X171622766Y-98542941D01*
X171761313Y-98450367D01*
X171915258Y-98386601D01*
X172078685Y-98354093D01*
X172245315Y-98354093D01*
X172408742Y-98386601D01*
G37*
G36*
X174948742Y-98386601D02*
G01*
X175102687Y-98450367D01*
X175241234Y-98542941D01*
X175359059Y-98660766D01*
X175451633Y-98799313D01*
X175515399Y-98953258D01*
X175547907Y-99116685D01*
X175547907Y-99283315D01*
X175515399Y-99446742D01*
X175451633Y-99600687D01*
X175359059Y-99739234D01*
X175241234Y-99857059D01*
X175102687Y-99949633D01*
X174948742Y-100013399D01*
X174785315Y-100045907D01*
X174618685Y-100045907D01*
X174455258Y-100013399D01*
X174301313Y-99949633D01*
X174162766Y-99857059D01*
X174044941Y-99739234D01*
X173952367Y-99600687D01*
X173888601Y-99446742D01*
X173856093Y-99283315D01*
X173856093Y-99116685D01*
X173888601Y-98953258D01*
X173952367Y-98799313D01*
X174044941Y-98660766D01*
X174162766Y-98542941D01*
X174301313Y-98450367D01*
X174455258Y-98386601D01*
X174618685Y-98354093D01*
X174785315Y-98354093D01*
X174948742Y-98386601D01*
G37*
G36*
X177488742Y-98386601D02*
G01*
X177642687Y-98450367D01*
X177781234Y-98542941D01*
X177899059Y-98660766D01*
X177991633Y-98799313D01*
X178055399Y-98953258D01*
X178087907Y-99116685D01*
X178087907Y-99283315D01*
X178055399Y-99446742D01*
X177991633Y-99600687D01*
X177899059Y-99739234D01*
X177781234Y-99857059D01*
X177642687Y-99949633D01*
X177488742Y-100013399D01*
X177325315Y-100045907D01*
X177158685Y-100045907D01*
X176995258Y-100013399D01*
X176841313Y-99949633D01*
X176702766Y-99857059D01*
X176584941Y-99739234D01*
X176492367Y-99600687D01*
X176428601Y-99446742D01*
X176396093Y-99283315D01*
X176396093Y-99116685D01*
X176428601Y-98953258D01*
X176492367Y-98799313D01*
X176584941Y-98660766D01*
X176702766Y-98542941D01*
X176841313Y-98450367D01*
X176995258Y-98386601D01*
X177158685Y-98354093D01*
X177325315Y-98354093D01*
X177488742Y-98386601D01*
G37*
G36*
X180028742Y-98386601D02*
G01*
X180182687Y-98450367D01*
X180321234Y-98542941D01*
X180439059Y-98660766D01*
X180531633Y-98799313D01*
X180595399Y-98953258D01*
X180627907Y-99116685D01*
X180627907Y-99283315D01*
X180595399Y-99446742D01*
X180531633Y-99600687D01*
X180439059Y-99739234D01*
X180321234Y-99857059D01*
X180182687Y-99949633D01*
X180028742Y-100013399D01*
X179865315Y-100045907D01*
X179698685Y-100045907D01*
X179535258Y-100013399D01*
X179381313Y-99949633D01*
X179242766Y-99857059D01*
X179124941Y-99739234D01*
X179032367Y-99600687D01*
X178968601Y-99446742D01*
X178936093Y-99283315D01*
X178936093Y-99116685D01*
X178968601Y-98953258D01*
X179032367Y-98799313D01*
X179124941Y-98660766D01*
X179242766Y-98542941D01*
X179381313Y-98450367D01*
X179535258Y-98386601D01*
X179698685Y-98354093D01*
X179865315Y-98354093D01*
X180028742Y-98386601D01*
G37*
G36*
X182568742Y-98386601D02*
G01*
X182722687Y-98450367D01*
X182861234Y-98542941D01*
X182979059Y-98660766D01*
X183071633Y-98799313D01*
X183135399Y-98953258D01*
X183167907Y-99116685D01*
X183167907Y-99283315D01*
X183135399Y-99446742D01*
X183071633Y-99600687D01*
X182979059Y-99739234D01*
X182861234Y-99857059D01*
X182722687Y-99949633D01*
X182568742Y-100013399D01*
X182405315Y-100045907D01*
X182238685Y-100045907D01*
X182075258Y-100013399D01*
X181921313Y-99949633D01*
X181782766Y-99857059D01*
X181664941Y-99739234D01*
X181572367Y-99600687D01*
X181508601Y-99446742D01*
X181476093Y-99283315D01*
X181476093Y-99116685D01*
X181508601Y-98953258D01*
X181572367Y-98799313D01*
X181664941Y-98660766D01*
X181782766Y-98542941D01*
X181921313Y-98450367D01*
X182075258Y-98386601D01*
X182238685Y-98354093D01*
X182405315Y-98354093D01*
X182568742Y-98386601D01*
G37*
G36*
X185108742Y-98386601D02*
G01*
X185262687Y-98450367D01*
X185401234Y-98542941D01*
X185519059Y-98660766D01*
X185611633Y-98799313D01*
X185675399Y-98953258D01*
X185707907Y-99116685D01*
X185707907Y-99283315D01*
X185675399Y-99446742D01*
X185611633Y-99600687D01*
X185519059Y-99739234D01*
X185401234Y-99857059D01*
X185262687Y-99949633D01*
X185108742Y-100013399D01*
X184945315Y-100045907D01*
X184778685Y-100045907D01*
X184615258Y-100013399D01*
X184461313Y-99949633D01*
X184322766Y-99857059D01*
X184204941Y-99739234D01*
X184112367Y-99600687D01*
X184048601Y-99446742D01*
X184016093Y-99283315D01*
X184016093Y-99116685D01*
X184048601Y-98953258D01*
X184112367Y-98799313D01*
X184204941Y-98660766D01*
X184322766Y-98542941D01*
X184461313Y-98450367D01*
X184615258Y-98386601D01*
X184778685Y-98354093D01*
X184945315Y-98354093D01*
X185108742Y-98386601D01*
G37*
G36*
X187648742Y-98386601D02*
G01*
X187802687Y-98450367D01*
X187941234Y-98542941D01*
X188059059Y-98660766D01*
X188151633Y-98799313D01*
X188215399Y-98953258D01*
X188247907Y-99116685D01*
X188247907Y-99283315D01*
X188215399Y-99446742D01*
X188151633Y-99600687D01*
X188059059Y-99739234D01*
X187941234Y-99857059D01*
X187802687Y-99949633D01*
X187648742Y-100013399D01*
X187485315Y-100045907D01*
X187318685Y-100045907D01*
X187155258Y-100013399D01*
X187001313Y-99949633D01*
X186862766Y-99857059D01*
X186744941Y-99739234D01*
X186652367Y-99600687D01*
X186588601Y-99446742D01*
X186556093Y-99283315D01*
X186556093Y-99116685D01*
X186588601Y-98953258D01*
X186652367Y-98799313D01*
X186744941Y-98660766D01*
X186862766Y-98542941D01*
X187001313Y-98450367D01*
X187155258Y-98386601D01*
X187318685Y-98354093D01*
X187485315Y-98354093D01*
X187648742Y-98386601D01*
G37*
G36*
X190188742Y-98386601D02*
G01*
X190342687Y-98450367D01*
X190481234Y-98542941D01*
X190599059Y-98660766D01*
X190691633Y-98799313D01*
X190755399Y-98953258D01*
X190787907Y-99116685D01*
X190787907Y-99283315D01*
X190755399Y-99446742D01*
X190691633Y-99600687D01*
X190599059Y-99739234D01*
X190481234Y-99857059D01*
X190342687Y-99949633D01*
X190188742Y-100013399D01*
X190025315Y-100045907D01*
X189858685Y-100045907D01*
X189695258Y-100013399D01*
X189541313Y-99949633D01*
X189402766Y-99857059D01*
X189284941Y-99739234D01*
X189192367Y-99600687D01*
X189128601Y-99446742D01*
X189096093Y-99283315D01*
X189096093Y-99116685D01*
X189128601Y-98953258D01*
X189192367Y-98799313D01*
X189284941Y-98660766D01*
X189402766Y-98542941D01*
X189541313Y-98450367D01*
X189695258Y-98386601D01*
X189858685Y-98354093D01*
X190025315Y-98354093D01*
X190188742Y-98386601D01*
G37*
G36*
X192728742Y-98386601D02*
G01*
X192882687Y-98450367D01*
X193021234Y-98542941D01*
X193139059Y-98660766D01*
X193231633Y-98799313D01*
X193295399Y-98953258D01*
X193327907Y-99116685D01*
X193327907Y-99283315D01*
X193295399Y-99446742D01*
X193231633Y-99600687D01*
X193139059Y-99739234D01*
X193021234Y-99857059D01*
X192882687Y-99949633D01*
X192728742Y-100013399D01*
X192565315Y-100045907D01*
X192398685Y-100045907D01*
X192235258Y-100013399D01*
X192081313Y-99949633D01*
X191942766Y-99857059D01*
X191824941Y-99739234D01*
X191732367Y-99600687D01*
X191668601Y-99446742D01*
X191636093Y-99283315D01*
X191636093Y-99116685D01*
X191668601Y-98953258D01*
X191732367Y-98799313D01*
X191824941Y-98660766D01*
X191942766Y-98542941D01*
X192081313Y-98450367D01*
X192235258Y-98386601D01*
X192398685Y-98354093D01*
X192565315Y-98354093D01*
X192728742Y-98386601D01*
G37*
G36*
X195268742Y-98386601D02*
G01*
X195422687Y-98450367D01*
X195561234Y-98542941D01*
X195679059Y-98660766D01*
X195771633Y-98799313D01*
X195835399Y-98953258D01*
X195867907Y-99116685D01*
X195867907Y-99283315D01*
X195835399Y-99446742D01*
X195771633Y-99600687D01*
X195679059Y-99739234D01*
X195561234Y-99857059D01*
X195422687Y-99949633D01*
X195268742Y-100013399D01*
X195105315Y-100045907D01*
X194938685Y-100045907D01*
X194775258Y-100013399D01*
X194621313Y-99949633D01*
X194482766Y-99857059D01*
X194364941Y-99739234D01*
X194272367Y-99600687D01*
X194208601Y-99446742D01*
X194176093Y-99283315D01*
X194176093Y-99116685D01*
X194208601Y-98953258D01*
X194272367Y-98799313D01*
X194364941Y-98660766D01*
X194482766Y-98542941D01*
X194621313Y-98450367D01*
X194775258Y-98386601D01*
X194938685Y-98354093D01*
X195105315Y-98354093D01*
X195268742Y-98386601D01*
G37*
G36*
X197808742Y-98386601D02*
G01*
X197962687Y-98450367D01*
X198101234Y-98542941D01*
X198219059Y-98660766D01*
X198311633Y-98799313D01*
X198375399Y-98953258D01*
X198407907Y-99116685D01*
X198407907Y-99283315D01*
X198375399Y-99446742D01*
X198311633Y-99600687D01*
X198219059Y-99739234D01*
X198101234Y-99857059D01*
X197962687Y-99949633D01*
X197808742Y-100013399D01*
X197645315Y-100045907D01*
X197478685Y-100045907D01*
X197315258Y-100013399D01*
X197161313Y-99949633D01*
X197022766Y-99857059D01*
X196904941Y-99739234D01*
X196812367Y-99600687D01*
X196748601Y-99446742D01*
X196716093Y-99283315D01*
X196716093Y-99116685D01*
X196748601Y-98953258D01*
X196812367Y-98799313D01*
X196904941Y-98660766D01*
X197022766Y-98542941D01*
X197161313Y-98450367D01*
X197315258Y-98386601D01*
X197478685Y-98354093D01*
X197645315Y-98354093D01*
X197808742Y-98386601D01*
G37*
G36*
X200348742Y-98386601D02*
G01*
X200502687Y-98450367D01*
X200641234Y-98542941D01*
X200759059Y-98660766D01*
X200851633Y-98799313D01*
X200915399Y-98953258D01*
X200947907Y-99116685D01*
X200947907Y-99283315D01*
X200915399Y-99446742D01*
X200851633Y-99600687D01*
X200759059Y-99739234D01*
X200641234Y-99857059D01*
X200502687Y-99949633D01*
X200348742Y-100013399D01*
X200185315Y-100045907D01*
X200018685Y-100045907D01*
X199855258Y-100013399D01*
X199701313Y-99949633D01*
X199562766Y-99857059D01*
X199444941Y-99739234D01*
X199352367Y-99600687D01*
X199288601Y-99446742D01*
X199256093Y-99283315D01*
X199256093Y-99116685D01*
X199288601Y-98953258D01*
X199352367Y-98799313D01*
X199444941Y-98660766D01*
X199562766Y-98542941D01*
X199701313Y-98450367D01*
X199855258Y-98386601D01*
X200018685Y-98354093D01*
X200185315Y-98354093D01*
X200348742Y-98386601D01*
G37*
G36*
X202888742Y-98386601D02*
G01*
X203042687Y-98450367D01*
X203181234Y-98542941D01*
X203299059Y-98660766D01*
X203391633Y-98799313D01*
X203455399Y-98953258D01*
X203487907Y-99116685D01*
X203487907Y-99283315D01*
X203455399Y-99446742D01*
X203391633Y-99600687D01*
X203299059Y-99739234D01*
X203181234Y-99857059D01*
X203042687Y-99949633D01*
X202888742Y-100013399D01*
X202725315Y-100045907D01*
X202558685Y-100045907D01*
X202395258Y-100013399D01*
X202241313Y-99949633D01*
X202102766Y-99857059D01*
X201984941Y-99739234D01*
X201892367Y-99600687D01*
X201828601Y-99446742D01*
X201796093Y-99283315D01*
X201796093Y-99116685D01*
X201828601Y-98953258D01*
X201892367Y-98799313D01*
X201984941Y-98660766D01*
X202102766Y-98542941D01*
X202241313Y-98450367D01*
X202395258Y-98386601D01*
X202558685Y-98354093D01*
X202725315Y-98354093D01*
X202888742Y-98386601D01*
G37*
G36*
X205428742Y-98386601D02*
G01*
X205582687Y-98450367D01*
X205721234Y-98542941D01*
X205839059Y-98660766D01*
X205931633Y-98799313D01*
X205995399Y-98953258D01*
X206027907Y-99116685D01*
X206027907Y-99283315D01*
X205995399Y-99446742D01*
X205931633Y-99600687D01*
X205839059Y-99739234D01*
X205721234Y-99857059D01*
X205582687Y-99949633D01*
X205428742Y-100013399D01*
X205265315Y-100045907D01*
X205098685Y-100045907D01*
X204935258Y-100013399D01*
X204781313Y-99949633D01*
X204642766Y-99857059D01*
X204524941Y-99739234D01*
X204432367Y-99600687D01*
X204368601Y-99446742D01*
X204336093Y-99283315D01*
X204336093Y-99116685D01*
X204368601Y-98953258D01*
X204432367Y-98799313D01*
X204524941Y-98660766D01*
X204642766Y-98542941D01*
X204781313Y-98450367D01*
X204935258Y-98386601D01*
X205098685Y-98354093D01*
X205265315Y-98354093D01*
X205428742Y-98386601D01*
G37*
G36*
X207968742Y-98386601D02*
G01*
X208122687Y-98450367D01*
X208261234Y-98542941D01*
X208379059Y-98660766D01*
X208471633Y-98799313D01*
X208535399Y-98953258D01*
X208567907Y-99116685D01*
X208567907Y-99283315D01*
X208535399Y-99446742D01*
X208471633Y-99600687D01*
X208379059Y-99739234D01*
X208261234Y-99857059D01*
X208122687Y-99949633D01*
X207968742Y-100013399D01*
X207805315Y-100045907D01*
X207638685Y-100045907D01*
X207475258Y-100013399D01*
X207321313Y-99949633D01*
X207182766Y-99857059D01*
X207064941Y-99739234D01*
X206972367Y-99600687D01*
X206908601Y-99446742D01*
X206876093Y-99283315D01*
X206876093Y-99116685D01*
X206908601Y-98953258D01*
X206972367Y-98799313D01*
X207064941Y-98660766D01*
X207182766Y-98542941D01*
X207321313Y-98450367D01*
X207475258Y-98386601D01*
X207638685Y-98354093D01*
X207805315Y-98354093D01*
X207968742Y-98386601D01*
G37*
G36*
X210508742Y-98386601D02*
G01*
X210662687Y-98450367D01*
X210801234Y-98542941D01*
X210919059Y-98660766D01*
X211011633Y-98799313D01*
X211075399Y-98953258D01*
X211107907Y-99116685D01*
X211107907Y-99283315D01*
X211075399Y-99446742D01*
X211011633Y-99600687D01*
X210919059Y-99739234D01*
X210801234Y-99857059D01*
X210662687Y-99949633D01*
X210508742Y-100013399D01*
X210345315Y-100045907D01*
X210178685Y-100045907D01*
X210015258Y-100013399D01*
X209861313Y-99949633D01*
X209722766Y-99857059D01*
X209604941Y-99739234D01*
X209512367Y-99600687D01*
X209448601Y-99446742D01*
X209416093Y-99283315D01*
X209416093Y-99116685D01*
X209448601Y-98953258D01*
X209512367Y-98799313D01*
X209604941Y-98660766D01*
X209722766Y-98542941D01*
X209861313Y-98450367D01*
X210015258Y-98386601D01*
X210178685Y-98354093D01*
X210345315Y-98354093D01*
X210508742Y-98386601D01*
G37*
G36*
X213048742Y-98386601D02*
G01*
X213202687Y-98450367D01*
X213341234Y-98542941D01*
X213459059Y-98660766D01*
X213551633Y-98799313D01*
X213615399Y-98953258D01*
X213647907Y-99116685D01*
X213647907Y-99283315D01*
X213615399Y-99446742D01*
X213551633Y-99600687D01*
X213459059Y-99739234D01*
X213341234Y-99857059D01*
X213202687Y-99949633D01*
X213048742Y-100013399D01*
X212885315Y-100045907D01*
X212718685Y-100045907D01*
X212555258Y-100013399D01*
X212401313Y-99949633D01*
X212262766Y-99857059D01*
X212144941Y-99739234D01*
X212052367Y-99600687D01*
X211988601Y-99446742D01*
X211956093Y-99283315D01*
X211956093Y-99116685D01*
X211988601Y-98953258D01*
X212052367Y-98799313D01*
X212144941Y-98660766D01*
X212262766Y-98542941D01*
X212401313Y-98450367D01*
X212555258Y-98386601D01*
X212718685Y-98354093D01*
X212885315Y-98354093D01*
X213048742Y-98386601D01*
G37*
G36*
X215588742Y-98386601D02*
G01*
X215742687Y-98450367D01*
X215881234Y-98542941D01*
X215999059Y-98660766D01*
X216091633Y-98799313D01*
X216155399Y-98953258D01*
X216187907Y-99116685D01*
X216187907Y-99283315D01*
X216155399Y-99446742D01*
X216091633Y-99600687D01*
X215999059Y-99739234D01*
X215881234Y-99857059D01*
X215742687Y-99949633D01*
X215588742Y-100013399D01*
X215425315Y-100045907D01*
X215258685Y-100045907D01*
X215095258Y-100013399D01*
X214941313Y-99949633D01*
X214802766Y-99857059D01*
X214684941Y-99739234D01*
X214592367Y-99600687D01*
X214528601Y-99446742D01*
X214496093Y-99283315D01*
X214496093Y-99116685D01*
X214528601Y-98953258D01*
X214592367Y-98799313D01*
X214684941Y-98660766D01*
X214802766Y-98542941D01*
X214941313Y-98450367D01*
X215095258Y-98386601D01*
X215258685Y-98354093D01*
X215425315Y-98354093D01*
X215588742Y-98386601D01*
G37*
G36*
X218128742Y-98386601D02*
G01*
X218282687Y-98450367D01*
X218421234Y-98542941D01*
X218539059Y-98660766D01*
X218631633Y-98799313D01*
X218695399Y-98953258D01*
X218727907Y-99116685D01*
X218727907Y-99283315D01*
X218695399Y-99446742D01*
X218631633Y-99600687D01*
X218539059Y-99739234D01*
X218421234Y-99857059D01*
X218282687Y-99949633D01*
X218128742Y-100013399D01*
X217965315Y-100045907D01*
X217798685Y-100045907D01*
X217635258Y-100013399D01*
X217481313Y-99949633D01*
X217342766Y-99857059D01*
X217224941Y-99739234D01*
X217132367Y-99600687D01*
X217068601Y-99446742D01*
X217036093Y-99283315D01*
X217036093Y-99116685D01*
X217068601Y-98953258D01*
X217132367Y-98799313D01*
X217224941Y-98660766D01*
X217342766Y-98542941D01*
X217481313Y-98450367D01*
X217635258Y-98386601D01*
X217798685Y-98354093D01*
X217965315Y-98354093D01*
X218128742Y-98386601D01*
G37*
G36*
X127362228Y-96704448D02*
G01*
X127507117Y-96764463D01*
X127637515Y-96851592D01*
X127748408Y-96962485D01*
X127835537Y-97092883D01*
X127895552Y-97237772D01*
X127926148Y-97391586D01*
X127926148Y-97548414D01*
X127895552Y-97702228D01*
X127835537Y-97847117D01*
X127748408Y-97977515D01*
X127637515Y-98088408D01*
X127507117Y-98175537D01*
X127362228Y-98235552D01*
X127208414Y-98266148D01*
X127051586Y-98266148D01*
X126897772Y-98235552D01*
X126752883Y-98175537D01*
X126622485Y-98088408D01*
X126511592Y-97977515D01*
X126424463Y-97847117D01*
X126364448Y-97702228D01*
X126333852Y-97548414D01*
X126333852Y-97391586D01*
X126364448Y-97237772D01*
X126424463Y-97092883D01*
X126511592Y-96962485D01*
X126622485Y-96851592D01*
X126752883Y-96764463D01*
X126897772Y-96704448D01*
X127051586Y-96673852D01*
X127208414Y-96673852D01*
X127362228Y-96704448D01*
G37*
G36*
X134982228Y-96704448D02*
G01*
X135127117Y-96764463D01*
X135257515Y-96851592D01*
X135368408Y-96962485D01*
X135455537Y-97092883D01*
X135515552Y-97237772D01*
X135546148Y-97391586D01*
X135546148Y-97548414D01*
X135515552Y-97702228D01*
X135455537Y-97847117D01*
X135368408Y-97977515D01*
X135257515Y-98088408D01*
X135127117Y-98175537D01*
X134982228Y-98235552D01*
X134828414Y-98266148D01*
X134671586Y-98266148D01*
X134517772Y-98235552D01*
X134372883Y-98175537D01*
X134242485Y-98088408D01*
X134131592Y-97977515D01*
X134044463Y-97847117D01*
X133984448Y-97702228D01*
X133953852Y-97548414D01*
X133953852Y-97391586D01*
X133984448Y-97237772D01*
X134044463Y-97092883D01*
X134131592Y-96962485D01*
X134242485Y-96851592D01*
X134372883Y-96764463D01*
X134517772Y-96704448D01*
X134671586Y-96673852D01*
X134828414Y-96673852D01*
X134982228Y-96704448D01*
G37*
G36*
X143175000Y-93850000D02*
G01*
X141375000Y-93850000D01*
X141375000Y-92050000D01*
X143175000Y-92050000D01*
X143175000Y-93850000D01*
G37*
G36*
X145076256Y-92088754D02*
G01*
X145239257Y-92156271D01*
X145385954Y-92254291D01*
X145510709Y-92379046D01*
X145608729Y-92525743D01*
X145676246Y-92688744D01*
X145710666Y-92861785D01*
X145710666Y-93038215D01*
X145676246Y-93211256D01*
X145608729Y-93374257D01*
X145510709Y-93520954D01*
X145385954Y-93645709D01*
X145239257Y-93743729D01*
X145076256Y-93811246D01*
X144903215Y-93845666D01*
X144726785Y-93845666D01*
X144553744Y-93811246D01*
X144390743Y-93743729D01*
X144244046Y-93645709D01*
X144119291Y-93520954D01*
X144021271Y-93374257D01*
X143953754Y-93211256D01*
X143919334Y-93038215D01*
X143919334Y-92861785D01*
X143953754Y-92688744D01*
X144021271Y-92525743D01*
X144119291Y-92379046D01*
X144244046Y-92254291D01*
X144390743Y-92156271D01*
X144553744Y-92088754D01*
X144726785Y-92054334D01*
X144903215Y-92054334D01*
X145076256Y-92088754D01*
G37*
G36*
X153162228Y-92224448D02*
G01*
X153307117Y-92284463D01*
X153437515Y-92371592D01*
X153548408Y-92482485D01*
X153635537Y-92612883D01*
X153695552Y-92757772D01*
X153726148Y-92911586D01*
X153726148Y-93068414D01*
X153695552Y-93222228D01*
X153635537Y-93367117D01*
X153548408Y-93497515D01*
X153437515Y-93608408D01*
X153307117Y-93695537D01*
X153162228Y-93755552D01*
X153008414Y-93786148D01*
X152851586Y-93786148D01*
X152697772Y-93755552D01*
X152552883Y-93695537D01*
X152422485Y-93608408D01*
X152311592Y-93497515D01*
X152224463Y-93367117D01*
X152164448Y-93222228D01*
X152133852Y-93068414D01*
X152133852Y-92911586D01*
X152164448Y-92757772D01*
X152224463Y-92612883D01*
X152311592Y-92482485D01*
X152422485Y-92371592D01*
X152552883Y-92284463D01*
X152697772Y-92224448D01*
X152851586Y-92193852D01*
X153008414Y-92193852D01*
X153162228Y-92224448D01*
G37*
G36*
X160782228Y-92224448D02*
G01*
X160927117Y-92284463D01*
X161057515Y-92371592D01*
X161168408Y-92482485D01*
X161255537Y-92612883D01*
X161315552Y-92757772D01*
X161346148Y-92911586D01*
X161346148Y-93068414D01*
X161315552Y-93222228D01*
X161255537Y-93367117D01*
X161168408Y-93497515D01*
X161057515Y-93608408D01*
X160927117Y-93695537D01*
X160782228Y-93755552D01*
X160628414Y-93786148D01*
X160471586Y-93786148D01*
X160317772Y-93755552D01*
X160172883Y-93695537D01*
X160042485Y-93608408D01*
X159931592Y-93497515D01*
X159844463Y-93367117D01*
X159784448Y-93222228D01*
X159753852Y-93068414D01*
X159753852Y-92911586D01*
X159784448Y-92757772D01*
X159844463Y-92612883D01*
X159931592Y-92482485D01*
X160042485Y-92371592D01*
X160172883Y-92284463D01*
X160317772Y-92224448D01*
X160471586Y-92193852D01*
X160628414Y-92193852D01*
X160782228Y-92224448D01*
G37*
G36*
X128345263Y-90444278D02*
G01*
X128471342Y-90478060D01*
X128584381Y-90543323D01*
X128676677Y-90635619D01*
X128741940Y-90748658D01*
X128775722Y-90874737D01*
X128775722Y-91005263D01*
X128741940Y-91131342D01*
X128676677Y-91244381D01*
X128584381Y-91336677D01*
X128471342Y-91401940D01*
X128345263Y-91435722D01*
X128280000Y-91440000D01*
X128278029Y-91440000D01*
X127481971Y-91440000D01*
X127480000Y-91440000D01*
X127414737Y-91435722D01*
X127288658Y-91401940D01*
X127175619Y-91336677D01*
X127083323Y-91244381D01*
X127018060Y-91131342D01*
X126984278Y-91005263D01*
X126984278Y-90874737D01*
X127018060Y-90748658D01*
X127083323Y-90635619D01*
X127175619Y-90543323D01*
X127288658Y-90478060D01*
X127414737Y-90444278D01*
X127480000Y-90440000D01*
X128280000Y-90440000D01*
X128345263Y-90444278D01*
G37*
G36*
X132675263Y-90444278D02*
G01*
X132801342Y-90478060D01*
X132914381Y-90543323D01*
X133006677Y-90635619D01*
X133071940Y-90748658D01*
X133105722Y-90874737D01*
X133105722Y-91005263D01*
X133071940Y-91131342D01*
X133006677Y-91244381D01*
X132914381Y-91336677D01*
X132801342Y-91401940D01*
X132675263Y-91435722D01*
X132610000Y-91440000D01*
X132608029Y-91440000D01*
X131511971Y-91440000D01*
X131510000Y-91440000D01*
X131444737Y-91435722D01*
X131318658Y-91401940D01*
X131205619Y-91336677D01*
X131113323Y-91244381D01*
X131048060Y-91131342D01*
X131014278Y-91005263D01*
X131014278Y-90874737D01*
X131048060Y-90748658D01*
X131113323Y-90635619D01*
X131205619Y-90543323D01*
X131318658Y-90478060D01*
X131444737Y-90444278D01*
X131510000Y-90440000D01*
X132610000Y-90440000D01*
X132675263Y-90444278D01*
G37*
G36*
X133117403Y-89531418D02*
G01*
X133166066Y-89563934D01*
X133198582Y-89612597D01*
X133210000Y-89670000D01*
X133210000Y-89970000D01*
X133198582Y-90027403D01*
X133166066Y-90076066D01*
X133117403Y-90108582D01*
X133060000Y-90120000D01*
X132210000Y-90120000D01*
X132152597Y-90108582D01*
X132103934Y-90076066D01*
X132071418Y-90027403D01*
X132060000Y-89970000D01*
X132060000Y-89670000D01*
X132071418Y-89612597D01*
X132103934Y-89563934D01*
X132152597Y-89531418D01*
X132210000Y-89520000D01*
X133060000Y-89520000D01*
X133117403Y-89531418D01*
G37*
G36*
X131684372Y-89209739D02*
G01*
X131757847Y-89252160D01*
X131817840Y-89312153D01*
X131860261Y-89385628D01*
X131882220Y-89467579D01*
X131882220Y-89552421D01*
X131860261Y-89634372D01*
X131817840Y-89707847D01*
X131757847Y-89767840D01*
X131684372Y-89810261D01*
X131602421Y-89832220D01*
X131517579Y-89832220D01*
X131435628Y-89810261D01*
X131362153Y-89767840D01*
X131302160Y-89707847D01*
X131259739Y-89634372D01*
X131237780Y-89552421D01*
X131237780Y-89467579D01*
X131259739Y-89385628D01*
X131302160Y-89312153D01*
X131362153Y-89252160D01*
X131435628Y-89209739D01*
X131517579Y-89187780D01*
X131602421Y-89187780D01*
X131684372Y-89209739D01*
G37*
G36*
X133117403Y-88731418D02*
G01*
X133166066Y-88763934D01*
X133198582Y-88812597D01*
X133210000Y-88870000D01*
X133210000Y-89170000D01*
X133198582Y-89227403D01*
X133166066Y-89276066D01*
X133117403Y-89308582D01*
X133060000Y-89320000D01*
X132210000Y-89320000D01*
X132152597Y-89308582D01*
X132103934Y-89276066D01*
X132071418Y-89227403D01*
X132060000Y-89170000D01*
X132060000Y-88870000D01*
X132071418Y-88812597D01*
X132103934Y-88763934D01*
X132152597Y-88731418D01*
X132210000Y-88720000D01*
X133060000Y-88720000D01*
X133117403Y-88731418D01*
G37*
G36*
X133163701Y-88225709D02*
G01*
X133188033Y-88241967D01*
X133204291Y-88266299D01*
X133210000Y-88295000D01*
X133210000Y-88445000D01*
X133204291Y-88473701D01*
X133188033Y-88498033D01*
X133163701Y-88514291D01*
X133135000Y-88520000D01*
X132135000Y-88520000D01*
X132106299Y-88514291D01*
X132081967Y-88498033D01*
X132065709Y-88473701D01*
X132060000Y-88445000D01*
X132060000Y-88295000D01*
X132065709Y-88266299D01*
X132081967Y-88241967D01*
X132106299Y-88225709D01*
X132135000Y-88220000D01*
X133135000Y-88220000D01*
X133163701Y-88225709D01*
G37*
G36*
X133163701Y-87725709D02*
G01*
X133188033Y-87741967D01*
X133204291Y-87766299D01*
X133210000Y-87795000D01*
X133210000Y-87945000D01*
X133204291Y-87973701D01*
X133188033Y-87998033D01*
X133163701Y-88014291D01*
X133135000Y-88020000D01*
X132135000Y-88020000D01*
X132106299Y-88014291D01*
X132081967Y-87998033D01*
X132065709Y-87973701D01*
X132060000Y-87945000D01*
X132060000Y-87795000D01*
X132065709Y-87766299D01*
X132081967Y-87741967D01*
X132106299Y-87725709D01*
X132135000Y-87720000D01*
X133135000Y-87720000D01*
X133163701Y-87725709D01*
G37*
G36*
X133163701Y-87225709D02*
G01*
X133188033Y-87241967D01*
X133204291Y-87266299D01*
X133210000Y-87295000D01*
X133210000Y-87445000D01*
X133204291Y-87473701D01*
X133188033Y-87498033D01*
X133163701Y-87514291D01*
X133135000Y-87520000D01*
X132135000Y-87520000D01*
X132106299Y-87514291D01*
X132081967Y-87498033D01*
X132065709Y-87473701D01*
X132060000Y-87445000D01*
X132060000Y-87295000D01*
X132065709Y-87266299D01*
X132081967Y-87241967D01*
X132106299Y-87225709D01*
X132135000Y-87220000D01*
X133135000Y-87220000D01*
X133163701Y-87225709D01*
G37*
G36*
X133163701Y-86725709D02*
G01*
X133188033Y-86741967D01*
X133204291Y-86766299D01*
X133210000Y-86795000D01*
X133210000Y-86945000D01*
X133204291Y-86973701D01*
X133188033Y-86998033D01*
X133163701Y-87014291D01*
X133135000Y-87020000D01*
X132135000Y-87020000D01*
X132106299Y-87014291D01*
X132081967Y-86998033D01*
X132065709Y-86973701D01*
X132060000Y-86945000D01*
X132060000Y-86795000D01*
X132065709Y-86766299D01*
X132081967Y-86741967D01*
X132106299Y-86725709D01*
X132135000Y-86720000D01*
X133135000Y-86720000D01*
X133163701Y-86725709D01*
G37*
G36*
X133163701Y-86225709D02*
G01*
X133188033Y-86241967D01*
X133204291Y-86266299D01*
X133210000Y-86295000D01*
X133210000Y-86445000D01*
X133204291Y-86473701D01*
X133188033Y-86498033D01*
X133163701Y-86514291D01*
X133135000Y-86520000D01*
X132135000Y-86520000D01*
X132106299Y-86514291D01*
X132081967Y-86498033D01*
X132065709Y-86473701D01*
X132060000Y-86445000D01*
X132060000Y-86295000D01*
X132065709Y-86266299D01*
X132081967Y-86241967D01*
X132106299Y-86225709D01*
X132135000Y-86220000D01*
X133135000Y-86220000D01*
X133163701Y-86225709D01*
G37*
G36*
X133163701Y-85725709D02*
G01*
X133188033Y-85741967D01*
X133204291Y-85766299D01*
X133210000Y-85795000D01*
X133210000Y-85945000D01*
X133204291Y-85973701D01*
X133188033Y-85998033D01*
X133163701Y-86014291D01*
X133135000Y-86020000D01*
X132135000Y-86020000D01*
X132106299Y-86014291D01*
X132081967Y-85998033D01*
X132065709Y-85973701D01*
X132060000Y-85945000D01*
X132060000Y-85795000D01*
X132065709Y-85766299D01*
X132081967Y-85741967D01*
X132106299Y-85725709D01*
X132135000Y-85720000D01*
X133135000Y-85720000D01*
X133163701Y-85725709D01*
G37*
G36*
X133163701Y-85225709D02*
G01*
X133188033Y-85241967D01*
X133204291Y-85266299D01*
X133210000Y-85295000D01*
X133210000Y-85445000D01*
X133204291Y-85473701D01*
X133188033Y-85498033D01*
X133163701Y-85514291D01*
X133135000Y-85520000D01*
X132135000Y-85520000D01*
X132106299Y-85514291D01*
X132081967Y-85498033D01*
X132065709Y-85473701D01*
X132060000Y-85445000D01*
X132060000Y-85295000D01*
X132065709Y-85266299D01*
X132081967Y-85241967D01*
X132106299Y-85225709D01*
X132135000Y-85220000D01*
X133135000Y-85220000D01*
X133163701Y-85225709D01*
G37*
G36*
X133163701Y-84725709D02*
G01*
X133188033Y-84741967D01*
X133204291Y-84766299D01*
X133210000Y-84795000D01*
X133210000Y-84945000D01*
X133204291Y-84973701D01*
X133188033Y-84998033D01*
X133163701Y-85014291D01*
X133135000Y-85020000D01*
X132135000Y-85020000D01*
X132106299Y-85014291D01*
X132081967Y-84998033D01*
X132065709Y-84973701D01*
X132060000Y-84945000D01*
X132060000Y-84795000D01*
X132065709Y-84766299D01*
X132081967Y-84741967D01*
X132106299Y-84725709D01*
X132135000Y-84720000D01*
X133135000Y-84720000D01*
X133163701Y-84725709D01*
G37*
G36*
X133117403Y-83931418D02*
G01*
X133166066Y-83963934D01*
X133198582Y-84012597D01*
X133210000Y-84070000D01*
X133210000Y-84370000D01*
X133198582Y-84427403D01*
X133166066Y-84476066D01*
X133117403Y-84508582D01*
X133060000Y-84520000D01*
X132210000Y-84520000D01*
X132152597Y-84508582D01*
X132103934Y-84476066D01*
X132071418Y-84427403D01*
X132060000Y-84370000D01*
X132060000Y-84070000D01*
X132071418Y-84012597D01*
X132103934Y-83963934D01*
X132152597Y-83931418D01*
X132210000Y-83920000D01*
X133060000Y-83920000D01*
X133117403Y-83931418D01*
G37*
G36*
X131684372Y-83429739D02*
G01*
X131757847Y-83472160D01*
X131817840Y-83532153D01*
X131860261Y-83605628D01*
X131882220Y-83687579D01*
X131882220Y-83772421D01*
X131860261Y-83854372D01*
X131817840Y-83927847D01*
X131757847Y-83987840D01*
X131684372Y-84030261D01*
X131602421Y-84052220D01*
X131517579Y-84052220D01*
X131435628Y-84030261D01*
X131362153Y-83987840D01*
X131302160Y-83927847D01*
X131259739Y-83854372D01*
X131237780Y-83772421D01*
X131237780Y-83687579D01*
X131259739Y-83605628D01*
X131302160Y-83532153D01*
X131362153Y-83472160D01*
X131435628Y-83429739D01*
X131517579Y-83407780D01*
X131602421Y-83407780D01*
X131684372Y-83429739D01*
G37*
G36*
X133117403Y-83131418D02*
G01*
X133166066Y-83163934D01*
X133198582Y-83212597D01*
X133210000Y-83270000D01*
X133210000Y-83570000D01*
X133198582Y-83627403D01*
X133166066Y-83676066D01*
X133117403Y-83708582D01*
X133060000Y-83720000D01*
X132210000Y-83720000D01*
X132152597Y-83708582D01*
X132103934Y-83676066D01*
X132071418Y-83627403D01*
X132060000Y-83570000D01*
X132060000Y-83270000D01*
X132071418Y-83212597D01*
X132103934Y-83163934D01*
X132152597Y-83131418D01*
X132210000Y-83120000D01*
X133060000Y-83120000D01*
X133117403Y-83131418D01*
G37*
G36*
X128345263Y-81804278D02*
G01*
X128471342Y-81838060D01*
X128584381Y-81903323D01*
X128676677Y-81995619D01*
X128741940Y-82108658D01*
X128775722Y-82234737D01*
X128775722Y-82365263D01*
X128741940Y-82491342D01*
X128676677Y-82604381D01*
X128584381Y-82696677D01*
X128471342Y-82761940D01*
X128345263Y-82795722D01*
X128280000Y-82800000D01*
X128278029Y-82800000D01*
X127481971Y-82800000D01*
X127480000Y-82800000D01*
X127414737Y-82795722D01*
X127288658Y-82761940D01*
X127175619Y-82696677D01*
X127083323Y-82604381D01*
X127018060Y-82491342D01*
X126984278Y-82365263D01*
X126984278Y-82234737D01*
X127018060Y-82108658D01*
X127083323Y-81995619D01*
X127175619Y-81903323D01*
X127288658Y-81838060D01*
X127414737Y-81804278D01*
X127480000Y-81800000D01*
X128280000Y-81800000D01*
X128345263Y-81804278D01*
G37*
G36*
X132675263Y-81804278D02*
G01*
X132801342Y-81838060D01*
X132914381Y-81903323D01*
X133006677Y-81995619D01*
X133071940Y-82108658D01*
X133105722Y-82234737D01*
X133105722Y-82365263D01*
X133071940Y-82491342D01*
X133006677Y-82604381D01*
X132914381Y-82696677D01*
X132801342Y-82761940D01*
X132675263Y-82795722D01*
X132610000Y-82800000D01*
X132608029Y-82800000D01*
X131511971Y-82800000D01*
X131510000Y-82800000D01*
X131444737Y-82795722D01*
X131318658Y-82761940D01*
X131205619Y-82696677D01*
X131113323Y-82604381D01*
X131048060Y-82491342D01*
X131014278Y-82365263D01*
X131014278Y-82234737D01*
X131048060Y-82108658D01*
X131113323Y-81995619D01*
X131205619Y-81903323D01*
X131318658Y-81838060D01*
X131444737Y-81804278D01*
X131510000Y-81800000D01*
X132610000Y-81800000D01*
X132675263Y-81804278D01*
G37*
G36*
X153192228Y-80784448D02*
G01*
X153337117Y-80844463D01*
X153467515Y-80931592D01*
X153578408Y-81042485D01*
X153665537Y-81172883D01*
X153725552Y-81317772D01*
X153756148Y-81471586D01*
X153756148Y-81628414D01*
X153725552Y-81782228D01*
X153665537Y-81927117D01*
X153578408Y-82057515D01*
X153467515Y-82168408D01*
X153337117Y-82255537D01*
X153192228Y-82315552D01*
X153038414Y-82346148D01*
X152881586Y-82346148D01*
X152727772Y-82315552D01*
X152582883Y-82255537D01*
X152452485Y-82168408D01*
X152341592Y-82057515D01*
X152254463Y-81927117D01*
X152194448Y-81782228D01*
X152163852Y-81628414D01*
X152163852Y-81471586D01*
X152194448Y-81317772D01*
X152254463Y-81172883D01*
X152341592Y-81042485D01*
X152452485Y-80931592D01*
X152582883Y-80844463D01*
X152727772Y-80784448D01*
X152881586Y-80753852D01*
X153038414Y-80753852D01*
X153192228Y-80784448D01*
G37*
G36*
X160812228Y-80784448D02*
G01*
X160957117Y-80844463D01*
X161087515Y-80931592D01*
X161198408Y-81042485D01*
X161285537Y-81172883D01*
X161345552Y-81317772D01*
X161376148Y-81471586D01*
X161376148Y-81628414D01*
X161345552Y-81782228D01*
X161285537Y-81927117D01*
X161198408Y-82057515D01*
X161087515Y-82168408D01*
X160957117Y-82255537D01*
X160812228Y-82315552D01*
X160658414Y-82346148D01*
X160501586Y-82346148D01*
X160347772Y-82315552D01*
X160202883Y-82255537D01*
X160072485Y-82168408D01*
X159961592Y-82057515D01*
X159874463Y-81927117D01*
X159814448Y-81782228D01*
X159783852Y-81628414D01*
X159783852Y-81471586D01*
X159814448Y-81317772D01*
X159874463Y-81172883D01*
X159961592Y-81042485D01*
X160072485Y-80931592D01*
X160202883Y-80844463D01*
X160347772Y-80784448D01*
X160501586Y-80753852D01*
X160658414Y-80753852D01*
X160812228Y-80784448D01*
G37*
G36*
X142855000Y-81990000D02*
G01*
X141055000Y-81990000D01*
X141055000Y-80190000D01*
X142855000Y-80190000D01*
X142855000Y-81990000D01*
G37*
G36*
X144756256Y-80228754D02*
G01*
X144919257Y-80296271D01*
X145065954Y-80394291D01*
X145190709Y-80519046D01*
X145288729Y-80665743D01*
X145356246Y-80828744D01*
X145390666Y-81001785D01*
X145390666Y-81178215D01*
X145356246Y-81351256D01*
X145288729Y-81514257D01*
X145190709Y-81660954D01*
X145065954Y-81785709D01*
X144919257Y-81883729D01*
X144756256Y-81951246D01*
X144583215Y-81985666D01*
X144406785Y-81985666D01*
X144233744Y-81951246D01*
X144070743Y-81883729D01*
X143924046Y-81785709D01*
X143799291Y-81660954D01*
X143701271Y-81514257D01*
X143633754Y-81351256D01*
X143599334Y-81178215D01*
X143599334Y-81001785D01*
X143633754Y-80828744D01*
X143701271Y-80665743D01*
X143799291Y-80519046D01*
X143924046Y-80394291D01*
X144070743Y-80296271D01*
X144233744Y-80228754D01*
X144406785Y-80194334D01*
X144583215Y-80194334D01*
X144756256Y-80228754D01*
G37*
G36*
X127362228Y-75294448D02*
G01*
X127507117Y-75354463D01*
X127637515Y-75441592D01*
X127748408Y-75552485D01*
X127835537Y-75682883D01*
X127895552Y-75827772D01*
X127926148Y-75981586D01*
X127926148Y-76138414D01*
X127895552Y-76292228D01*
X127835537Y-76437117D01*
X127748408Y-76567515D01*
X127637515Y-76678408D01*
X127507117Y-76765537D01*
X127362228Y-76825552D01*
X127208414Y-76856148D01*
X127051586Y-76856148D01*
X126897772Y-76825552D01*
X126752883Y-76765537D01*
X126622485Y-76678408D01*
X126511592Y-76567515D01*
X126424463Y-76437117D01*
X126364448Y-76292228D01*
X126333852Y-76138414D01*
X126333852Y-75981586D01*
X126364448Y-75827772D01*
X126424463Y-75682883D01*
X126511592Y-75552485D01*
X126622485Y-75441592D01*
X126752883Y-75354463D01*
X126897772Y-75294448D01*
X127051586Y-75263852D01*
X127208414Y-75263852D01*
X127362228Y-75294448D01*
G37*
G36*
X134982228Y-75294448D02*
G01*
X135127117Y-75354463D01*
X135257515Y-75441592D01*
X135368408Y-75552485D01*
X135455537Y-75682883D01*
X135515552Y-75827772D01*
X135546148Y-75981586D01*
X135546148Y-76138414D01*
X135515552Y-76292228D01*
X135455537Y-76437117D01*
X135368408Y-76567515D01*
X135257515Y-76678408D01*
X135127117Y-76765537D01*
X134982228Y-76825552D01*
X134828414Y-76856148D01*
X134671586Y-76856148D01*
X134517772Y-76825552D01*
X134372883Y-76765537D01*
X134242485Y-76678408D01*
X134131592Y-76567515D01*
X134044463Y-76437117D01*
X133984448Y-76292228D01*
X133953852Y-76138414D01*
X133953852Y-75981586D01*
X133984448Y-75827772D01*
X134044463Y-75682883D01*
X134131592Y-75552485D01*
X134242485Y-75441592D01*
X134372883Y-75354463D01*
X134517772Y-75294448D01*
X134671586Y-75263852D01*
X134828414Y-75263852D01*
X134982228Y-75294448D01*
G37*
G36*
X169868742Y-72996601D02*
G01*
X170022687Y-73060367D01*
X170161234Y-73152941D01*
X170279059Y-73270766D01*
X170371633Y-73409313D01*
X170435399Y-73563258D01*
X170467907Y-73726685D01*
X170467907Y-73893315D01*
X170435399Y-74056742D01*
X170371633Y-74210687D01*
X170279059Y-74349234D01*
X170161234Y-74467059D01*
X170022687Y-74559633D01*
X169868742Y-74623399D01*
X169705315Y-74655907D01*
X169538685Y-74655907D01*
X169375258Y-74623399D01*
X169221313Y-74559633D01*
X169082766Y-74467059D01*
X168964941Y-74349234D01*
X168872367Y-74210687D01*
X168808601Y-74056742D01*
X168776093Y-73893315D01*
X168776093Y-73726685D01*
X168808601Y-73563258D01*
X168872367Y-73409313D01*
X168964941Y-73270766D01*
X169082766Y-73152941D01*
X169221313Y-73060367D01*
X169375258Y-72996601D01*
X169538685Y-72964093D01*
X169705315Y-72964093D01*
X169868742Y-72996601D01*
G37*
G36*
X218732000Y-74650000D02*
G01*
X217032000Y-74650000D01*
X217032000Y-72950000D01*
X218732000Y-72950000D01*
X218732000Y-74650000D01*
G37*
G36*
X172408742Y-72986601D02*
G01*
X172562687Y-73050367D01*
X172701234Y-73142941D01*
X172819059Y-73260766D01*
X172911633Y-73399313D01*
X172975399Y-73553258D01*
X173007907Y-73716685D01*
X173007907Y-73883315D01*
X172975399Y-74046742D01*
X172911633Y-74200687D01*
X172819059Y-74339234D01*
X172701234Y-74457059D01*
X172562687Y-74549633D01*
X172408742Y-74613399D01*
X172245315Y-74645907D01*
X172078685Y-74645907D01*
X171915258Y-74613399D01*
X171761313Y-74549633D01*
X171622766Y-74457059D01*
X171504941Y-74339234D01*
X171412367Y-74200687D01*
X171348601Y-74046742D01*
X171316093Y-73883315D01*
X171316093Y-73716685D01*
X171348601Y-73553258D01*
X171412367Y-73399313D01*
X171504941Y-73260766D01*
X171622766Y-73142941D01*
X171761313Y-73050367D01*
X171915258Y-72986601D01*
X172078685Y-72954093D01*
X172245315Y-72954093D01*
X172408742Y-72986601D01*
G37*
G36*
X174948742Y-72986601D02*
G01*
X175102687Y-73050367D01*
X175241234Y-73142941D01*
X175359059Y-73260766D01*
X175451633Y-73399313D01*
X175515399Y-73553258D01*
X175547907Y-73716685D01*
X175547907Y-73883315D01*
X175515399Y-74046742D01*
X175451633Y-74200687D01*
X175359059Y-74339234D01*
X175241234Y-74457059D01*
X175102687Y-74549633D01*
X174948742Y-74613399D01*
X174785315Y-74645907D01*
X174618685Y-74645907D01*
X174455258Y-74613399D01*
X174301313Y-74549633D01*
X174162766Y-74457059D01*
X174044941Y-74339234D01*
X173952367Y-74200687D01*
X173888601Y-74046742D01*
X173856093Y-73883315D01*
X173856093Y-73716685D01*
X173888601Y-73553258D01*
X173952367Y-73399313D01*
X174044941Y-73260766D01*
X174162766Y-73142941D01*
X174301313Y-73050367D01*
X174455258Y-72986601D01*
X174618685Y-72954093D01*
X174785315Y-72954093D01*
X174948742Y-72986601D01*
G37*
G36*
X177488742Y-72986601D02*
G01*
X177642687Y-73050367D01*
X177781234Y-73142941D01*
X177899059Y-73260766D01*
X177991633Y-73399313D01*
X178055399Y-73553258D01*
X178087907Y-73716685D01*
X178087907Y-73883315D01*
X178055399Y-74046742D01*
X177991633Y-74200687D01*
X177899059Y-74339234D01*
X177781234Y-74457059D01*
X177642687Y-74549633D01*
X177488742Y-74613399D01*
X177325315Y-74645907D01*
X177158685Y-74645907D01*
X176995258Y-74613399D01*
X176841313Y-74549633D01*
X176702766Y-74457059D01*
X176584941Y-74339234D01*
X176492367Y-74200687D01*
X176428601Y-74046742D01*
X176396093Y-73883315D01*
X176396093Y-73716685D01*
X176428601Y-73553258D01*
X176492367Y-73399313D01*
X176584941Y-73260766D01*
X176702766Y-73142941D01*
X176841313Y-73050367D01*
X176995258Y-72986601D01*
X177158685Y-72954093D01*
X177325315Y-72954093D01*
X177488742Y-72986601D01*
G37*
G36*
X180028742Y-72986601D02*
G01*
X180182687Y-73050367D01*
X180321234Y-73142941D01*
X180439059Y-73260766D01*
X180531633Y-73399313D01*
X180595399Y-73553258D01*
X180627907Y-73716685D01*
X180627907Y-73883315D01*
X180595399Y-74046742D01*
X180531633Y-74200687D01*
X180439059Y-74339234D01*
X180321234Y-74457059D01*
X180182687Y-74549633D01*
X180028742Y-74613399D01*
X179865315Y-74645907D01*
X179698685Y-74645907D01*
X179535258Y-74613399D01*
X179381313Y-74549633D01*
X179242766Y-74457059D01*
X179124941Y-74339234D01*
X179032367Y-74200687D01*
X178968601Y-74046742D01*
X178936093Y-73883315D01*
X178936093Y-73716685D01*
X178968601Y-73553258D01*
X179032367Y-73399313D01*
X179124941Y-73260766D01*
X179242766Y-73142941D01*
X179381313Y-73050367D01*
X179535258Y-72986601D01*
X179698685Y-72954093D01*
X179865315Y-72954093D01*
X180028742Y-72986601D01*
G37*
G36*
X182568742Y-72986601D02*
G01*
X182722687Y-73050367D01*
X182861234Y-73142941D01*
X182979059Y-73260766D01*
X183071633Y-73399313D01*
X183135399Y-73553258D01*
X183167907Y-73716685D01*
X183167907Y-73883315D01*
X183135399Y-74046742D01*
X183071633Y-74200687D01*
X182979059Y-74339234D01*
X182861234Y-74457059D01*
X182722687Y-74549633D01*
X182568742Y-74613399D01*
X182405315Y-74645907D01*
X182238685Y-74645907D01*
X182075258Y-74613399D01*
X181921313Y-74549633D01*
X181782766Y-74457059D01*
X181664941Y-74339234D01*
X181572367Y-74200687D01*
X181508601Y-74046742D01*
X181476093Y-73883315D01*
X181476093Y-73716685D01*
X181508601Y-73553258D01*
X181572367Y-73399313D01*
X181664941Y-73260766D01*
X181782766Y-73142941D01*
X181921313Y-73050367D01*
X182075258Y-72986601D01*
X182238685Y-72954093D01*
X182405315Y-72954093D01*
X182568742Y-72986601D01*
G37*
G36*
X185108742Y-72986601D02*
G01*
X185262687Y-73050367D01*
X185401234Y-73142941D01*
X185519059Y-73260766D01*
X185611633Y-73399313D01*
X185675399Y-73553258D01*
X185707907Y-73716685D01*
X185707907Y-73883315D01*
X185675399Y-74046742D01*
X185611633Y-74200687D01*
X185519059Y-74339234D01*
X185401234Y-74457059D01*
X185262687Y-74549633D01*
X185108742Y-74613399D01*
X184945315Y-74645907D01*
X184778685Y-74645907D01*
X184615258Y-74613399D01*
X184461313Y-74549633D01*
X184322766Y-74457059D01*
X184204941Y-74339234D01*
X184112367Y-74200687D01*
X184048601Y-74046742D01*
X184016093Y-73883315D01*
X184016093Y-73716685D01*
X184048601Y-73553258D01*
X184112367Y-73399313D01*
X184204941Y-73260766D01*
X184322766Y-73142941D01*
X184461313Y-73050367D01*
X184615258Y-72986601D01*
X184778685Y-72954093D01*
X184945315Y-72954093D01*
X185108742Y-72986601D01*
G37*
G36*
X187648742Y-72986601D02*
G01*
X187802687Y-73050367D01*
X187941234Y-73142941D01*
X188059059Y-73260766D01*
X188151633Y-73399313D01*
X188215399Y-73553258D01*
X188247907Y-73716685D01*
X188247907Y-73883315D01*
X188215399Y-74046742D01*
X188151633Y-74200687D01*
X188059059Y-74339234D01*
X187941234Y-74457059D01*
X187802687Y-74549633D01*
X187648742Y-74613399D01*
X187485315Y-74645907D01*
X187318685Y-74645907D01*
X187155258Y-74613399D01*
X187001313Y-74549633D01*
X186862766Y-74457059D01*
X186744941Y-74339234D01*
X186652367Y-74200687D01*
X186588601Y-74046742D01*
X186556093Y-73883315D01*
X186556093Y-73716685D01*
X186588601Y-73553258D01*
X186652367Y-73399313D01*
X186744941Y-73260766D01*
X186862766Y-73142941D01*
X187001313Y-73050367D01*
X187155258Y-72986601D01*
X187318685Y-72954093D01*
X187485315Y-72954093D01*
X187648742Y-72986601D01*
G37*
G36*
X190188742Y-72986601D02*
G01*
X190342687Y-73050367D01*
X190481234Y-73142941D01*
X190599059Y-73260766D01*
X190691633Y-73399313D01*
X190755399Y-73553258D01*
X190787907Y-73716685D01*
X190787907Y-73883315D01*
X190755399Y-74046742D01*
X190691633Y-74200687D01*
X190599059Y-74339234D01*
X190481234Y-74457059D01*
X190342687Y-74549633D01*
X190188742Y-74613399D01*
X190025315Y-74645907D01*
X189858685Y-74645907D01*
X189695258Y-74613399D01*
X189541313Y-74549633D01*
X189402766Y-74457059D01*
X189284941Y-74339234D01*
X189192367Y-74200687D01*
X189128601Y-74046742D01*
X189096093Y-73883315D01*
X189096093Y-73716685D01*
X189128601Y-73553258D01*
X189192367Y-73399313D01*
X189284941Y-73260766D01*
X189402766Y-73142941D01*
X189541313Y-73050367D01*
X189695258Y-72986601D01*
X189858685Y-72954093D01*
X190025315Y-72954093D01*
X190188742Y-72986601D01*
G37*
G36*
X192728742Y-72986601D02*
G01*
X192882687Y-73050367D01*
X193021234Y-73142941D01*
X193139059Y-73260766D01*
X193231633Y-73399313D01*
X193295399Y-73553258D01*
X193327907Y-73716685D01*
X193327907Y-73883315D01*
X193295399Y-74046742D01*
X193231633Y-74200687D01*
X193139059Y-74339234D01*
X193021234Y-74457059D01*
X192882687Y-74549633D01*
X192728742Y-74613399D01*
X192565315Y-74645907D01*
X192398685Y-74645907D01*
X192235258Y-74613399D01*
X192081313Y-74549633D01*
X191942766Y-74457059D01*
X191824941Y-74339234D01*
X191732367Y-74200687D01*
X191668601Y-74046742D01*
X191636093Y-73883315D01*
X191636093Y-73716685D01*
X191668601Y-73553258D01*
X191732367Y-73399313D01*
X191824941Y-73260766D01*
X191942766Y-73142941D01*
X192081313Y-73050367D01*
X192235258Y-72986601D01*
X192398685Y-72954093D01*
X192565315Y-72954093D01*
X192728742Y-72986601D01*
G37*
G36*
X195268742Y-72986601D02*
G01*
X195422687Y-73050367D01*
X195561234Y-73142941D01*
X195679059Y-73260766D01*
X195771633Y-73399313D01*
X195835399Y-73553258D01*
X195867907Y-73716685D01*
X195867907Y-73883315D01*
X195835399Y-74046742D01*
X195771633Y-74200687D01*
X195679059Y-74339234D01*
X195561234Y-74457059D01*
X195422687Y-74549633D01*
X195268742Y-74613399D01*
X195105315Y-74645907D01*
X194938685Y-74645907D01*
X194775258Y-74613399D01*
X194621313Y-74549633D01*
X194482766Y-74457059D01*
X194364941Y-74339234D01*
X194272367Y-74200687D01*
X194208601Y-74046742D01*
X194176093Y-73883315D01*
X194176093Y-73716685D01*
X194208601Y-73553258D01*
X194272367Y-73399313D01*
X194364941Y-73260766D01*
X194482766Y-73142941D01*
X194621313Y-73050367D01*
X194775258Y-72986601D01*
X194938685Y-72954093D01*
X195105315Y-72954093D01*
X195268742Y-72986601D01*
G37*
G36*
X197808742Y-72986601D02*
G01*
X197962687Y-73050367D01*
X198101234Y-73142941D01*
X198219059Y-73260766D01*
X198311633Y-73399313D01*
X198375399Y-73553258D01*
X198407907Y-73716685D01*
X198407907Y-73883315D01*
X198375399Y-74046742D01*
X198311633Y-74200687D01*
X198219059Y-74339234D01*
X198101234Y-74457059D01*
X197962687Y-74549633D01*
X197808742Y-74613399D01*
X197645315Y-74645907D01*
X197478685Y-74645907D01*
X197315258Y-74613399D01*
X197161313Y-74549633D01*
X197022766Y-74457059D01*
X196904941Y-74339234D01*
X196812367Y-74200687D01*
X196748601Y-74046742D01*
X196716093Y-73883315D01*
X196716093Y-73716685D01*
X196748601Y-73553258D01*
X196812367Y-73399313D01*
X196904941Y-73260766D01*
X197022766Y-73142941D01*
X197161313Y-73050367D01*
X197315258Y-72986601D01*
X197478685Y-72954093D01*
X197645315Y-72954093D01*
X197808742Y-72986601D01*
G37*
G36*
X200348742Y-72986601D02*
G01*
X200502687Y-73050367D01*
X200641234Y-73142941D01*
X200759059Y-73260766D01*
X200851633Y-73399313D01*
X200915399Y-73553258D01*
X200947907Y-73716685D01*
X200947907Y-73883315D01*
X200915399Y-74046742D01*
X200851633Y-74200687D01*
X200759059Y-74339234D01*
X200641234Y-74457059D01*
X200502687Y-74549633D01*
X200348742Y-74613399D01*
X200185315Y-74645907D01*
X200018685Y-74645907D01*
X199855258Y-74613399D01*
X199701313Y-74549633D01*
X199562766Y-74457059D01*
X199444941Y-74339234D01*
X199352367Y-74200687D01*
X199288601Y-74046742D01*
X199256093Y-73883315D01*
X199256093Y-73716685D01*
X199288601Y-73553258D01*
X199352367Y-73399313D01*
X199444941Y-73260766D01*
X199562766Y-73142941D01*
X199701313Y-73050367D01*
X199855258Y-72986601D01*
X200018685Y-72954093D01*
X200185315Y-72954093D01*
X200348742Y-72986601D01*
G37*
G36*
X202888742Y-72986601D02*
G01*
X203042687Y-73050367D01*
X203181234Y-73142941D01*
X203299059Y-73260766D01*
X203391633Y-73399313D01*
X203455399Y-73553258D01*
X203487907Y-73716685D01*
X203487907Y-73883315D01*
X203455399Y-74046742D01*
X203391633Y-74200687D01*
X203299059Y-74339234D01*
X203181234Y-74457059D01*
X203042687Y-74549633D01*
X202888742Y-74613399D01*
X202725315Y-74645907D01*
X202558685Y-74645907D01*
X202395258Y-74613399D01*
X202241313Y-74549633D01*
X202102766Y-74457059D01*
X201984941Y-74339234D01*
X201892367Y-74200687D01*
X201828601Y-74046742D01*
X201796093Y-73883315D01*
X201796093Y-73716685D01*
X201828601Y-73553258D01*
X201892367Y-73399313D01*
X201984941Y-73260766D01*
X202102766Y-73142941D01*
X202241313Y-73050367D01*
X202395258Y-72986601D01*
X202558685Y-72954093D01*
X202725315Y-72954093D01*
X202888742Y-72986601D01*
G37*
G36*
X205428742Y-72986601D02*
G01*
X205582687Y-73050367D01*
X205721234Y-73142941D01*
X205839059Y-73260766D01*
X205931633Y-73399313D01*
X205995399Y-73553258D01*
X206027907Y-73716685D01*
X206027907Y-73883315D01*
X205995399Y-74046742D01*
X205931633Y-74200687D01*
X205839059Y-74339234D01*
X205721234Y-74457059D01*
X205582687Y-74549633D01*
X205428742Y-74613399D01*
X205265315Y-74645907D01*
X205098685Y-74645907D01*
X204935258Y-74613399D01*
X204781313Y-74549633D01*
X204642766Y-74457059D01*
X204524941Y-74339234D01*
X204432367Y-74200687D01*
X204368601Y-74046742D01*
X204336093Y-73883315D01*
X204336093Y-73716685D01*
X204368601Y-73553258D01*
X204432367Y-73399313D01*
X204524941Y-73260766D01*
X204642766Y-73142941D01*
X204781313Y-73050367D01*
X204935258Y-72986601D01*
X205098685Y-72954093D01*
X205265315Y-72954093D01*
X205428742Y-72986601D01*
G37*
G36*
X207968742Y-72986601D02*
G01*
X208122687Y-73050367D01*
X208261234Y-73142941D01*
X208379059Y-73260766D01*
X208471633Y-73399313D01*
X208535399Y-73553258D01*
X208567907Y-73716685D01*
X208567907Y-73883315D01*
X208535399Y-74046742D01*
X208471633Y-74200687D01*
X208379059Y-74339234D01*
X208261234Y-74457059D01*
X208122687Y-74549633D01*
X207968742Y-74613399D01*
X207805315Y-74645907D01*
X207638685Y-74645907D01*
X207475258Y-74613399D01*
X207321313Y-74549633D01*
X207182766Y-74457059D01*
X207064941Y-74339234D01*
X206972367Y-74200687D01*
X206908601Y-74046742D01*
X206876093Y-73883315D01*
X206876093Y-73716685D01*
X206908601Y-73553258D01*
X206972367Y-73399313D01*
X207064941Y-73260766D01*
X207182766Y-73142941D01*
X207321313Y-73050367D01*
X207475258Y-72986601D01*
X207638685Y-72954093D01*
X207805315Y-72954093D01*
X207968742Y-72986601D01*
G37*
G36*
X210508742Y-72986601D02*
G01*
X210662687Y-73050367D01*
X210801234Y-73142941D01*
X210919059Y-73260766D01*
X211011633Y-73399313D01*
X211075399Y-73553258D01*
X211107907Y-73716685D01*
X211107907Y-73883315D01*
X211075399Y-74046742D01*
X211011633Y-74200687D01*
X210919059Y-74339234D01*
X210801234Y-74457059D01*
X210662687Y-74549633D01*
X210508742Y-74613399D01*
X210345315Y-74645907D01*
X210178685Y-74645907D01*
X210015258Y-74613399D01*
X209861313Y-74549633D01*
X209722766Y-74457059D01*
X209604941Y-74339234D01*
X209512367Y-74200687D01*
X209448601Y-74046742D01*
X209416093Y-73883315D01*
X209416093Y-73716685D01*
X209448601Y-73553258D01*
X209512367Y-73399313D01*
X209604941Y-73260766D01*
X209722766Y-73142941D01*
X209861313Y-73050367D01*
X210015258Y-72986601D01*
X210178685Y-72954093D01*
X210345315Y-72954093D01*
X210508742Y-72986601D01*
G37*
G36*
X213048742Y-72986601D02*
G01*
X213202687Y-73050367D01*
X213341234Y-73142941D01*
X213459059Y-73260766D01*
X213551633Y-73399313D01*
X213615399Y-73553258D01*
X213647907Y-73716685D01*
X213647907Y-73883315D01*
X213615399Y-74046742D01*
X213551633Y-74200687D01*
X213459059Y-74339234D01*
X213341234Y-74457059D01*
X213202687Y-74549633D01*
X213048742Y-74613399D01*
X212885315Y-74645907D01*
X212718685Y-74645907D01*
X212555258Y-74613399D01*
X212401313Y-74549633D01*
X212262766Y-74457059D01*
X212144941Y-74339234D01*
X212052367Y-74200687D01*
X211988601Y-74046742D01*
X211956093Y-73883315D01*
X211956093Y-73716685D01*
X211988601Y-73553258D01*
X212052367Y-73399313D01*
X212144941Y-73260766D01*
X212262766Y-73142941D01*
X212401313Y-73050367D01*
X212555258Y-72986601D01*
X212718685Y-72954093D01*
X212885315Y-72954093D01*
X213048742Y-72986601D01*
G37*
G36*
X215588742Y-72986601D02*
G01*
X215742687Y-73050367D01*
X215881234Y-73142941D01*
X215999059Y-73260766D01*
X216091633Y-73399313D01*
X216155399Y-73553258D01*
X216187907Y-73716685D01*
X216187907Y-73883315D01*
X216155399Y-74046742D01*
X216091633Y-74200687D01*
X215999059Y-74339234D01*
X215881234Y-74457059D01*
X215742687Y-74549633D01*
X215588742Y-74613399D01*
X215425315Y-74645907D01*
X215258685Y-74645907D01*
X215095258Y-74613399D01*
X214941313Y-74549633D01*
X214802766Y-74457059D01*
X214684941Y-74339234D01*
X214592367Y-74200687D01*
X214528601Y-74046742D01*
X214496093Y-73883315D01*
X214496093Y-73716685D01*
X214528601Y-73553258D01*
X214592367Y-73399313D01*
X214684941Y-73260766D01*
X214802766Y-73142941D01*
X214941313Y-73050367D01*
X215095258Y-72986601D01*
X215258685Y-72954093D01*
X215425315Y-72954093D01*
X215588742Y-72986601D01*
G37*
G36*
X153496537Y-72885224D02*
G01*
X153561421Y-72928579D01*
X153604776Y-72993463D01*
X153620000Y-73070000D01*
X153620000Y-73970000D01*
X153604776Y-74046537D01*
X153561421Y-74111421D01*
X153496537Y-74154776D01*
X153420000Y-74170000D01*
X153020000Y-74170000D01*
X152943463Y-74154776D01*
X152878579Y-74111421D01*
X152835224Y-74046537D01*
X152820000Y-73970000D01*
X152820000Y-73070000D01*
X152835224Y-72993463D01*
X152878579Y-72928579D01*
X152943463Y-72885224D01*
X153020000Y-72870000D01*
X153420000Y-72870000D01*
X153496537Y-72885224D01*
G37*
G36*
X154623073Y-72900448D02*
G01*
X154713505Y-72952659D01*
X154787341Y-73026495D01*
X154839552Y-73116927D01*
X154866578Y-73217790D01*
X154870000Y-73270000D01*
X154870000Y-73770000D01*
X154866578Y-73822210D01*
X154839552Y-73923073D01*
X154787341Y-74013505D01*
X154713505Y-74087341D01*
X154623073Y-74139552D01*
X154522210Y-74166578D01*
X154417790Y-74166578D01*
X154316927Y-74139552D01*
X154226495Y-74087341D01*
X154152659Y-74013505D01*
X154100448Y-73923073D01*
X154073422Y-73822210D01*
X154070000Y-73770000D01*
X154070000Y-73270000D01*
X154073422Y-73217790D01*
X154100448Y-73116927D01*
X154152659Y-73026495D01*
X154226495Y-72952659D01*
X154316927Y-72900448D01*
X154417790Y-72873422D01*
X154522210Y-72873422D01*
X154623073Y-72900448D01*
G37*
G36*
X155873073Y-72900448D02*
G01*
X155963505Y-72952659D01*
X156037341Y-73026495D01*
X156089552Y-73116927D01*
X156116578Y-73217790D01*
X156120000Y-73270000D01*
X156120000Y-73770000D01*
X156116578Y-73822210D01*
X156089552Y-73923073D01*
X156037341Y-74013505D01*
X155963505Y-74087341D01*
X155873073Y-74139552D01*
X155772210Y-74166578D01*
X155667790Y-74166578D01*
X155566927Y-74139552D01*
X155476495Y-74087341D01*
X155402659Y-74013505D01*
X155350448Y-73923073D01*
X155323422Y-73822210D01*
X155320000Y-73770000D01*
X155320000Y-73270000D01*
X155323422Y-73217790D01*
X155350448Y-73116927D01*
X155402659Y-73026495D01*
X155476495Y-72952659D01*
X155566927Y-72900448D01*
X155667790Y-72873422D01*
X155772210Y-72873422D01*
X155873073Y-72900448D01*
G37*
G36*
X157123073Y-72900448D02*
G01*
X157213505Y-72952659D01*
X157287341Y-73026495D01*
X157339552Y-73116927D01*
X157366578Y-73217790D01*
X157370000Y-73270000D01*
X157370000Y-73770000D01*
X157366578Y-73822210D01*
X157339552Y-73923073D01*
X157287341Y-74013505D01*
X157213505Y-74087341D01*
X157123073Y-74139552D01*
X157022210Y-74166578D01*
X156917790Y-74166578D01*
X156816927Y-74139552D01*
X156726495Y-74087341D01*
X156652659Y-74013505D01*
X156600448Y-73923073D01*
X156573422Y-73822210D01*
X156570000Y-73770000D01*
X156570000Y-73270000D01*
X156573422Y-73217790D01*
X156600448Y-73116927D01*
X156652659Y-73026495D01*
X156726495Y-72952659D01*
X156816927Y-72900448D01*
X156917790Y-72873422D01*
X157022210Y-72873422D01*
X157123073Y-72900448D01*
G37*
G36*
X158373073Y-72900448D02*
G01*
X158463505Y-72952659D01*
X158537341Y-73026495D01*
X158589552Y-73116927D01*
X158616578Y-73217790D01*
X158620000Y-73270000D01*
X158620000Y-73770000D01*
X158616578Y-73822210D01*
X158589552Y-73923073D01*
X158537341Y-74013505D01*
X158463505Y-74087341D01*
X158373073Y-74139552D01*
X158272210Y-74166578D01*
X158167790Y-74166578D01*
X158066927Y-74139552D01*
X157976495Y-74087341D01*
X157902659Y-74013505D01*
X157850448Y-73923073D01*
X157823422Y-73822210D01*
X157820000Y-73770000D01*
X157820000Y-73270000D01*
X157823422Y-73217790D01*
X157850448Y-73116927D01*
X157902659Y-73026495D01*
X157976495Y-72952659D01*
X158066927Y-72900448D01*
X158167790Y-72873422D01*
X158272210Y-72873422D01*
X158373073Y-72900448D01*
G37*
G36*
X159623073Y-72900448D02*
G01*
X159713505Y-72952659D01*
X159787341Y-73026495D01*
X159839552Y-73116927D01*
X159866578Y-73217790D01*
X159870000Y-73270000D01*
X159870000Y-73770000D01*
X159866578Y-73822210D01*
X159839552Y-73923073D01*
X159787341Y-74013505D01*
X159713505Y-74087341D01*
X159623073Y-74139552D01*
X159522210Y-74166578D01*
X159417790Y-74166578D01*
X159316927Y-74139552D01*
X159226495Y-74087341D01*
X159152659Y-74013505D01*
X159100448Y-73923073D01*
X159073422Y-73822210D01*
X159070000Y-73770000D01*
X159070000Y-73270000D01*
X159073422Y-73217790D01*
X159100448Y-73116927D01*
X159152659Y-73026495D01*
X159226495Y-72952659D01*
X159316927Y-72900448D01*
X159417790Y-72873422D01*
X159522210Y-72873422D01*
X159623073Y-72900448D01*
G37*
M02*
