M48
; DRILL file {KiCad 9.0.6-9.0.6~ubuntu24.04.1} date 2025-12-30T16:15:24+0100
; FORMAT={-:-/ absolute / metric / decimal}
; #@! TF.CreationDate,2025-12-30T16:15:24+01:00
; #@! TF.GenerationSoftware,Kicad,Pcbnew,9.0.6-9.0.6~ubuntu24.04.1
; #@! TF.FileFunction,Plated,1,4,PTH
FMAT,2
METRIC
; #@! TA.AperFunction,Plated,PTH,ViaDrill
T1C0.300
; #@! TA.AperFunction,Plated,PTH,ComponentDrill
T2C0.500
; #@! TA.AperFunction,Plated,PTH,ComponentDrill
T3C0.600
; #@! TA.AperFunction,Plated,PTH,ComponentDrill
T4C0.800
; #@! TA.AperFunction,Plated,PTH,ComponentDrill
T5C0.900
; #@! TA.AperFunction,Plated,PTH,ComponentDrill
T6C1.000
%
G90
G05
T1
X134.27Y-88.37
X134.29Y-85.75
T2
X153.22Y-73.52
X154.47Y-73.52
X155.72Y-73.52
X156.97Y-73.52
X158.22Y-73.52
X159.47Y-73.52
T4
X127.13Y-76.06
X127.13Y-97.47
X134.75Y-76.06
X134.75Y-97.47
X152.93Y-92.99
X152.96Y-81.55
X160.55Y-92.99
X160.58Y-81.55
T5
X141.955Y-81.09
X142.275Y-92.95
X144.495Y-81.09
X144.815Y-92.95
T6
X167.67Y-73.81
X167.67Y-99.25
X170.21Y-73.8
X170.21Y-99.2
X172.75Y-73.8
X172.75Y-99.2
X175.29Y-73.8
X175.29Y-99.2
X177.83Y-73.8
X177.83Y-99.2
X180.37Y-73.8
X180.37Y-99.2
X182.91Y-73.8
X182.91Y-99.2
X185.45Y-73.8
X185.45Y-99.2
X187.99Y-73.8
X187.99Y-99.2
X190.53Y-73.8
X190.53Y-99.2
X193.07Y-73.8
X193.07Y-99.2
X195.61Y-73.8
X195.61Y-99.2
X198.15Y-73.8
X198.15Y-99.2
X200.69Y-73.8
X200.69Y-99.2
X203.23Y-73.8
X203.23Y-99.2
X205.77Y-73.8
X205.77Y-99.2
X208.31Y-73.8
X208.31Y-99.2
X210.85Y-73.8
X210.85Y-99.2
X213.39Y-73.8
X213.39Y-99.2
X215.93Y-73.8
X215.93Y-99.2
T3
X128.28Y-82.3G85X127.48Y-82.3
G05
X128.28Y-90.94G85X127.48Y-90.94
G05
X132.61Y-82.3G85X131.51Y-82.3
G05
X132.61Y-90.94G85X131.51Y-90.94
G05
M30
