%TF.GenerationSoftware,KiCad,Pcbnew,9.0.6-9.0.6~ubuntu24.04.1*%
%TF.CreationDate,2025-12-26T18:07:40+01:00*%
%TF.ProjectId,security-system,73656375-7269-4747-992d-73797374656d,0*%
%TF.SameCoordinates,Original*%
%TF.FileFunction,Copper,L3,Inr*%
%TF.FilePolarity,Positive*%
%FSLAX46Y46*%
G04 Gerber Fmt 4.6, Leading zero omitted, Abs format (unit mm)*
G04 Created by KiCad (PCBNEW 9.0.6-9.0.6~ubuntu24.04.1) date 2025-12-26 18:07:40*
%MOMM*%
%LPD*%
G01*
G04 APERTURE LIST*
G04 Aperture macros list*
%AMRoundRect*
0 Rectangle with rounded corners*
0 $1 Rounding radius*
0 $2 $3 $4 $5 $6 $7 $8 $9 X,Y pos of 4 corners*
0 Add a 4 corners polygon primitive as box body*
4,1,4,$2,$3,$4,$5,$6,$7,$8,$9,$2,$3,0*
0 Add four circle primitives for the rounded corners*
1,1,$1+$1,$2,$3*
1,1,$1+$1,$4,$5*
1,1,$1+$1,$6,$7*
1,1,$1+$1,$8,$9*
0 Add four rect primitives between the rounded corners*
20,1,$1+$1,$2,$3,$4,$5,0*
20,1,$1+$1,$4,$5,$6,$7,0*
20,1,$1+$1,$6,$7,$8,$9,0*
20,1,$1+$1,$8,$9,$2,$3,0*%
G04 Aperture macros list end*
%TA.AperFunction,ComponentPad*%
%ADD10O,0.800000X1.300000*%
%TD*%
%TA.AperFunction,ComponentPad*%
%ADD11RoundRect,0.200000X-0.200000X-0.450000X0.200000X-0.450000X0.200000X0.450000X-0.200000X0.450000X0*%
%TD*%
%TA.AperFunction,HeatsinkPad*%
%ADD12O,2.100000X1.000000*%
%TD*%
%TA.AperFunction,HeatsinkPad*%
%ADD13O,1.800000X1.000000*%
%TD*%
%TA.AperFunction,ComponentPad*%
%ADD14R,1.800000X1.800000*%
%TD*%
%TA.AperFunction,ComponentPad*%
%ADD15C,1.800000*%
%TD*%
%TA.AperFunction,ComponentPad*%
%ADD16C,1.600000*%
%TD*%
%TA.AperFunction,ComponentPad*%
%ADD17C,1.700000*%
%TD*%
%TA.AperFunction,ComponentPad*%
%ADD18R,1.700000X1.700000*%
%TD*%
%TA.AperFunction,ViaPad*%
%ADD19C,0.600000*%
%TD*%
G04 APERTURE END LIST*
D10*
%TO.N,+5V*%
%TO.C,J1*%
X159470000Y-73520000D03*
%TO.N,/SDA*%
X158220000Y-73520000D03*
%TO.N,/SCL*%
X156970000Y-73520000D03*
%TO.N,GND*%
X155720000Y-73520000D03*
X154470000Y-73520000D03*
D11*
%TO.N,unconnected-(J1-Pin_1-Pad1)*%
X153220000Y-73520000D03*
%TD*%
D12*
%TO.N,GND*%
%TO.C,J2*%
X132060000Y-82300000D03*
D13*
X127880000Y-82300000D03*
D12*
X132060000Y-90940000D03*
D13*
X127880000Y-90940000D03*
%TD*%
D14*
%TO.N,GND*%
%TO.C,DETECTION LED*%
X142275000Y-92950000D03*
D15*
%TO.N,Net-(D2-A)*%
X144815000Y-92950000D03*
%TD*%
D16*
%TO.N,+5V*%
%TO.C,R1*%
X152960000Y-81550000D03*
%TO.N,Net-(D1-A)*%
X160580000Y-81550000D03*
%TD*%
D14*
%TO.N,GND*%
%TO.C,POWER-ON LED*%
X141955000Y-81090000D03*
D15*
%TO.N,Net-(D1-A)*%
X144495000Y-81090000D03*
%TD*%
D16*
%TO.N,Net-(J2-CC2)*%
%TO.C,R4*%
X135290000Y-77980000D03*
%TO.N,GND*%
X135290000Y-70360000D03*
%TD*%
%TO.N,+5V*%
%TO.C,R2*%
X152930000Y-92990000D03*
%TO.N,Net-(D2-A)*%
X160550000Y-92990000D03*
%TD*%
%TO.N,Net-(J2-CC1)*%
%TO.C,R3*%
X129500000Y-78010000D03*
%TO.N,GND*%
X129500000Y-70390000D03*
%TD*%
D17*
%TO.N,+5V*%
%TO.C,U1*%
X167670000Y-73810000D03*
%TO.N,unconnected-(U1-GPIO16-Pad15)*%
X198150000Y-73800000D03*
%TO.N,/SCL*%
X182910000Y-73800000D03*
%TO.N,unconnected-(U1-GPIO46-Pad25)*%
X185450000Y-73800000D03*
D18*
%TO.N,+3.3V*%
X215930000Y-73800000D03*
D17*
%TO.N,unconnected-(U1-GPIO15-Pad13)*%
X200690000Y-73800000D03*
%TO.N,unconnected-(U1-GPIO7-Pad11)*%
X203230000Y-73800000D03*
%TO.N,unconnected-(U1-GPIO4-Pad5)*%
X210850000Y-73800000D03*
%TO.N,unconnected-(U1-GPIO3-Pad23)*%
X187990000Y-73800000D03*
%TO.N,/SDA*%
X190530000Y-73800000D03*
%TO.N,unconnected-(U1-GPIO10-Pad29)*%
X180370000Y-73800000D03*
%TO.N,unconnected-(U1-GPIO5-Pad7)*%
X208310000Y-73800000D03*
%TO.N,unconnected-(U1-GPIO6-Pad9)*%
X205770000Y-73800000D03*
%TO.N,unconnected-(U1-GPIO11-Pad31)*%
X177830000Y-73800000D03*
%TO.N,unconnected-(U1-GPIO12-Pad33)*%
X175290000Y-73800000D03*
%TO.N,unconnected-(U1-GPIO13-Pad35)*%
X172750000Y-73800000D03*
%TO.N,unconnected-(U1-GPIO18-Pad19)*%
X193070000Y-73800000D03*
%TO.N,unconnected-(U1-GPIO14-Pad37)*%
X170210000Y-73800000D03*
%TO.N,unconnected-(U1-GPIO17-Pad17)*%
X195610000Y-73800000D03*
%TO.N,unconnected-(U1-RST-Pad3)*%
X213390000Y-73800000D03*
%TO.N,GND*%
X167670000Y-99250000D03*
%TO.N,unconnected-(U1-GPIO19-Pad38)*%
X170210000Y-99200000D03*
%TO.N,unconnected-(U1-GPIO20-Pad36)*%
X172750000Y-99200000D03*
%TO.N,unconnected-(U1-GPIO21-Pad34)*%
X175290000Y-99200000D03*
%TO.N,unconnected-(U1-GPIO47-Pad32)*%
X177830000Y-99200000D03*
%TO.N,unconnected-(U1-GPIO48-Pad30)*%
X180370000Y-99200000D03*
%TO.N,unconnected-(U1-GPIO45-Pad28)*%
X182910000Y-99200000D03*
%TO.N,unconnected-(U1-GPIO37-Pad20)*%
X193070000Y-99200000D03*
%TO.N,unconnected-(U1-GPIO36-Pad22)*%
X190530000Y-99200000D03*
%TO.N,unconnected-(U1-GPIO39-Pad16)*%
X198150000Y-99200000D03*
%TO.N,unconnected-(U1-GPIO42-Pad10)*%
X205770000Y-99200000D03*
%TO.N,unconnected-(U1-GPIO41-Pad12)*%
X203230000Y-99200000D03*
%TO.N,unconnected-(U1-GPIO40-Pad14)*%
X200690000Y-99200000D03*
%TO.N,unconnected-(U1-GPIO44-Pad4)*%
X213390000Y-99200000D03*
%TO.N,unconnected-(U1-GPIO0-Pad26)*%
X185450000Y-99200000D03*
%TO.N,unconnected-(U1-GPIO38-Pad18)*%
X195610000Y-99200000D03*
%TO.N,unconnected-(U1-GPIO35-Pad24)*%
X187990000Y-99200000D03*
%TO.N,unconnected-(U1-GPIO1-Pad6)*%
X210850000Y-99200000D03*
%TO.N,unconnected-(U1-GPIO2-Pad8)*%
X208310000Y-99200000D03*
%TO.N,unconnected-(U1-GPIO43-Pad2)*%
X215930000Y-99200000D03*
%TD*%
D19*
%TO.N,+5V*%
X134290000Y-85750000D03*
X134270000Y-88370000D03*
%TD*%
M02*
